<svg xmlns="http://www.w3.org/2000/svg" viewBox="0 0 109.94 119.27"><defs><style>.cls-1{fill:#d0dfe2;}.cls-2{fill:#f86442;}.cls-3{fill:#f75027;}.cls-4{fill:#171918;}.cls-5{fill:#343838;}.cls-6{fill:#c3d5d9;}.cls-7{fill:#fff;}</style></defs><g id="Layer_2" data-name="Layer 2"><g id="Layer_1-2" data-name="Layer 1"><polygon class="cls-1" points="4.54 86.93 7.3 85.58 7.34 86.54 4.54 86.93"/><polygon class="cls-1" points="5.8 43.84 7.3 43.03 7.34 43.99 5.8 43.84"/><polygon class="cls-2" points="104.3 37.7 104.3 86.81 55.71 114.87 55.71 65.76 84.43 30.06 104.3 37.7"/><polygon class="cls-3" points="55.71 65.76 7.11 37.7 7.11 86.81 55.71 114.87 55.71 65.76"/><polygon class="cls-1" points="81.97 30.2 108.19 40.51 109.94 39.52 83.04 29.17 31.54 0 29.89 2.21 81.97 30.2"/><polygon class="cls-4" points="109.94 39.52 54.66 7.62 31.54 0 83.04 29.17 109.94 39.52"/><polygon class="cls-1" points="84.43 30.06 55.5 68.81 53.74 69.27 2.46 38.55 32.93 0.89 84.43 30.06"/><polygon class="cls-5" points="83.04 29.17 53.74 69.27 0 39.18 31.54 0 83.04 29.17"/><polygon class="cls-1" points="104.3 43.84 55.71 71.21 7.11 43.88 5.8 43.84 55.71 72.42 106.29 44.07 104.3 43.84"/><polygon class="cls-6" points="5.8 43.84 5.8 46.75 55.71 75.45 106.29 46.9 106.29 44.07 55.71 72.42 5.8 43.84"/><polygon class="cls-1" points="106.29 44.07 104.3 42.87 104.3 43.84 106.29 44.07"/><polygon class="cls-1" points="104.3 86.4 55.71 113.77 7.11 86.44 4.54 86.93 55.97 116.24 107.47 86.93 104.3 86.4"/><polygon class="cls-6" points="4.54 86.93 4.54 89.83 55.97 119.27 107.47 89.75 107.47 86.93 55.97 116.24 4.54 86.93"/><polygon class="cls-1" points="107.47 86.93 104.3 85.42 104.3 86.4 107.47 86.93"/><polygon class="cls-1" points="90.06 67.45 91.58 68.31 90.06 95.04 72.42 106.94 70.95 106.08 70.95 78.49 90.06 67.45"/><polygon class="cls-7" points="91.54 68.31 91.54 95.91 72.42 106.94 72.42 79.35 91.54 68.31"/><polygon class="cls-6" points="89.68 71.56 90.34 71.17 90.34 94.68 74.06 104.08 74.06 103.27 89.68 94.25 89.68 71.56"/><polygon class="cls-1" points="89.68 71.56 89.68 94.25 74.06 103.27 74.06 80.57 89.68 71.56"/><polygon class="cls-6" points="90.01 72.23 74.81 103.24 74.06 103.77 74.06 102.09 88.87 71.99 90.01 71.4 90.01 72.23"/><polygon class="cls-6" points="74.06 81.45 89.5 95.1 90.01 94.81 90.01 94.13 74.34 80.42 74.06 80.57 74.06 81.45"/><polygon class="cls-7" points="90.34 72.45 75.14 103.46 74.06 104.08 74.06 102.98 89.38 71.73 90.34 71.17 90.34 72.45"/><polygon class="cls-7" points="74.06 81.03 89.83 94.97 90.34 94.68 90.35 94.01 74.62 80.25 74.06 80.57 74.06 81.03"/><polygon class="cls-6" points="87.78 39.52 88.14 39.72 87.78 46.35 82.23 49.97 81.87 49.77 81.87 42.93 87.78 39.52"/><polygon class="cls-7" points="88.14 39.72 88.14 46.56 82.23 49.97 82.23 43.14 88.14 39.72"/><polygon class="cls-6" points="87.26 40.81 87.65 40.58 87.65 46.27 82.72 49.11 82.72 48.74 87.26 46.12 87.26 40.81"/><polygon class="cls-1" points="87.26 40.81 87.26 46.12 82.72 48.74 82.72 43.43 87.26 40.81"/><polygon class="cls-6" points="42.69 71.34 42.45 71.48 42.69 75.85 46.36 78.24 46.59 78.11 46.59 73.6 42.69 71.34"/><polygon class="cls-7" points="42.45 71.48 42.45 75.99 46.36 78.24 46.36 73.73 42.45 71.48"/><polygon class="cls-6" points="43.03 72.19 42.78 72.04 42.78 75.8 46.03 77.67 46.03 77.43 43.03 75.7 43.03 72.19"/><polygon class="cls-1" points="43.03 72.19 43.03 75.7 46.03 77.43 46.03 73.92 43.03 72.19"/><polygon class="cls-6" points="27.99 63.19 27.75 63.33 27.99 67.7 31.66 70.09 31.9 69.96 31.9 65.44 27.99 63.19"/><polygon class="cls-7" points="27.75 63.33 27.75 67.84 31.66 70.09 31.66 65.58 27.75 63.33"/><polygon class="cls-6" points="28.34 64.04 28.08 63.89 28.08 67.65 31.33 69.52 31.33 69.28 28.34 67.55 28.34 64.04"/><polygon class="cls-1" points="28.34 64.04 28.34 67.55 31.33 69.28 31.33 65.77 28.34 64.04"/><polygon class="cls-6" points="13.3 55.04 13.06 55.17 13.3 59.55 16.97 61.94 17.2 61.8 17.2 57.29 13.3 55.04"/><polygon class="cls-7" points="13.06 55.17 13.06 59.68 16.97 61.94 16.97 57.43 13.06 55.17"/><polygon class="cls-6" points="13.64 55.89 13.39 55.74 13.39 59.49 16.64 61.37 16.64 61.13 13.64 59.4 13.64 55.89"/><polygon class="cls-1" points="13.64 55.89 13.64 59.4 16.64 61.13 16.64 57.62 13.64 55.89"/></g></g></svg>