<svg xmlns="http://www.w3.org/2000/svg" viewBox="0 0 225.06 166.38"><defs><style>.cls-1{fill:#707a10;}.cls-2{fill:#8cb223;}.cls-3{fill:#6c9e16;}.cls-4{fill:#a5c421;}.cls-5{fill:#bdd84d;}.cls-6{fill:#413b2b;}.cls-7{fill:#6d5527;}.cls-8{fill:#bcbfc1;}.cls-9{fill:#505858;}.cls-10{fill:#e6ebed;}.cls-11{fill:#343838;}.cls-12{fill:#d36d4c;}.cls-13{fill:#a4a6a8;}.cls-14{fill:#943e25;}.cls-15{fill:#a44a2f;}.cls-16{fill:#171918;}.cls-17{fill:#f3845f;}.cls-18{fill:#b57629;}.cls-19{opacity:0.47;}</style></defs><g id="Layer_2" data-name="Layer 2"><g id="Layer_1-2" data-name="Layer 1"><polygon class="cls-1" points="0 109.56 99.25 166.38 225.06 94.32 225.06 90.84 127.2 37.27 0 106.08 0 109.56"/><polygon class="cls-2" points="0 106.08 99.25 162.9 225.06 90.84 127.2 33.78 0 106.08"/><path class="cls-3" d="M119.21,96.33h0s-.57-3.16.17-4.18h6.78l0-.05h-7.75c-.75,1-.18,4.18-.18,4.18h0c0,1.29,1.81,2.33,4,2.33h.17C120.59,98.39,119.21,97.45,119.21,96.33Z"/><path class="cls-4" d="M126.3,96.28s.56-3.06-.14-4.13h-6.78c-.74,1-.17,4.18-.17,4.18h0c0,1.12,1.38,2.06,3.21,2.28C124.58,98.56,126.3,97.54,126.3,96.28Z"/><ellipse class="cls-5" cx="122.25" cy="92.78" rx="4.05" ry="2.33"/><path class="cls-3" d="M126.84,97h0s-.32-1.76.1-2.33h3.79l0,0h-4.33c-.42.57-.1,2.34-.1,2.34h0c0,.72,1,1.3,2.26,1.3h.1C127.61,98.19,126.84,97.67,126.84,97Z"/><path class="cls-4" d="M130.81,97s.31-1.72-.08-2.31h-3.79c-.42.57-.1,2.33-.1,2.33h0c0,.63.77,1.15,1.8,1.28C129.84,98.29,130.81,97.72,130.81,97Z"/><ellipse class="cls-5" cx="128.54" cy="95.06" rx="2.26" ry="1.3"/><path class="cls-3" d="M122.22,99.14h0s-.32-1.77.1-2.33h3.79l0,0h-4.34c-.41.57-.09,2.34-.09,2.34h0c0,.71,1,1.3,2.26,1.3H124C123,100.29,122.22,99.77,122.22,99.14Z"/><path class="cls-4" d="M126.18,99.12s.31-1.72-.07-2.31h-3.79c-.42.56-.1,2.33-.1,2.33h0c0,.63.77,1.15,1.79,1.28C125.22,100.39,126.18,99.82,126.18,99.12Z"/><ellipse class="cls-5" cx="123.92" cy="97.16" rx="2.26" ry="1.3"/><path class="cls-6" d="M120.19,53.5v-15h2v15a.78.78,0,0,1-.78.77h-.43A.76.76,0,0,1,120.19,53.5Z"/><path class="cls-3" d="M116,17h-3.52s-2.44,23.19,8.77,23.19A5.52,5.52,0,0,0,123,40C113.86,37.58,116,17,116,17Z"/><path class="cls-4" d="M129.83,17H116s-2.17,20.58,7,23C126.05,39.11,132,35.14,129.83,17Z"/><ellipse class="cls-5" cx="121.17" cy="17" rx="8.66" ry="3.94"/><path class="cls-6" d="M120.19,43.35c-.43.12-7.68.34-7.3-3.49h-1.21s-1.22,4.88,8.51,4.88Z"/><ellipse class="cls-7" cx="112.29" cy="39.86" rx="0.61" ry="0.18"/><path class="cls-3" d="M109.91,31.88h-1.58s-1.1,10.45,4,10.45a2.24,2.24,0,0,0,.76-.1C108.94,41.15,109.91,31.88,109.91,31.88Z"/><path class="cls-4" d="M116.13,31.88h-6.22s-1,9.27,3.13,10.35C114.43,41.85,117.12,40.06,116.13,31.88Z"/><ellipse class="cls-5" cx="112.23" cy="31.88" rx="3.9" ry="1.77"/><path class="cls-6" d="M190.93,90V75h1.95V90a.76.76,0,0,1-.77.77h-.43A.75.75,0,0,1,190.93,90Z"/><path class="cls-3" d="M186.76,53.53h-3.51s-2.44,23.2,8.77,23.2a5.45,5.45,0,0,0,1.69-.23C184.6,74.11,186.76,53.53,186.76,53.53Z"/><path class="cls-4" d="M200.57,53.53H186.76s-2.16,20.58,7,23C196.79,75.65,202.76,71.68,200.57,53.53Z"/><ellipse class="cls-5" cx="191.91" cy="53.53" rx="8.66" ry="3.94"/><path class="cls-6" d="M190.93,79.88c-.44.13-7.68.35-7.3-3.48h-1.21s-1.22,4.87,8.51,4.87Z"/><ellipse class="cls-7" cx="183.02" cy="76.4" rx="0.61" ry="0.18"/><path class="cls-3" d="M180.65,68.42h-1.58s-1.1,10.45,4,10.45a2.6,2.6,0,0,0,.76-.1C179.68,77.69,180.65,68.42,180.65,68.42Z"/><path class="cls-4" d="M186.87,68.42h-6.22s-1,9.27,3.13,10.35C185.17,78.38,187.86,76.59,186.87,68.42Z"/><ellipse class="cls-5" cx="182.97" cy="68.42" rx="3.9" ry="1.77"/><path class="cls-6" d="M168.31,78V63h1.95V78a.76.76,0,0,1-.77.77h-.43A.75.75,0,0,1,168.31,78Z"/><path class="cls-3" d="M164.14,41.5h-3.51s-2.44,23.2,8.77,23.2a5.52,5.52,0,0,0,1.7-.23C162,62.08,164.14,41.5,164.14,41.5Z"/><path class="cls-4" d="M178,41.5H164.14s-2.16,20.58,7,23C174.17,63.62,180.14,59.65,178,41.5Z"/><ellipse class="cls-5" cx="169.29" cy="41.5" rx="8.66" ry="3.94"/><path class="cls-6" d="M168.31,67.85c-.44.13-7.68.35-7.3-3.48H159.8s-1.22,4.88,8.51,4.88Z"/><ellipse class="cls-7" cx="160.41" cy="64.37" rx="0.61" ry="0.18"/><path class="cls-3" d="M158,56.39h-1.58s-1.1,10.45,4,10.45a2.6,2.6,0,0,0,.76-.1C157.06,65.66,158,56.39,158,56.39Z"/><path class="cls-4" d="M164.25,56.39H158s-1,9.27,3.13,10.35C162.55,66.35,165.24,64.56,164.25,56.39Z"/><ellipse class="cls-5" cx="160.35" cy="56.39" rx="3.9" ry="1.77"/><path class="cls-6" d="M143.85,65.86v-15h2v15a.78.78,0,0,1-.77.77h-.43A.75.75,0,0,1,143.85,65.86Z"/><path class="cls-3" d="M139.68,29.36h-3.52s-2.43,23.19,8.77,23.19a5.5,5.5,0,0,0,1.7-.23C137.52,49.94,139.68,29.36,139.68,29.36Z"/><path class="cls-4" d="M153.48,29.36h-13.8s-2.16,20.58,6.95,23C149.71,51.47,155.68,47.5,153.48,29.36Z"/><ellipse class="cls-5" cx="144.82" cy="29.36" rx="8.66" ry="3.94"/><path class="cls-6" d="M143.85,55.71c-.44.12-7.69.34-7.31-3.49h-1.2s-1.22,4.88,8.51,4.88Z"/><ellipse class="cls-7" cx="135.94" cy="52.22" rx="0.61" ry="0.18"/><path class="cls-3" d="M133.57,44.24H132s-1.09,10.45,4,10.45a2.29,2.29,0,0,0,.77-.1C132.59,53.51,133.57,44.24,133.57,44.24Z"/><path class="cls-4" d="M139.79,44.24h-6.22s-1,9.27,3.13,10.35C138.08,54.21,140.77,52.42,139.79,44.24Z"/><ellipse class="cls-5" cx="135.88" cy="44.24" rx="3.9" ry="1.77"/><path class="cls-8" d="M45.13,29.44c-.42.87,0,5.39,0,5.39L94.68,54.15,69.81,17.28Z"/><polygon class="cls-9" points="88.66 113.11 103.57 121.85 128.01 107.78 128.01 106.01 115.74 100.68 88.66 111.41 88.66 113.11"/><polygon class="cls-8" points="91.41 112.95 103.57 120.08 128.01 106.01 115.74 98.92 91.41 112.95"/><polygon class="cls-10" points="91.41 84.73 91.41 112.95 115.74 98.92 115.74 70.68 91.41 84.73"/><path class="cls-10" d="M64.34,97.22v26.07a2.09,2.09,0,0,0,3.13,1.82l21.19-12V83.18Z"/><polygon class="cls-8" points="91.41 112.95 88.66 111.41 88.66 83.18 91.41 84.73 91.41 112.95"/><polygon class="cls-11" points="104.3 92.92 104.3 105.47 104.54 105.61 109.82 100.17 110.06 89.88 109.82 89.74 104.3 92.92"/><polygon class="cls-12" points="104.54 93.07 104.54 105.61 110.06 102.43 110.06 89.88 104.54 93.07"/><polygon class="cls-11" points="105.74 103.19 105.74 104.17 105.94 104.25 105.94 103.08 105.74 103.19"/><polygon class="cls-11" points="105.94 95.97 105.74 96.09 105.74 97.09 105.94 96.98 105.94 95.97"/><polygon class="cls-11" points="105.94 96.98 105.74 97.09 105.74 100.19 105.94 100.08 105.94 96.98"/><polygon class="cls-11" points="105.94 102.08 105.74 102.19 105.74 103.19 105.94 103.08 105.94 102.08"/><polygon class="cls-11" points="105.94 101.08 105.74 101.19 105.74 102.19 105.94 102.08 105.94 101.08"/><polygon class="cls-11" points="105.94 100.08 105.74 100.19 105.74 101.19 105.94 101.08 105.94 100.08"/><polygon class="cls-11" points="105.94 93.11 107.53 92.17 107.33 92.08 105.74 93.02 105.74 94.08 105.94 93.97 105.94 93.11"/><polygon class="cls-11" points="105.94 94.97 105.74 95.09 105.74 96.09 105.94 95.97 105.94 94.97"/><polygon class="cls-11" points="105.94 93.97 105.74 94.08 105.74 95.09 105.94 94.97 105.94 93.97"/><polygon class="cls-9" points="107.48 94.1 107.53 94.07 107.53 93.07 107.51 93.08 107.48 94.1"/><polygon class="cls-9" points="107.53 93.07 107.53 92.17 107.51 93.08 107.53 93.07"/><polygon class="cls-9" points="107.34 102.64 107.34 103.19 107.33 103.19 107.33 103.23 105.94 104.25 107.53 103.31 107.53 102.18 107.35 102.28 107.34 102.64"/><polygon class="cls-9" points="107.4 100.25 107.53 100.18 107.53 97.08 107.42 97.14 107.4 100.25"/><polygon class="cls-9" points="107.42 97.14 107.53 97.08 107.53 96.07 107.44 96.12 107.42 97.14"/><polygon class="cls-9" points="107.44 96.12 107.53 96.07 107.53 95.07 107.46 95.11 107.44 96.12"/><polygon class="cls-9" points="107.37 101.27 107.53 101.18 107.53 100.18 107.4 100.25 107.37 101.27"/><polygon class="cls-9" points="107.35 102.28 107.53 102.18 107.53 101.18 107.37 101.27 107.35 102.28"/><polygon class="cls-9" points="107.48 94.1 107.46 95.11 107.53 95.07 107.53 94.07 107.48 94.1"/><polygon class="cls-9" points="106.12 100.98 105.94 101.08 105.94 102.08 106.12 101.98 106.12 100.98"/><polygon class="cls-9" points="107.34 102.64 107.35 102.28 107.34 102.28 107.34 102.64"/><polygon class="cls-9" points="105.94 102.08 105.94 103.08 106.12 102.98 106.12 101.98 105.94 102.08"/><polygon class="cls-9" points="106.12 96.87 105.94 96.98 105.94 100.08 106.12 99.98 106.12 96.87"/><polygon class="cls-9" points="106.12 99.98 105.94 100.08 105.94 101.08 106.12 100.98 106.12 99.98"/><polygon class="cls-9" points="106.12 93.87 105.94 93.97 105.94 94.97 106.12 94.87 106.12 93.87"/><polygon class="cls-9" points="106.12 95.87 105.94 95.97 105.94 96.98 106.12 96.87 106.12 95.87"/><polygon class="cls-9" points="106.12 94.87 105.94 94.97 105.94 95.97 106.12 95.87 106.12 94.87"/><polygon class="cls-9" points="107.33 103.19 106.12 103.91 106.12 103.66 106.12 102.98 105.94 103.08 105.94 104.25 107.33 103.23 107.33 103.19"/><polygon class="cls-9" points="107.34 96.18 107.44 96.12 107.46 95.11 107.34 95.18 107.34 96.18"/><polygon class="cls-9" points="107.34 95.18 107.46 95.11 107.48 94.1 107.34 94.18 107.34 95.18"/><polygon class="cls-9" points="107.34 102.28 107.35 102.28 107.37 101.27 107.34 101.28 107.34 102.28"/><polygon class="cls-9" points="105.94 93.97 106.12 93.87 106.12 93.19 107.07 92.62 107.34 92.46 107.34 93.18 107.51 93.08 107.53 92.17 105.94 93.11 105.94 93.97"/><polygon class="cls-9" points="107.34 93.18 107.34 94.18 107.48 94.1 107.51 93.08 107.34 93.18"/><polygon class="cls-9" points="107.34 97.18 107.42 97.14 107.44 96.12 107.34 96.18 107.34 97.18"/><polygon class="cls-9" points="107.34 101.28 107.37 101.27 107.4 100.25 107.34 100.28 107.34 101.28"/><polygon class="cls-9" points="107.34 100.28 107.4 100.25 107.42 97.14 107.34 97.18 107.34 100.28"/><polygon class="cls-8" points="107.34 103.19 107.34 102.64 107.33 103.19 107.34 103.19"/><polygon class="cls-11" points="107.07 92.62 107.07 93.33 107.07 94.33 107.07 95.33 107.07 96.33 107.07 99.44 107.07 100.44 107.07 101.44 107.07 102.44 107.07 103.09 106.12 103.66 106.12 103.91 107.34 103.19 107.34 102.64 107.34 102.28 107.34 101.28 107.34 100.28 107.34 97.18 107.34 96.18 107.34 95.18 107.34 94.18 107.34 93.18 107.34 92.46 107.07 92.62"/><polygon class="cls-11" points="107.9 101.97 107.9 102.94 108.1 103.03 108.1 101.86 107.9 101.97"/><polygon class="cls-11" points="108.1 94.75 107.9 94.86 107.9 95.86 108.1 95.75 108.1 94.75"/><polygon class="cls-11" points="108.1 95.75 107.9 95.86 107.9 96.87 108.1 96.75 108.1 95.75"/><polygon class="cls-11" points="108.1 100.86 107.9 100.97 107.9 101.97 108.1 101.86 108.1 100.86"/><polygon class="cls-11" points="108.1 99.86 107.9 99.97 107.9 100.97 108.1 100.86 108.1 99.86"/><polygon class="cls-11" points="108.1 96.75 107.9 96.87 107.9 99.97 108.1 99.86 108.1 96.75"/><polygon class="cls-11" points="108.1 91.89 109.69 90.95 109.5 90.86 107.9 91.8 107.9 92.86 108.1 92.75 108.1 91.89"/><polygon class="cls-11" points="108.1 93.75 107.9 93.86 107.9 94.86 108.1 94.75 108.1 93.75"/><polygon class="cls-11" points="108.1 92.75 107.9 92.86 107.9 93.86 108.1 93.75 108.1 92.75"/><polygon class="cls-9" points="109.65 92.88 109.69 92.85 109.69 91.85 109.67 91.86 109.65 92.88"/><polygon class="cls-9" points="109.69 91.85 109.69 90.95 109.67 91.86 109.69 91.85"/><polygon class="cls-9" points="109.51 101.42 109.51 101.96 109.5 101.97 109.5 102.01 108.1 103.03 109.69 102.09 109.69 100.96 109.52 101.06 109.51 101.42"/><polygon class="cls-9" points="109.56 96.93 109.69 96.85 109.69 95.85 109.58 95.91 109.56 96.93"/><polygon class="cls-9" points="109.58 95.91 109.69 95.85 109.69 94.85 109.6 94.9 109.58 95.91"/><polygon class="cls-9" points="109.6 94.9 109.69 94.85 109.69 93.85 109.63 93.89 109.6 94.9"/><polygon class="cls-9" points="109.54 100.05 109.69 99.96 109.69 96.85 109.56 96.93 109.54 100.05"/><polygon class="cls-9" points="109.52 101.06 109.69 100.96 109.69 99.96 109.54 100.05 109.52 101.06"/><polygon class="cls-9" points="109.65 92.88 109.63 93.89 109.69 93.85 109.69 92.85 109.65 92.88"/><polygon class="cls-9" points="108.28 99.76 108.1 99.86 108.1 100.86 108.28 100.76 108.28 99.76"/><polygon class="cls-9" points="109.51 101.42 109.52 101.06 109.51 101.06 109.51 101.42"/><polygon class="cls-9" points="108.1 100.86 108.1 101.86 108.28 101.76 108.28 100.76 108.1 100.86"/><polygon class="cls-9" points="108.28 95.65 108.1 95.75 108.1 96.75 108.28 96.65 108.28 95.65"/><polygon class="cls-9" points="108.28 96.65 108.1 96.75 108.1 99.86 108.28 99.76 108.28 96.65"/><polygon class="cls-9" points="108.28 92.65 108.1 92.75 108.1 93.75 108.28 93.65 108.28 92.65"/><polygon class="cls-9" points="108.28 94.65 108.1 94.75 108.1 95.75 108.28 95.65 108.28 94.65"/><polygon class="cls-9" points="108.28 93.65 108.1 93.75 108.1 94.75 108.28 94.65 108.28 93.65"/><polygon class="cls-9" points="109.5 101.97 108.28 102.69 108.28 102.43 108.28 101.76 108.1 101.86 108.1 103.03 109.5 102.01 109.5 101.97"/><polygon class="cls-9" points="109.51 94.96 109.6 94.9 109.63 93.89 109.51 93.95 109.51 94.96"/><polygon class="cls-9" points="109.51 93.95 109.63 93.89 109.65 92.88 109.51 92.95 109.51 93.95"/><polygon class="cls-9" points="109.51 101.06 109.52 101.06 109.54 100.05 109.51 100.06 109.51 101.06"/><polygon class="cls-9" points="108.1 92.75 108.28 92.65 108.28 91.97 109.23 91.4 109.51 91.24 109.51 91.95 109.67 91.86 109.69 90.95 108.1 91.89 108.1 92.75"/><polygon class="cls-9" points="109.51 91.95 109.51 92.95 109.65 92.88 109.67 91.86 109.51 91.95"/><polygon class="cls-9" points="109.51 95.96 109.58 95.91 109.6 94.9 109.51 94.96 109.51 95.96"/><polygon class="cls-9" points="109.51 100.06 109.54 100.05 109.56 96.93 109.51 96.96 109.51 100.06"/><polygon class="cls-9" points="109.51 96.96 109.56 96.93 109.58 95.91 109.51 95.96 109.51 96.96"/><polygon class="cls-8" points="109.51 101.96 109.51 101.42 109.5 101.97 109.51 101.96"/><polygon class="cls-11" points="109.23 91.4 109.23 92.11 109.23 93.11 109.23 94.11 109.23 95.11 109.23 96.11 109.23 97.11 109.23 100.22 109.23 101.22 109.23 101.86 108.28 102.43 108.28 102.69 109.51 101.96 109.51 101.42 109.51 101.06 109.51 100.06 109.51 96.96 109.51 95.96 109.51 94.96 109.51 93.95 109.51 92.95 109.51 91.95 109.51 91.24 109.23 91.4"/><polygon class="cls-11" points="98.78 96.11 98.78 108.65 99.03 108.8 104.3 105.47 104.54 93.07 104.3 92.92 98.78 96.11"/><polygon class="cls-12" points="99.03 96.25 99.03 108.8 104.54 105.61 104.54 93.07 99.03 96.25"/><polygon class="cls-11" points="99.33 106.91 99.33 107.88 99.53 107.97 99.53 106.8 99.33 106.91"/><polygon class="cls-11" points="99.53 101.79 99.33 101.91 99.33 102.91 99.53 102.8 99.53 101.79"/><polygon class="cls-11" points="99.53 102.8 99.33 102.91 99.33 103.91 99.53 103.8 99.53 102.8"/><polygon class="cls-11" points="99.53 105.8 99.33 105.91 99.33 106.91 99.53 106.8 99.53 105.8"/><polygon class="cls-11" points="99.53 104.8 99.33 104.91 99.33 105.91 99.53 105.8 99.53 104.8"/><polygon class="cls-11" points="99.53 103.8 99.33 103.91 99.33 104.91 99.53 104.8 99.53 103.8"/><polygon class="cls-11" points="99.53 96.82 101.12 95.88 100.92 95.8 99.33 96.74 99.33 99.9 99.53 99.79 99.53 96.82"/><polygon class="cls-11" points="99.53 100.79 99.33 100.91 99.33 101.91 99.53 101.79 99.53 100.79"/><polygon class="cls-11" points="99.53 99.79 99.33 99.9 99.33 100.91 99.53 100.79 99.53 99.79"/><polygon class="cls-9" points="101.08 99.92 101.12 99.89 101.12 96.79 101.1 96.8 101.08 99.92"/><polygon class="cls-9" points="101.12 96.79 101.12 95.88 101.1 96.8 101.12 96.79"/><polygon class="cls-9" points="100.94 106.36 100.94 106.9 100.92 106.91 100.92 106.94 99.53 107.97 101.12 107.03 101.12 105.89 100.94 105.99 100.94 106.36"/><polygon class="cls-9" points="100.99 103.97 101.12 103.89 101.12 102.89 101.01 102.95 100.99 103.97"/><polygon class="cls-9" points="101.01 102.95 101.12 102.89 101.12 101.89 101.03 101.94 101.01 102.95"/><polygon class="cls-9" points="101.03 101.94 101.12 101.89 101.12 100.89 101.05 100.93 101.03 101.94"/><polygon class="cls-9" points="100.97 104.98 101.12 104.89 101.12 103.89 100.99 103.97 100.97 104.98"/><polygon class="cls-9" points="100.94 105.99 101.12 105.89 101.12 104.89 100.97 104.98 100.94 105.99"/><polygon class="cls-9" points="101.08 99.92 101.05 100.93 101.12 100.89 101.12 99.89 101.08 99.92"/><polygon class="cls-9" points="99.71 104.69 99.53 104.8 99.53 105.8 99.71 105.69 99.71 104.69"/><polygon class="cls-9" points="100.94 106.36 100.94 105.99 100.94 106 100.94 106.36"/><polygon class="cls-9" points="99.53 105.8 99.53 106.8 99.71 106.69 99.71 105.69 99.53 105.8"/><polygon class="cls-9" points="99.71 102.69 99.53 102.8 99.53 103.8 99.71 103.69 99.71 102.69"/><polygon class="cls-9" points="99.71 103.69 99.53 103.8 99.53 104.8 99.71 104.69 99.71 103.69"/><polygon class="cls-9" points="99.71 99.69 99.53 99.79 99.53 100.79 99.71 100.69 99.71 99.69"/><polygon class="cls-9" points="99.71 101.69 99.53 101.79 99.53 102.8 99.71 102.69 99.71 101.69"/><polygon class="cls-9" points="99.71 100.69 99.53 100.79 99.53 101.79 99.71 101.69 99.71 100.69"/><polygon class="cls-9" points="100.92 106.91 99.71 107.63 99.71 107.37 99.71 106.69 99.53 106.8 99.53 107.97 100.92 106.94 100.92 106.91"/><polygon class="cls-9" points="100.94 102 101.03 101.94 101.05 100.93 100.94 101 100.94 102"/><polygon class="cls-9" points="100.94 101 101.05 100.93 101.08 99.92 100.94 100 100.94 101"/><polygon class="cls-9" points="100.94 106 100.94 105.99 100.97 104.98 100.94 105 100.94 106"/><polygon class="cls-9" points="99.53 99.79 99.71 99.69 99.71 96.91 100.66 96.34 100.94 96.18 100.94 96.89 101.1 96.8 101.12 95.88 99.53 96.82 99.53 99.79"/><polygon class="cls-9" points="100.94 96.89 100.94 100 101.08 99.92 101.1 96.8 100.94 96.89"/><polygon class="cls-9" points="100.94 103 101.01 102.95 101.03 101.94 100.94 102 100.94 103"/><polygon class="cls-9" points="100.94 105 100.97 104.98 100.99 103.97 100.94 104 100.94 105"/><polygon class="cls-9" points="100.94 104 100.99 103.97 101.01 102.95 100.94 103 100.94 104"/><polygon class="cls-8" points="100.94 106.9 100.94 106.36 100.92 106.91 100.94 106.9"/><polygon class="cls-11" points="100.66 96.34 100.66 97.05 100.66 100.15 100.66 101.15 100.66 102.15 100.66 103.15 100.66 104.15 100.66 105.15 100.66 106.15 100.66 106.8 99.71 107.37 99.71 107.63 100.94 106.9 100.94 106.36 100.94 106 100.94 105 100.94 104 100.94 103 100.94 102 100.94 101 100.94 100 100.94 96.89 100.94 96.18 100.66 96.34"/><polygon class="cls-11" points="101.5 105.69 101.5 106.66 101.69 106.74 101.69 105.58 101.5 105.69"/><polygon class="cls-11" points="101.69 100.57 101.5 100.68 101.5 101.68 101.69 101.57 101.69 100.57"/><polygon class="cls-11" points="101.69 101.57 101.5 101.68 101.5 102.68 101.69 102.57 101.69 101.57"/><polygon class="cls-11" points="101.69 104.58 101.5 104.69 101.5 105.69 101.69 105.58 101.69 104.58"/><polygon class="cls-11" points="101.69 103.57 101.5 103.69 101.5 104.69 101.69 104.58 101.69 103.57"/><polygon class="cls-11" points="101.69 102.57 101.5 102.68 101.5 103.69 101.69 103.57 101.69 102.57"/><polygon class="cls-11" points="101.69 95.6 103.28 94.66 103.09 94.58 101.5 95.52 101.5 96.58 101.69 96.47 101.69 95.6"/><polygon class="cls-11" points="101.69 99.57 101.5 99.68 101.5 100.68 101.69 100.57 101.69 99.57"/><polygon class="cls-11" points="101.69 96.47 101.5 96.58 101.5 99.68 101.69 99.57 101.69 96.47"/><polygon class="cls-9" points="103.24 96.59 103.28 96.56 103.28 95.56 103.26 95.58 103.24 96.59"/><polygon class="cls-9" points="103.28 95.56 103.28 94.66 103.26 95.58 103.28 95.56"/><polygon class="cls-9" points="103.1 105.13 103.1 105.68 103.09 105.69 103.09 105.72 101.69 106.74 103.28 105.8 103.28 104.67 103.11 104.77 103.1 105.13"/><polygon class="cls-9" points="103.15 102.75 103.28 102.67 103.28 101.67 103.17 101.73 103.15 102.75"/><polygon class="cls-9" points="103.17 101.73 103.28 101.67 103.28 100.67 103.19 100.72 103.17 101.73"/><polygon class="cls-9" points="103.19 100.72 103.28 100.67 103.28 99.67 103.22 99.71 103.19 100.72"/><polygon class="cls-9" points="103.13 103.76 103.28 103.67 103.28 102.67 103.15 102.75 103.13 103.76"/><polygon class="cls-9" points="103.11 104.77 103.28 104.67 103.28 103.67 103.13 103.76 103.11 104.77"/><polygon class="cls-9" points="103.24 96.59 103.22 99.71 103.28 99.67 103.28 96.56 103.24 96.59"/><polygon class="cls-9" points="101.87 103.47 101.69 103.57 101.69 104.58 101.87 104.47 101.87 103.47"/><polygon class="cls-9" points="103.1 105.13 103.11 104.77 103.1 104.78 103.1 105.13"/><polygon class="cls-9" points="101.69 104.58 101.69 105.58 101.87 105.47 101.87 104.47 101.69 104.58"/><polygon class="cls-9" points="101.87 101.47 101.69 101.57 101.69 102.57 101.87 102.47 101.87 101.47"/><polygon class="cls-9" points="101.87 102.47 101.69 102.57 101.69 103.57 101.87 103.47 101.87 102.47"/><polygon class="cls-9" points="101.87 96.36 101.69 96.47 101.69 99.57 101.87 99.47 101.87 96.36"/><polygon class="cls-9" points="101.87 100.47 101.69 100.57 101.69 101.57 101.87 101.47 101.87 100.47"/><polygon class="cls-9" points="101.87 99.47 101.69 99.57 101.69 100.57 101.87 100.47 101.87 99.47"/><polygon class="cls-9" points="103.09 105.69 101.87 106.41 101.87 106.15 101.87 105.47 101.69 105.58 101.69 106.74 103.09 105.72 103.09 105.69"/><polygon class="cls-9" points="103.1 100.77 103.19 100.72 103.22 99.71 103.1 99.77 103.1 100.77"/><polygon class="cls-9" points="103.1 99.77 103.22 99.71 103.24 96.59 103.1 96.67 103.1 99.77"/><polygon class="cls-9" points="103.1 104.78 103.11 104.77 103.13 103.76 103.1 103.78 103.1 104.78"/><polygon class="cls-9" points="101.69 96.47 101.87 96.36 101.87 95.68 102.82 95.11 103.1 94.95 103.1 95.67 103.26 95.58 103.28 94.66 101.69 95.6 101.69 96.47"/><polygon class="cls-9" points="103.1 95.67 103.1 96.67 103.24 96.59 103.26 95.58 103.1 95.67"/><polygon class="cls-9" points="103.1 101.78 103.17 101.73 103.19 100.72 103.1 100.77 103.1 101.78"/><polygon class="cls-9" points="103.1 103.78 103.13 103.76 103.15 102.75 103.1 102.78 103.1 103.78"/><polygon class="cls-9" points="103.1 102.78 103.15 102.75 103.17 101.73 103.1 101.78 103.1 102.78"/><polygon class="cls-8" points="103.1 105.68 103.1 105.13 103.09 105.69 103.1 105.68"/><polygon class="cls-11" points="102.82 95.11 102.82 95.82 102.82 96.82 102.82 99.93 102.82 100.93 102.82 101.93 102.82 102.93 102.82 103.93 102.82 104.93 102.82 105.58 101.87 106.15 101.87 106.41 103.1 105.68 103.1 105.13 103.1 104.78 103.1 103.78 103.1 102.78 103.1 101.78 103.1 100.77 103.1 99.77 103.1 96.67 103.1 95.67 103.1 94.95 102.82 95.11"/><rect class="cls-11" x="104.42" y="92.96" width="0.24" height="12.63"/><ellipse class="cls-11" cx="104" cy="100.17" rx="0.11" ry="0.18"/><ellipse class="cls-9" cx="104.03" cy="100.17" rx="0.11" ry="0.18"/><ellipse class="cls-11" cx="104" cy="101.09" rx="0.11" ry="0.18"/><ellipse class="cls-9" cx="104.03" cy="101.09" rx="0.11" ry="0.18"/><path class="cls-10" d="M104.07,100.11l.22.13a.09.09,0,0,1,0,.06v.92a.06.06,0,0,1-.09,0l-.22-.12a.05.05,0,0,1,0-.05h0a.06.06,0,0,1,.09-.06l.05,0a.06.06,0,0,0,.09-.06v-.63a.09.09,0,0,0,0,0l-.17-.1a.05.05,0,0,1,0,0h0A.06.06,0,0,1,104.07,100.11Z"/><ellipse class="cls-11" cx="104.87" cy="99.71" rx="0.11" ry="0.18"/><ellipse class="cls-9" cx="104.9" cy="99.72" rx="0.11" ry="0.18"/><ellipse class="cls-11" cx="104.87" cy="100.63" rx="0.11" ry="0.18"/><ellipse class="cls-9" cx="104.9" cy="100.63" rx="0.11" ry="0.18"/><path class="cls-10" d="M104.94,99.66l.22.13a.05.05,0,0,1,0,0v.92a.06.06,0,0,1-.09.06l-.22-.13a.07.07,0,0,1,0,0h0a.07.07,0,0,1,.1-.06l0,0a.06.06,0,0,0,.09,0v-.63a.06.06,0,0,0,0-.06l-.16-.09a.07.07,0,0,1,0-.06h0A.06.06,0,0,1,104.94,99.66Z"/><polygon class="cls-11" points="104.42 105.42 104.42 105.48 104.52 105.42 104.42 105.42"/><polygon class="cls-13" points="84.52 109.21 84.52 135.75 83.26 136.38 65.6 124.83 65.6 96.6 84.52 109.21"/><polygon class="cls-13" points="104.7 96.53 103.57 97.4 103.57 125.1 104.7 124.4 104.7 96.91 104.7 96.53"/><polygon class="cls-9" points="102.45 96.53 103.59 97.4 103.59 125.1 102.45 124.4 102.45 96.91 102.45 96.53"/><polygon class="cls-14" points="93.56 94.34 93.56 107.14 93.73 107.22 96.39 105.47 96.57 92.8 96.39 92.71 93.56 94.34"/><polygon class="cls-15" points="93.73 94.44 93.73 107.22 96.57 105.56 96.57 92.8 93.73 94.44"/><polygon class="cls-16" points="95.88 93.49 95.88 105.26 94.03 106.35 94.03 106.78 96.32 105.43 96.32 93.24 95.88 93.49"/><polygon class="cls-17" points="95.88 93.49 94.03 94.56 94.03 106.35 95.88 105.26 95.88 93.49"/><polygon class="cls-14" points="111.33 84.47 111.33 97.26 111.5 97.35 114.17 95.6 114.34 82.92 114.17 82.83 111.33 84.47"/><polygon class="cls-15" points="111.5 84.56 111.5 97.35 114.34 95.69 114.34 82.92 111.5 84.56"/><polygon class="cls-16" points="113.66 83.61 113.66 95.38 111.8 96.47 111.8 96.9 114.09 95.56 114.09 83.36 113.66 83.61"/><polygon class="cls-17" points="113.66 83.61 111.8 84.69 111.8 96.47 113.66 95.38 113.66 83.61"/><polygon class="cls-9" points="115.74 72.11 123.26 75.17 123.26 76.61 97.33 92.22 106.99 96.17 106.99 97.6 83.26 111.26 64.34 98.65 64.34 97.22 88.66 84.61 91.41 86.16 115.74 72.11"/><polygon class="cls-18" points="115.74 70.68 123.26 75.17 97.33 90.78 106.99 96.17 83.26 109.83 53.1 91.4 77.76 76.93 91.41 84.73 115.74 70.68"/><polygon class="cls-10" points="77.91 76.93 53.58 90.97 53.58 59.03 77.91 44.88 77.91 76.93"/><polygon class="cls-10" points="91.41 84.73 115.74 70.68 115.74 38.81 91.64 51.13 91.41 84.73"/><polygon class="cls-8" points="91.41 84.73 77.91 76.93 77.91 44.88 91.63 52.75 91.41 84.73"/><polygon class="cls-13" points="119.02 72.64 115.74 70.68 115.04 39.2 115.74 38.79 119.02 40.9 119.02 72.64"/><polygon class="cls-8" points="118.31 73.21 115.04 71.26 115.04 39.2 118.31 41.3 118.31 73.21"/><polygon class="cls-14" points="106.03 53.14 106.03 71.39 106.28 71.52 110.08 69.02 110.33 50.93 110.08 50.8 106.03 53.14"/><polygon class="cls-15" points="106.28 53.27 106.28 71.52 110.33 69.15 110.33 50.93 106.28 53.27"/><polygon class="cls-16" points="109.35 51.92 109.35 68.72 106.7 70.26 106.7 70.88 109.98 68.96 109.98 51.56 109.35 51.92"/><polygon class="cls-17" points="109.35 51.92 106.7 53.45 106.7 70.26 109.35 68.72 109.35 51.92"/><polygon class="cls-14" points="101.98 55.48 101.98 73.74 102.23 73.86 106.03 71.36 106.28 53.27 106.03 53.15 101.98 55.48"/><polygon class="cls-15" points="102.23 55.61 102.23 73.86 106.28 71.49 106.28 53.27 102.23 55.61"/><polygon class="cls-16" points="105.3 54.27 105.3 71.06 102.66 72.61 102.66 73.22 105.93 71.31 105.93 53.9 105.3 54.27"/><polygon class="cls-17" points="105.3 54.27 102.66 55.79 102.66 72.61 105.3 71.06 105.3 54.27"/><polygon class="cls-14" points="97.94 57.82 97.94 76.07 98.19 76.2 101.98 73.7 102.23 55.61 101.98 55.48 97.94 57.82"/><polygon class="cls-15" points="98.19 57.95 98.19 76.2 102.23 73.83 102.23 55.61 98.19 57.95"/><polygon class="cls-16" points="101.26 56.6 101.26 73.4 98.61 74.95 98.61 75.56 101.88 73.65 101.88 56.24 101.26 56.6"/><polygon class="cls-17" points="101.26 56.6 98.61 58.13 98.61 74.95 101.26 73.4 101.26 56.6"/><polygon class="cls-14" points="86.28 59.18 86.28 71.97 86.1 72.06 83.44 70.31 83.27 57.64 83.44 57.55 86.28 59.18"/><polygon class="cls-15" points="86.1 59.27 86.1 72.06 83.27 70.4 83.27 57.64 86.1 59.27"/><polygon class="cls-16" points="83.95 58.33 83.95 70.1 85.81 71.18 85.81 71.61 83.51 70.27 83.51 58.08 83.95 58.33"/><polygon class="cls-17" points="83.95 58.33 85.81 59.4 85.81 71.18 83.95 70.1 83.95 58.33"/><polygon class="cls-15" points="63.03 68.62 63.03 85.59 71.5 80.63 71.5 63.73 63.03 68.62"/><polygon class="cls-16" points="70.19 65.45 70.19 79.92 63.86 83.63 63.86 84.17 70.67 80.18 70.67 65.18 70.19 65.45"/><polygon class="cls-12" points="70.19 65.45 63.86 69.11 63.86 83.63 70.19 79.92 70.19 65.45"/><ellipse class="cls-11" cx="64.51" cy="75.85" rx="0.32" ry="0.21" transform="translate(-32.18 99.63) rotate(-63.44)"/><ellipse class="cls-9" cx="64.55" cy="75.87" rx="0.32" ry="0.21" transform="translate(-32.18 99.68) rotate(-63.44)"/><path class="cls-10" d="M64.7,75.8l.1.08a.1.1,0,0,0,.09,0l.55-.26a.08.08,0,0,1,.09,0h0a.08.08,0,0,1,0,.14l-.71.38a.09.09,0,0,1-.1,0L64.49,76a.09.09,0,0,1,0-.15l.09,0A.09.09,0,0,1,64.7,75.8Z"/><path class="cls-9" d="M28.24,43.81V104L65,125V64.85ZM61.9,93.32l-6.51-4V66.51l6.51,3.32Z"/><path class="cls-8" d="M27.57,44.24v60.17l36.77,21V65.28ZM61.23,93.75l-6.51-4V66.94l6.51,3.32Z"/><g class="cls-19"><polygon class="cls-8" points="54.72 89.74 61.23 93.75 61.23 70.26 54.72 66.94 54.72 89.74"/></g><polygon class="cls-8" points="83.26 109.83 83.26 136.38 64.34 125.45 64.34 98.23 83.26 109.83"/><g class="cls-19"><polygon class="cls-8" points="64.34 87.14 83.51 98.58 83.27 109.83 64.34 98.23 64.34 87.14"/></g><g class="cls-19"><polygon class="cls-8" points="107.07 96.33 89.18 86.04 89.18 74.1 107.07 84.61 107.07 96.33"/></g><g class="cls-19"><polygon class="cls-8" points="83.27 109.83 107.07 96.33 107.07 84.61 83.51 98.58 83.27 109.83"/></g><g class="cls-19"><polygon class="cls-8" points="91.41 84.73 89.18 86.04 89.18 74.1 91.5 72.9 91.41 84.73"/></g><polygon class="cls-9" points="64.34 87.14 65.01 86.76 83.51 97.84 106.12 84.61 88.18 74.1 91.41 72.32 91.5 72.9 89.18 74.1 107.07 84.61 83.51 98.58 64.34 87.14"/><polygon class="cls-8" points="27.57 44.24 46.96 35.78 65.6 67.14 27.57 44.24"/><polygon class="cls-16" points="41.84 39.3 65.08 70.79 91.55 55.22 91.72 54.56 68.36 24.01 41.84 39.3"/><polygon class="cls-16" points="20.04 48.75 42 39.18 68.52 23.89 45.05 34.19 20.04 48.21 20.04 48.75"/><polygon class="cls-9" points="41.85 38.67 65.1 70.16 91.5 54.37 68.37 23.38 41.85 38.67"/><polygon class="cls-11" points="20.04 48.21 42 38.64 68.52 23.34 45.05 33.64 20.04 48.21"/><polygon class="cls-16" points="68.37 20.05 97.58 59.63 133.4 38.21 133.6 37.37 101.7 0.83 68.37 20.05"/><polygon class="cls-16" points="40.97 31.93 68.58 19.9 101.91 0.68 72.41 13.62 40.97 31.25 40.97 31.93"/><polygon class="cls-9" points="68.39 19.26 97.6 58.84 133.41 37.41 101.72 0.04 68.39 19.26"/><polygon class="cls-11" points="40.97 31.25 68.58 19.22 101.91 0 72.41 12.94 40.97 31.25"/><polygon class="cls-14" points="45.78 65.56 45.78 78.35 45.61 78.44 42.95 76.69 42.77 64.02 42.95 63.92 45.78 65.56"/><polygon class="cls-15" points="45.61 65.65 45.61 78.44 42.77 76.78 42.77 64.02 45.61 65.65"/><polygon class="cls-16" points="43.46 64.71 43.46 76.48 45.31 77.56 45.31 77.99 43.02 76.65 43.02 64.46 43.46 64.71"/><polygon class="cls-17" points="43.46 64.71 45.31 65.78 45.31 77.56 43.46 76.48 43.46 64.71"/><polygon class="cls-14" points="39.66 61.81 39.66 74.6 39.49 74.69 36.83 72.94 36.65 60.26 36.83 60.17 39.66 61.81"/><polygon class="cls-15" points="39.49 61.9 39.49 74.69 36.65 73.03 36.65 60.26 39.49 61.9"/><polygon class="cls-16" points="37.34 60.95 37.34 72.72 39.19 73.81 39.19 74.24 36.9 72.89 36.9 60.7 37.34 60.95"/><polygon class="cls-17" points="37.34 60.95 39.19 62.02 39.19 73.81 37.34 72.72 37.34 60.95"/></g></g></svg>