<svg xmlns="http://www.w3.org/2000/svg" viewBox="0 0 773.54 707.74"><defs><style>.cls-1{fill:#f7271c;}.cls-2{fill:#ea1f1b;}.cls-3{fill:#dd1717;}.cls-4{fill:#f9b184;}.cls-5{fill:#e49877;}.cls-6{fill:#c91212;}.cls-7{fill:#d71e15;}.cls-8{fill:#231f20;}.cls-9{fill:#cc0e0e;}.cls-10{fill:#a81313;}.cls-11{fill:#e6e7e8;}.cls-12{fill:#808285;}.cls-13{fill:#efa278;}.cls-14{fill:#bc1515;}.cls-15{fill:#660707;}.cls-16{fill:#600606;}.cls-17{fill:#4f0505;}.cls-18{fill:#420202;}.cls-19{fill:#fbd589;}.cls-20{fill:#ffe5b8;}.cls-21{fill:#ffbf4d;}.cls-22{fill:#175abb;}.cls-23{fill:#0e3768;}.cls-24{fill:#0d2f51;}.cls-25{fill:#0064c9;}.cls-26{fill:#66a2df;}.cls-27,.cls-29{fill:#fff;}.cls-27{opacity:0.4;}.cls-28{opacity:0.5;}.cls-30{fill:#f0a07e;}.cls-31{fill:none;stroke:#660707;stroke-linecap:round;stroke-miterlimit:10;stroke-width:4px;}.cls-32{fill:#282425;}.cls-33{fill:#332f30;}.cls-34{fill:#3f3a3b;}.cls-35{fill:#1a1718;}.cls-36{fill:#121010;}.cls-37{fill:#090808;}.cls-38{fill:#f9a84b;}.cls-39{fill:#f98f3e;}.cls-40{fill:#f77e2c;}.cls-41{fill:#f8ce76;}.cls-42{fill:#f7c366;}</style></defs><g id="Layer_2" data-name="Layer 2"><g id="Layer_1-2" data-name="Layer 1"><path class="cls-1" d="M330.92,103.67l-3.38,12.68-1.34,5-1.34,5-1.55,5.79a49.51,49.51,0,0,1-3.18-5.06,52,52,0,0,1-2.34-4.72,46,46,0,0,1-1.8-4.85,26.29,26.29,0,0,1-1.07-12.6C317.37,92.32,330.92,103.67,330.92,103.67Z"/><path class="cls-2" d="M327.54,116.35l-4.23,15.84A54,54,0,0,1,316,117.56,16.34,16.34,0,0,0,327.54,116.35Z"/><path class="cls-3" d="M326.2,121.37l-2.89,10.82a54.76,54.76,0,0,1-5.52-9.78A16.22,16.22,0,0,0,326.2,121.37Z"/><polygon class="cls-4" points="313.12 672.4 246.13 673.53 245.99 664.97 245.87 657.88 245.75 651.03 243.43 513.03 310.42 511.9 312.36 626.98 312.52 636.51 312.68 646.31 313.12 672.4"/><path class="cls-5" d="M313.12,672.4l-67,1.13-.26-15.65c30.88-1.12,56.62-15.12,66.65-21.37Z"/><polygon class="cls-4" points="173.54 497.23 127.01 559.41 126.28 560.38 123.75 563.77 118.32 571.02 115.62 574.63 112 579.47 97.13 599.33 88.22 611.23 80.87 621.05 79.34 623.1 77.36 625.75 75.12 624.07 74.36 623.5 66.48 617.6 58.08 611.31 46.61 602.73 37.7 596.06 29.17 589.68 23.72 585.6 23.79 585.51 28.81 578.8 33.63 572.36 119.9 457.08 173.54 497.23"/><path class="cls-5" d="M115.62,574.63,112,579.47,97.13,599.33l-8.91,11.9L79.34,623.1l-2,2.65-2.24-1.68-8.64-6.47-8.4-6.29-11.47-8.58-8.91-6.67c38-2.71,67.28-24.13,67.28-24.13S110.64,573.19,115.62,574.63Z"/><path class="cls-6" d="M298.6,68.07s27.67,16.25,32.32,35.61c0,0-13,4.64-14.52,15.48C316.4,119.16,288.92,85.68,298.6,68.07Z"/><path class="cls-7" d="M112,693.77,92.72,678l-13-10.63-12.19-10L3.45,605s17.42-35.11,29.64-32.44c0,0,9.4,26.1,28,37.58s25.14,3.72,25.14,3.72a163.38,163.38,0,0,0,14,35.2A115.92,115.92,0,0,0,108,661.46a83.73,83.73,0,0,0,10.27,11.89l1.22,1.12C133,686.6,112,693.77,112,693.77Z"/><path class="cls-8" d="M-14.93,648.42H125.21a0,0,0,0,1,0,0v1.87a6.19,6.19,0,0,1-6.19,6.19H-10.86a4.07,4.07,0,0,1-4.07-4.07v-4a0,0,0,0,1,0,0Z" transform="translate(425.48 112.47) rotate(39.27)"/><path class="cls-8" d="M231.39,628.71q0-4.43,0-8.89c0-7.31-.16-14.71-.36-22.16q-.24-9-.64-18.06c-6.46-148.84-41.68-313.71-42.08-315.54l90.9-19.62c1.39,6.46,26,121.52,38.3,249.57,1.28,13.3,2.43,26.73,3.4,40.2,1,14.46,1.89,29,2.48,43.36.73,17.43,1.09,34.72,1,51.64Z"/><path class="cls-8" d="M215.1,250.82l-92.75,6.87c.08,1,7.53,102.44,6.1,152.14-.21,1.78-3.73,24.23-51.55,93.29-7.19,10.38-14.38,20.35-21.05,29.4-4.71,6.38-9.16,12.3-13.18,17.58,0,0,.71.59,2,1.65,4.86,3.91,17.91,14.22,32.8,24.3,15.22,10.31,32.37,20.37,44.68,23.13,8.49-11.28,18.25-24.6,28.24-38.88q2.07-3,4.14-6c6.79-9.84,12.89-19,18.38-27.59,7-10.93,13-20.87,18.16-29.94,25.32-44.62,29.84-68.1,30.31-84C223,358.36,215.42,255.19,215.1,250.82Z"/><path class="cls-9" d="M428.12,206.25l-.15.51c-.82,2.84-1.71,5.78-2.69,8.77-.78,2.38-1.61,4.8-2.49,7.23-.62,1.72-1.26,3.4-1.91,5.06a163.19,163.19,0,0,1-11.51,23.83A104.35,104.35,0,0,1,396,269.78a76.52,76.52,0,0,1-12.09,10.58,62.48,62.48,0,0,1-23.51,10.17A56.53,56.53,0,0,1,349,291.68a57.84,57.84,0,0,1-15.66-2.16,61.71,61.71,0,0,1-12-4.79q-2-1.05-4.05-2.3a76.8,76.8,0,0,1-11.38-8.58,96.67,96.67,0,0,1-9.26-9.65c-8.95-10.65-17.12-24.32-24.85-41.59q-2.17-4.86-4.31-10.1c-2.23-5.48-4.29-11-6.19-16.35a485,485,0,0,1-15.65-54.55l32.27-6.89,6.45-1.38,20.72-4.45,5.1-1.09v0c0,.23.58,2.65,1.56,6.63.31,1.26.66,2.68,1.06,4.24.34,1.34.72,2.78,1.13,4.31,1.48,5.49,3.36,12.12,5.63,19.29,1.52,4.79,3.2,9.82,5,14.91.86,2.36,1.71,4.61,2.55,6.77,9,23.12,17,34.77,21.62,39.64,2.89-3.48,7.3-10.55,11.88-23.06.12-.31.23-.62.34-.94l.42-1.16c.29-.86.6-1.75.9-2.67A212.64,212.64,0,0,0,368,175.21a5,5,0,0,1,6.94-3.47,218.74,218.74,0,0,1,38.28,22.1A149.44,149.44,0,0,1,428.12,206.25Z"/><path class="cls-10" d="M428.12,206.25l-.15.51c-.82,2.84-1.71,5.78-2.69,8.77-.78,2.38-1.61,4.8-2.49,7.23-.62,1.72-1.26,3.4-1.91,5.06a163.19,163.19,0,0,1-11.51,23.83c-5.36-29.62-22.55-57.9-22.55-57.9s22,.88,24.67,0a4.06,4.06,0,0,1,1.68.09A149.44,149.44,0,0,1,428.12,206.25Z"/><path class="cls-10" d="M310.67,140.79s-17,82.76-4.79,133.06a96.67,96.67,0,0,1-9.26-9.65c-8.95-10.65-17.12-24.32-24.85-41.59q-2.17-4.86-4.31-10.1c-2.23-5.48-4.29-11-6.19-16.35,8.78-37,33.23-59.18,43.79-67.27l5.1-1.09v0c0,.23.58,2.65,1.56,6.63.31,1.26.66,2.68,1.06,4.24Z"/><path class="cls-11" d="M306,137l-.29.74c-.83,2.1-3.34,8.57-6.68,17.82-1.49,4.13-3.15,8.82-4.89,13.92-7.72,22.61-17.16,53.31-21.56,79.72-1,5.93-1.73,11.64-2.13,17-.15,2-.25,3.86-.31,5.71,0,1.41-.06,2.79,0,4.13s.06,2.86.14,4.22a52.33,52.33,0,0,0,1.24,9s-7.76.83-20,1.53l-.41,0c-10.95.62-25.42,1.13-41.13.88a379.35,379.35,0,0,1-43.08-2.94c-17.82-2.34-34.72-6.33-47.68-12.84,0,0,.58-1.41,1.71-4C132.32,246,199.78,101.74,286.48,99c1.3,0,2.59-.06,3.89,0a36.42,36.42,0,0,1,3.86-.76,41.68,41.68,0,0,1,9.89-.33,23.25,23.25,0,0,1,10.44,3.32C324.16,107.42,306,137,306,137Z"/><path class="cls-12" d="M271.5,289.18s-103.8,11.05-152.32-13.35c0,0,.58-1.41,1.71-4H270.16A67.28,67.28,0,0,0,271.5,289.18Z"/><path class="cls-7" d="M333.24,450.13c-5.16,4.69-12.85,7.67-21.07,9.55a136.73,136.73,0,0,1-25.78,3c-8.68.27-14.89-.16-14.89-.16s-3.75-5.06-7.76-19.5a228.6,228.6,0,0,1-6.19-32.18c-1.2-9.34-2.19-20.21-2.8-32.82-.83-17.2-1-37.63,0-61.82,4.73-117.29,61-199.85,61-199.85l4.67,11.31C245.21,252,328.13,438.89,333,449.64,333.16,450,333.24,450.13,333.24,450.13Z"/><circle class="cls-4" cx="340.34" cy="52.84" r="38.97"/><path class="cls-13" d="M312.78,59.74a38.87,38.87,0,0,0,13.41,29.41,39,39,0,1,1,39.7-65.74,39,39,0,0,0-53.11,36.33Z"/><path class="cls-8" d="M288.34,26.65s70.26,13,101.22,52.25c0,0,3.49-13-13.74-26.13S304.79,11.94,288.34,26.65Z"/><path class="cls-7" d="M221.37,257.35c-16.39,29.72-19,73.95-16.85,114.1.67,12.39,1.81,24.39,3.13,35.45,1.42,11.86,3.07,22.64,4.61,31.68,2.93,17.17,5.5,28.06,5.5,28.06a332.18,332.18,0,0,1-42.49-.86c-22.84-2-39.57-6.57-51.71-11.7-24.34-10.26-30.32-22.92-30.32-22.92-5-230.64,95.06-309,150.52-334.58q4.76-2.19,9-3.89c2.69-1.08,5.22-2,7.58-2.83a121.53,121.53,0,0,1,18.49-5l.57-.1L282.82,86l3.4,1.26,23,8.52S258.53,190,221.37,257.35Z"/><path class="cls-14" d="M135.24,311.6s7.24,3.88,11.11,10.49,3.68,23.33,18.39,25.13l-2.91-43.86Z"/><path class="cls-14" d="M126.1,233.24s-14.93,37.79,6.1,54.95C132.2,288.19,142.13,243.18,126.1,233.24Z"/><path class="cls-10" d="M257.65,164.85s-65.65,33-69.81,97.46c0,0-29.14-70.26,2.51-93.65S257.65,164.85,257.65,164.85Z"/><path class="cls-4" d="M203.69,309.54c-3.91,6.73-17.76,27.85-43.08,39.1-.41-.66-.8-1.32-1.17-2a42,42,0,0,1-2.6-5.75,46.93,46.93,0,0,1-2-7.31,63.87,63.87,0,0,1,.75-26.17l40.87-8.28,3.77-.76.85,2.71,1.06,3.42Z"/><path class="cls-5" d="M201.06,301.09a17.31,17.31,0,0,1-6,2c-22.87,4.1-34.54,28.61-38.18,37.86a46.93,46.93,0,0,1-2-7.31,63.87,63.87,0,0,1,.75-26.17l40.87-8.28,3.77-.76Z"/><path class="cls-14" d="M294.3,107.43c-11.34-8.74-30.52-13-41.5-14.74,2.69-1.08,5.22-2,7.58-2.83a115.63,115.63,0,0,1,19.06-5.15L282.82,86Z"/><path class="cls-8" d="M388.07,43.79l-8.22,16L311.74,24.63l1.56-3,3.85-7.46L320,8.68a16.24,16.24,0,0,1,1.17-1.93A16.05,16.05,0,0,1,335.07,0l24.4,1.32a15.83,15.83,0,0,1,4.38.86,16,16,0,0,1,7.29,5.15l.45.56,4.27,5.36,10.5,13.19A16,16,0,0,1,388.07,43.79Z"/><path class="cls-1" d="M309.24,95.74a17.84,17.84,0,0,0-9.45,4.83,18.64,18.64,0,0,0-3.06,3.91c-4.34,7.28-3.94,16.23-3.94,16.23-3-2.45-7.63-11.07-11.82-19.76-.82-1.68-1.61-3.36-2.37-5-.9-1.94-1.75-3.82-2.54-5.57h0c-2.7-6-4.56-10.5-4.56-10.5,4.26-11.81,27.1-11.81,27.1-11.81C294,80.46,305,91.87,308.33,94.94,308.9,95.46,309.24,95.74,309.24,95.74Z"/><path class="cls-7" d="M188.55,215.27c0,.25,0,.5,0,.73.06,6.2.25,12.07.53,17.6.33,6.57.81,12.67,1.39,18.32.76,7.47,1.7,14.16,2.73,20.1q.71,4.07,1.44,7.66c.55,2.72,1.12,5.23,1.68,7.56.87,3.56,1.74,6.67,2.56,9.35,1,3.27,1.92,5.9,2.69,7.94-14.46,4-40.33,9.74-66.53,8.62-1.71-5.85-3.42-12.56-5-20.19-.32-1.55-.64-3.14-.95-4.77-.22-1.15-.43-2.31-.64-3.5a411.91,411.91,0,0,1-5.9-68.05c-.46-46.4,26.61-82.85,76.22-102.65,32.2-12.85,58.15-14.25,61.59-14.4l8.19,65.57c-1.71.1-24.78,1.66-46.5,10.61C189.32,189.27,188.51,207,188.55,215.27Z"/><path class="cls-15" d="M203.36,304l-1.78.5c-6.36,1.76-14.92,3.85-24.74,5.55-4,.7-8.25,1.33-12.62,1.84-3.86.45-7.83.82-11.88,1.05a168.58,168.58,0,0,1-17.29.18c-.86,0-1.73-.08-2.59-.13-2.52-5.61-5.07-11.71-7.41-18.08q-.43-1.15-.84-2.31a3,3,0,0,1,2.35-4l2.55-.45c20.52-3.69,48.78-11.71,63.43-16.06a3,3,0,0,1,.67-.11,3.29,3.29,0,0,1,1.13.08,3.42,3.42,0,0,1,2.37,2.06v0c.44,1.1.88,2.19,1.33,3.26,1,2.42,2,4.76,3.08,7,2,4.37,4,8.3,5.68,11.57A5.63,5.63,0,0,1,203.36,304Z"/><path class="cls-16" d="M203.36,304l-1.78.5c-6.36,1.76-14.92,3.85-24.74,5.55-4,.7-8.25,1.33-12.62,1.84-3.86.45-7.83.82-11.88,1.05,22.6-11.22,37-32.49,42-40.87a3.42,3.42,0,0,1,2.37,2.06v0c.44,1.1.88,2.19,1.33,3.26,1,2.42,2,4.76,3.08,7,2,4.37,4,8.3,5.68,11.57A5.63,5.63,0,0,1,203.36,304Z"/><path class="cls-17" d="M203.36,304l-1.78.5c-6.36,1.76-14.92,3.85-24.74,5.55-4,.7-8.25,1.33-12.62,1.84,16.86-10.41,28.33-25.87,33.83-34.47,1,2.42,2,4.76,3.08,7,2,4.37,4,8.3,5.68,11.57A5.63,5.63,0,0,1,203.36,304Z"/><path class="cls-18" d="M203.36,304l-1.78.5c-6.36,1.76-14.92,3.85-24.74,5.55a115.39,115.39,0,0,0,24.29-25.65c2,4.37,4,8.3,5.68,11.57A5.63,5.63,0,0,1,203.36,304Z"/><circle class="cls-19" cx="188.94" cy="290.36" r="5.42"/><circle class="cls-20" cx="187.49" cy="288.97" r="1.81"/><path class="cls-21" d="M192.44,294.5a5.4,5.4,0,0,1-7,0,5.42,5.42,0,0,0,6.57-8.34,5.53,5.53,0,0,0-.64-.64,5.42,5.42,0,0,1,1.06,9Z"/><path class="cls-13" d="M448.16,132.19a215.39,215.39,0,0,1-10.52,34.51c-.74,1.79-1.51,3.57-2.33,5.32-1.1,2.38-2.28,4.7-3.53,6.91-5.19,9.25-11.61,16.58-19.21,18-23.39,4.46-35.58-20.7-35.58-20.7l0-.16c.09-.57.45-2.74,1.09-5.9.27-1.31.59-2.79.95-4.4,3.29-14.62,10.55-39.85,22.12-43.93C417.63,116.06,448.16,132.19,448.16,132.19Z"/><path class="cls-5" d="M431.78,178.93c-5.19,9.25-11.61,16.58-19.21,18-23.39,4.46-35.58-20.7-35.58-20.7l0-.16C394.46,180.65,417.92,179.93,431.78,178.93Z"/><path class="cls-5" d="M401.18,121.87s29.22-19.16,45.87-10.06S435.43,139,418.4,132.19,401.18,121.87,401.18,121.87Z"/><polygon class="cls-22" points="429.34 156.1 419.86 152.16 433.88 125.23 435.45 122.23 436.59 120.03 441.45 122.05 438.87 129.31 436.46 136.09 429.34 156.1"/><path class="cls-23" d="M436.46,136.09a15.76,15.76,0,0,0-2.58-10.86l2.71-5.2,4.86,2Z"/><path class="cls-24" d="M438.87,129.31a17.78,17.78,0,0,0-3.42-7.08l1.14-2.2,4.86,2Z"/><path class="cls-22" d="M464.63,56l-.1,0-.46-.18-.56-.2-.14,0c-10.05-3-23.61,8-30.84,25.36s-5.49,34.78,3.76,39.76l.12.07.54.26.45.2.1,0c11.85,4.93,27.53-5.68,35-23.69S476.48,60.89,464.63,56Zm-27.74,63.47c-7.66-3.18-10.33-20.75-3.13-38.05S455.3,53.58,463,56.76s8,19.8.83,37.11S444.54,122.61,436.89,119.43Z"/><path class="cls-25" d="M464.53,55.92l-.08,0c-.12,0-.25-.11-.38-.15l-.56-.2-.13,0c-10.06-3-23.62,8-30.85,25.36s-5.49,34.78,3.76,39.76l.12.07.54.26.37.17.08,0c10.14,4.13,24.38-7.05,31.85-25S474.61,60.2,464.53,55.92Zm-27.8,63.88c-7.66-3.18-10.32-20.74-3.12-38S455.14,54,462.79,57.14s8,19.79.83,37.1S444.39,123,436.73,119.8Z"/><path class="cls-26" d="M438.84,119.84a7.25,7.25,0,0,1-2.26-.54c-7.83-3.25-10.68-20.89-3.48-38.2s21.72-27.72,29.55-24.46a7.45,7.45,0,0,1,2,1.22c-8.41-.85-21.28,9.07-27.82,24.79S432.31,114.47,438.84,119.84Z"/><path class="cls-27" d="M463.78,93.86c-7.2,17.31-19.18,28.78-26.77,25.62s-10.17-20.68-3-38,21.46-27.82,29-24.67S471,76.56,463.78,93.86Z"/><g class="cls-28"><path class="cls-29" d="M453.74,115.14a.64.64,0,0,1-.22-.14.75.75,0,0,1,0-1l1-1.11a.74.74,0,1,1,1.11,1c-.33.38-.68.76-1,1.14A.75.75,0,0,1,453.74,115.14Z"/></g><g class="cls-28"><path class="cls-29" d="M456.38,112.09a.52.52,0,0,1-.19-.11.73.73,0,0,1-.1-1c15.37-18.71,14.58-36.81,14.57-37a.74.74,0,1,1,1.48-.08c0,.18.83,18.86-14.91,38A.72.72,0,0,1,456.38,112.09Z"/></g><path class="cls-7" d="M383.7,699.67H243.43s-8.75-38.2,2.4-43.87c0,0,23.8,14.25,45.48,11.36s21.81-13,21.81-13a162.5,162.5,0,0,0,26.25,15.41,134.47,134.47,0,0,0,14.88,5.94,87.88,87.88,0,0,0,22.31,4.5l.68,0C395.35,680.88,383.7,699.67,383.7,699.67Z"/><path class="cls-14" d="M383.7,699.67H332.42a68.62,68.62,0,0,0,21.83-24.19,87.38,87.38,0,0,0,23,4.54C395.35,680.88,383.7,699.67,383.7,699.67Z"/><path class="cls-8" d="M243.42,699.68H383.56a0,0,0,0,1,0,0v1.87a6.19,6.19,0,0,1-6.19,6.19H247.49a4.07,4.07,0,0,1-4.07-4.07v-4A0,0,0,0,1,243.42,699.68Z"/><path class="cls-15" d="M432.34,207.1c-.11.39-.23.79-.35,1.19-.7,2.43-1.46,4.93-2.27,7.47-1,3.26-2.16,6.59-3.38,9.94-.28.77-.57,1.54-.85,2.3a3,3,0,0,1-4.37,1.53c-5.62-3.33-12.26-6.88-19.17-10.38-3.94-2-8-4-12-5.89s-7.95-3.77-11.72-5.5c-7-3.23-13.37-6.07-18.21-8.19a3.45,3.45,0,0,1-1.88-4.24,0,0,0,0,0,0,0,238.88,238.88,0,0,0,6.37-23.17,5.64,5.64,0,0,1,7.82-3.91c12.9,5.83,36.47,17.84,56.22,35.44C429.87,204.78,431.11,205.93,432.34,207.1Z"/><path class="cls-4" d="M455.14,144.29A8.56,8.56,0,0,1,444,149l-6.54-2.67-8.56-3.5-8.82-3.6-.09,0a8.56,8.56,0,0,1,6.47-15.85l18.33,7.49,5.41,2.21.28.11a8.59,8.59,0,0,1,4.69,11.17Z"/><path class="cls-30" d="M455.14,144.29A8.56,8.56,0,0,1,444,149l-15.1-6.17c10.2-.93,17.84-6.67,21.3-9.79l.28.11A8.58,8.58,0,0,1,455.14,144.29Z"/><path class="cls-4" d="M439.41,177.22l-.23.56a8.25,8.25,0,0,1-10.76,4.52l-4.88-2-8.77-3.58-7-2.87a8.25,8.25,0,0,1-4.52-10.77l.23-.56A8.25,8.25,0,0,1,414.2,158l17.1,7,3.59,1.47a8.66,8.66,0,0,1,1.67.91,8.27,8.27,0,0,1,3.37,5.48A8.19,8.19,0,0,1,439.41,177.22Z"/><path class="cls-4" d="M451,162.36a10,10,0,0,1-13,5.46l-7.77-3.17-9.3-3.8-9.4-3.84a9.45,9.45,0,0,1-1.52-.78,10,10,0,0,1,9.05-17.67l22.41,9.15,4.07,1.66a9.1,9.1,0,0,1,1.17.58A10,10,0,0,1,451,162.36Z"/><path class="cls-30" d="M451,162.36a10,10,0,0,1-13,5.46l-17.07-7c13.18.26,22.76-7.94,25.78-10.9A10,10,0,0,1,451,162.36Z"/><path class="cls-31" d="M137.24,355.16a82.88,82.88,0,0,0,23.37-6.52c25.32-11.25,39.17-32.37,43.08-39.1.78-1.35,1.17-2.12,1.17-2.12"/><path class="cls-14" d="M217.76,466.64a332.18,332.18,0,0,1-42.49-.86c-22.84-2-39.57-6.57-51.71-11.7,50.82,6.72,73.76-21.75,84.09-47.18,1.42,11.86,3.07,22.64,4.61,31.68C215.19,455.75,217.76,466.64,217.76,466.64Z"/><path class="cls-14" d="M312.17,459.68a136.73,136.73,0,0,1-25.78,3c-8.68.27-14.89-.16-14.89-.16s-3.75-5.06-7.76-19.5a228.6,228.6,0,0,1-6.19-32.18C270.44,426.59,290.75,448.41,312.17,459.68Z"/><path class="cls-2" d="M292.79,120.71c-4.24-3.49-11.85-19.43-16.73-30.33a38.16,38.16,0,0,0,32.27,4.56c.57.52.91.8.91.8C291.82,99,292.79,120.71,292.79,120.71Z"/><path class="cls-3" d="M296.73,104.48c-4.34,7.28-3.94,16.23-3.94,16.23-3-2.45-7.63-11.07-11.82-19.76-.82-1.68-1.61-3.36-2.37-5a38.72,38.72,0,0,0,21.19,4.62A18.64,18.64,0,0,0,296.73,104.48Z"/><circle class="cls-19" cx="374.56" cy="187.63" r="5.42"/><circle class="cls-20" cx="373.11" cy="186.24" r="1.81"/><path class="cls-21" d="M378.06,191.77a5.4,5.4,0,0,1-7,0,5.42,5.42,0,0,0,6.57-8.34,5.53,5.53,0,0,0-.64-.64,5.42,5.42,0,0,1,1.06,9Z"/><path class="cls-16" d="M432.34,207.1c-1.69,5.91-3.68,12.22-6,18.6-.28.77-.57,1.54-.85,2.3a3,3,0,0,1-4.37,1.53c-12-7.14-28.74-15.27-42.85-21.77a28.64,28.64,0,0,1,3.36.43c23.34,4.18,40-1.4,47-4.53C429.87,204.78,431.11,205.93,432.34,207.1Z"/><path class="cls-17" d="M432,208.29c-1.61,5.56-3.48,11.46-5.65,17.41-.28.77-.57,1.54-.85,2.3a3,3,0,0,1-4.37,1.53c-8.83-5.23-20.16-11-31.13-16.27C410.44,216,425.18,211.25,432,208.29Z"/><path class="cls-18" d="M429.72,215.76c-1,3.26-2.16,6.59-3.38,9.94-.28.77-.57,1.54-.85,2.3a3,3,0,0,1-4.37,1.53c-5.62-3.33-12.26-6.88-19.17-10.38A80.64,80.64,0,0,0,429.72,215.76Z"/><path class="cls-32" d="M375.86,13.27c-34.46-4.44-56.69,5.32-62.56,8.33l3.85-7.46L320,8.68a16.24,16.24,0,0,1,1.17-1.93A16.05,16.05,0,0,1,335.07,0l24.4,1.32a15.83,15.83,0,0,1,4.38.86,16,16,0,0,1,7.29,5.15l.45.56Z"/><path class="cls-33" d="M371.59,7.91c-26.2-2.86-45,2.46-54.44,6.23L320,8.68a16.24,16.24,0,0,1,1.17-1.93A16.05,16.05,0,0,1,335.07,0l24.4,1.32a15.83,15.83,0,0,1,4.38.86,16,16,0,0,1,7.29,5.15Z"/><path class="cls-34" d="M363.85,2.2C345.16.91,330.66,3.77,321.13,6.75A16.05,16.05,0,0,1,335.07,0l24.4,1.32A15.83,15.83,0,0,1,363.85,2.2Z"/><path class="cls-30" d="M439.41,177.22l-.23.56a8.25,8.25,0,0,1-10.76,4.52l-4.88-2-8.77-3.58c10.19-.57,18-6,21.79-9.36a8.27,8.27,0,0,1,3.37,5.48A8.19,8.19,0,0,1,439.41,177.22Z"/><path class="cls-35" d="M324.39,629.21l-93-.5c.09-16-.28-32.45-1-49.11,54.77-17.05,78.72-63.86,87.12-85.59C321.83,538.85,324.63,585.29,324.39,629.21Z"/><path class="cls-36" d="M231.39,628.71c.06-10.19-.07-20.56-.36-31.05,47.07-8.74,74.63-38.51,89.88-63.45,2.31,32,3.65,64.1,3.48,95Z"/><path class="cls-37" d="M324.39,629.21l-93-.5q0-4.43,0-8.89c43.31-2.23,72.62-21.19,92-42.25C324.12,595,324.48,612.29,324.39,629.21Z"/><path class="cls-35" d="M191.09,496.81c-5.15,9.07-11.15,19-18.16,29.94-5.49,8.57-11.59,17.75-18.38,27.59q-2.07,3-4.14,6c-10,14.28-19.75,27.6-28.24,38.88-12.31-2.76-29.46-12.82-44.68-23.13C62.6,566,49.55,555.66,44.69,551.75c-1.31-1.06-2-1.65-2-1.65,4-5.28,8.47-11.2,13.18-17.58C114.54,532.57,173.31,505.68,191.09,496.81Z"/><path class="cls-36" d="M172.93,526.75c-5.49,8.57-11.59,17.75-18.38,27.59q-2.07,3-4.14,6c-10,14.28-19.75,27.6-28.24,38.88-12.31-2.76-29.46-12.82-44.68-23.13C62.6,566,49.55,555.66,44.69,551.75,92.55,555.88,142.84,539.28,172.93,526.75Z"/><path class="cls-37" d="M150.41,560.3c-10,14.28-19.75,27.6-28.24,38.88-12.31-2.76-29.46-12.82-44.68-23.13C103.77,574.09,129.32,567.47,150.41,560.3Z"/><path class="cls-14" d="M112,693.77,79.72,667.34A105.84,105.84,0,0,0,108,661.46a81.34,81.34,0,0,0,11.49,13C133,686.6,112,693.77,112,693.77Z"/><rect class="cls-38" x="445.28" y="458.12" width="328.26" height="247.23"/><path class="cls-39" d="M773.54,543.34v162H592.46C687.7,670.41,743.71,597.22,773.54,543.34Z"/><polygon class="cls-40" points="644.77 458.12 644.77 526.25 609.41 501.48 574.32 526.25 574.32 458.12 644.77 458.12"/><rect class="cls-8" x="480.64" y="641.35" width="37.68" height="37.68"/><rect class="cls-8" x="529.41" y="641.35" width="10.32" height="37.68"/><rect class="cls-8" x="549.8" y="641.35" width="10.32" height="37.68"/><rect class="cls-8" x="570.18" y="641.35" width="10.32" height="37.68"/><rect class="cls-8" x="590.57" y="641.35" width="10.32" height="37.68"/><rect class="cls-41" x="566.41" y="318.77" width="185.02" height="139.35"/><path class="cls-42" d="M751.43,318.77V458.12h-185C719.67,458.12,751.43,318.77,751.43,318.77Z"/><polygon class="cls-40" points="678.85 318.77 678.85 357.17 658.92 343.21 639.14 357.17 639.14 318.77 678.85 318.77"/><rect class="cls-8" x="586.34" y="422.04" width="21.24" height="21.24"/><rect class="cls-8" x="613.83" y="422.04" width="5.82" height="21.24"/><rect class="cls-8" x="625.32" y="422.04" width="5.82" height="21.24"/><rect class="cls-8" x="636.81" y="422.04" width="5.82" height="21.24"/><rect class="cls-8" x="648.3" y="422.04" width="5.82" height="21.24"/><path class="cls-8" d="M665,294.09H649.49v-6.35L664,267h8.78v20.33h3.78v6.81h-3.78v6H665Zm.55-6.81V275.6l-7.73,11.68Z"/><path class="cls-8" d="M693.38,265.8c9.57,0,12.92,7.18,12.92,17s-3.35,17.12-12.92,17.12-12.93-7.18-12.93-17.12S683.81,265.8,693.38,265.8Zm0,7.36c-4.65,0-5.2,4.51-5.2,9.66,0,5.34.55,9.76,5.2,9.76s5.2-4.42,5.2-9.76C698.58,277.67,698,273.16,693.38,273.16Z"/><path class="cls-8" d="M726.08,294.09H710.63v-6.35L725.16,267H734v20.33h3.77v6.81H734v6h-7.87Zm.56-6.81V275.6l-7.73,11.68Z"/></g></g></svg>