<svg xmlns="http://www.w3.org/2000/svg" viewBox="0 0 871.49 684.82"><defs><style>.cls-1{fill:#f8ce76;}.cls-2{fill:#231f20;}.cls-3{fill:#e6e7e8;}.cls-4{fill:#d1d1d1;}.cls-5{fill:#fff;opacity:0.4;}.cls-6{fill:#e0e0e0;}.cls-7{fill:#c1c1c1;}.cls-8{fill:#175abb;}.cls-9{fill:#0064c9;}.cls-10{fill:#0c2f4c;}.cls-11{fill:#2d292a;}.cls-12{fill:#232021;}.cls-13{fill:#191718;}.cls-14{fill:#0c0b0c;}.cls-15{fill:#145199;}.cls-16{fill:#f9c364;}.cls-17{fill:#0060af;}.cls-18{fill:#005b99;}.cls-19{fill:#00507c;}.cls-20{fill:#cee1ed;}.cls-21{fill:#b5d9ea;}.cls-22{fill:none;stroke:#231f20;stroke-linecap:round;stroke-miterlimit:10;stroke-width:2px;}.cls-23{fill:#9ed3e8;}</style></defs><g id="Layer_2" data-name="Layer 2"><g id="Layer_1-2" data-name="Layer 1"><path class="cls-1" d="M359.69,585.61a40,40,0,0,1-1.48,3.88,29.48,29.48,0,0,1-4.83,7.72,22.46,22.46,0,0,1-7,5.42,20.6,20.6,0,0,1-16.68.56,37.52,37.52,0,0,1-9.64-5.43,50.58,50.58,0,0,1-5.6-5h0c-.85-.88-1.32-1.44-1.32-1.44s-4.94-11.2-3.5-14,7.21-19.62,20.77-26.95,31.78,18.3,31.78,18.3A55.23,55.23,0,0,1,359.69,585.61Z"/><path class="cls-2" d="M294,577s6.5,16.15,16.77,14.65c7.59-1.11,7.26-8.39,7.26-8.39s20.33,2.76,19.81-20.08c-.4-17.64-7.08-15.56-22.62-6S294,577,294,577Z"/><path class="cls-3" d="M333.09,573.17a12,12,0,0,1-2.22,3.2,9,9,0,0,1-.73.67,15,15,0,0,1-9,3.27l-1.06,0a14.44,14.44,0,0,1-1.62-.08l-1-.13-1.28-.16-1.22-.16.12,2.85,0,.71a5,5,0,0,1-4.7,5.29,7.78,7.78,0,0,1-.82.07h-.09c-4.48,0-8.49-5.16-10.82-9.21-.48-.82-.88-1.6-1.21-2.28.24-.35.53-.76.89-1.23.57-.76,1.29-1.66,2.18-2.67a63.22,63.22,0,0,1,7.05-6.89,77.12,77.12,0,0,1,6.91-5.18l1.19-.78,1.18-.74,2.33-1.42c4.93-3,9.58-5.42,12.25-5.42.89,0,3.23,0,3.46,10.32A21.36,21.36,0,0,1,333.09,573.17Z"/><path class="cls-4" d="M330.14,577a15,15,0,0,1-9,3.27l-1.06,0a14.44,14.44,0,0,1-1.62-.08l-1-.13-1.28-.16-1.22-.16.15,3.56a5,5,0,0,1-4.7,5.29,7.78,7.78,0,0,1-.82.07h-.09c-5.39,0-10.09-7.46-12-11.49.24-.35.53-.76.89-1.23A44.11,44.11,0,0,0,330.14,577Z"/><path class="cls-5" d="M314.92,579.81l.15,3.56a5,5,0,0,1-4.7,5.29,7.78,7.78,0,0,1-.82.07l-2-22.28a77.12,77.12,0,0,1,6.91-5.18l1.68,18.7Z"/><path class="cls-5" d="M321.13,580.31l-1.06,0a14.44,14.44,0,0,1-1.62-.08l-1-.13-1.77-19.64,1.18-.74,2.33-1.42Z"/><path class="cls-2" d="M313.1,561.42s21-5.48,21.78,6.29c0,0,4-4.16,1.93-6.58s-7.45-5.61-8.32-6a39.07,39.07,0,0,0-7.4-1.39c-1.32,0-4.1-.52-5.13,0S313.1,561.42,313.1,561.42Z"/><path class="cls-3" d="M541.86,376.37c-.65,3.26-1.37,6.56-2.19,9.9q-1.38,5.72-3.08,11.59-2,7.06-4.54,14.35-2.28,6.69-5,13.55l-35.67-13.93L461.87,400.3c.95-2.44,1.9-5,2.82-7.54,1.39-3.88,2.72-7.9,3.95-12,1.14-3.8,2.19-7.68,3.11-11.59a135.41,135.41,0,0,0,3.95-29,80.39,80.39,0,0,0-1.32-16.43,53.31,53.31,0,0,0-6.69-17.89c-.38-.61-.77-1.21-1.18-1.81-13.87-20.42-43.43-28.35-62.55-30.81-4-.52-7.54-.79-10.39-.89-.67,0-1.31,0-1.9,0l0-4.78L391.58,253v-2.26l-.22-48.47a201.59,201.59,0,0,1,48.88,6.89c36.85,9.77,65.85,28.8,83.86,55C544.76,294.33,550.69,331.92,541.86,376.37Z"/><path class="cls-6" d="M479,332.28a60.06,60.06,0,0,1-3.3,7.88c.21-13.38-2.3-26-9.19-36.13-13.87-20.42-43.43-28.35-62.55-30.81-5.12-11.94-8.11-20.54-7.7-21.08,1.73-2.31,34.59-34.31,34.59-34.31S503.5,261.08,479,332.28Z"/><path class="cls-3" d="M629.09,377.36q-4,6.9-8.31,13.18a233.85,233.85,0,0,1-14.62,19.3q-1.81,2.18-3.65,4.24c-.75.85-1.51,1.7-2.27,2.53l-.49.53a.18.18,0,0,1,0,.07c-.12.12-.23.25-.35.38l0,0-.45.49-.59.63-.71.76-.2.21-.34.36-.45.48c-.46.49-.93,1-1.39,1.45l-.45.46q-1.62,1.67-3.24,3.27l-.35.35-1.43,1.4-1,1-.18.18-.11.1c-.53.52-1.06,1-1.59,1.51q-.23.22-.45.42l-.12.12-.88.81-1.33,1.22,0,0,0,0-.4.36-.62.56-.82.74c-.55.5-1.1,1-1.65,1.46l-.31.27-1,.83-.82.71-.26.22-.94.8-1.94,1.63-.55.46-.53.44-.05,0-.3.24-1.44,1.17c-.47.39-.95.77-1.43,1.15l-.84.67,0,0-1.86,1.45-.95.73-.47.36-.39.3c-.94.71-1.86,1.41-2.79,2.09l-1.16.85-1.31,1-.1.07-.74.53,0,0-.26.18c-.11.08-.21.16-.31.22s-.22.16-.32.23l-1.09.77-.09.06-1.55,1.08-.16.11-1.82,1.24a1.84,1.84,0,0,1-.25.17l-.23.16-.4.26-.87.58c-.27.19-.53.37-.8.54l-.94.62-.49.32-.21.13a4.81,4.81,0,0,1-.41.27L550,459l-.07,0-.45.28h0l-.85.54-.85.54a1.5,1.5,0,0,1-.23.15l-1.56,1-1.55,1-2,1.23c-2.1,1.26-4.14,2.44-6.12,3.56l-1.18.66-.86.48-.25.14,0,0-.09,0a2.82,2.82,0,0,1-.38.21l-1.46.8c-4.64,2.5-8.85,4.59-12.51,6.3-8.58,4-14.1,5.93-14.78,6.17l-7.29-21.36-5.91-17.33L485,424.11l-2.82-8.26c.8-.3,4.16-1.59,9.23-4,3-1.42,6.51-3.23,10.48-5.46a194.74,194.74,0,0,0,17-10.81c4.23-3,8.61-6.37,13-10.12,3.29-2.81,6.61-5.83,9.89-9.07s6.71-6.88,10-10.69c20.4-23.86,33-51.84,37.67-83.7q1-7,1.56-14.33.69-9.63.5-19.7-.64-32.59-10.69-69.69l28.2-7.65,5.65-1.53,6.09-1.65,27.62-7.49q2.94,10.86,5.18,21.28C672.5,268.88,655.09,332.88,629.09,377.36Z"/><path class="cls-6" d="M629.09,377.36q-4,6.9-8.31,13.18a233.85,233.85,0,0,1-14.62,19.3q-1.81,2.18-3.65,4.24a256.14,256.14,0,0,1-58,48.4c-19.82-8.71-40.85-23-59.48-38.37l-2.82-8.26c.8-.3,4.16-1.59,9.23-4L461.87,400.3c.95-2.44,1.9-5,2.82-7.54,1.39-3.88,2.72-7.9,3.95-12,1.14-3.8,2.19-7.68,3.11-11.59A221.75,221.75,0,0,0,532,385.44c2.6.33,5.17.6,7.7.83C585.48,390.45,620.91,380,629.09,377.36Z"/><path class="cls-7" d="M606.16,409.84q-1.81,2.18-3.65,4.24c-29.87,33.81-63.93,53-82.94,61.85-7.46-4.63-14.87-9.77-22.07-15.19l-15.32-44.89c.8-.3,4.16-1.59,9.23-4L461.87,400.3c.95-2.44,1.9-5,2.82-7.54a218.56,218.56,0,0,0,37.2,13.61,223.87,223.87,0,0,0,30.16,5.84A241.67,241.67,0,0,0,606.16,409.84Z"/><path class="cls-6" d="M653.61,181.22S637.82,260.28,589.5,282q6.86-46.46-8.63-103.72l28.2-7.65Z"/><path class="cls-8" d="M374.26,565c.15,12.56-13.42,20.23-23.75,14.68a16.48,16.48,0,0,1-2.87-2c-.56-.48-1.1-1-1.63-1.52-.93-.93-1.83-1.94-2.7-3-.75-.9-1.48-1.82-2.22-2.77-1.81-2.31-3.63-4.73-5.68-7a37.64,37.64,0,0,0-6.54-5.94,30.29,30.29,0,0,0-3.26-2c-5.61-2.95-11.43-1.72-16.86,1.48a42.9,42.9,0,0,0-7.11,5.38c-.92.85-1.82,1.73-2.7,2.63l-.26.28a94.35,94.35,0,0,0-8.41,10.26,42.53,42.53,0,0,1,75.22-35.71,42.5,42.5,0,0,1,2.89,4.26c.43.72.84,1.46,1.22,2.22.56,1.08,1.07,2.2,1.54,3.34s.95,2.48,1.33,3.76a42.09,42.09,0,0,1,1.6,8.13c.1,1,.16,2,.18,3.07C374.25,564.67,374.26,564.83,374.26,565Z"/><path class="cls-9" d="M331.67,559.64c-11-3.73-18.87-.54-24.53,4.13a38.88,38.88,0,0,0-4.77,4.74c-1.13,1.32-2.12,2.61-3,3.79a51.33,51.33,0,0,1-3.51,4.61c-3.87,3.87-5.6-1.46-5.6-1.46.75-1.05,1.57-2.16,2.45-3.3s2-2.51,3.07-3.78c1.22-1.43,2.53-2.85,3.89-4.21,7.57-7.58,17-13.43,25.93-8.74A30.81,30.81,0,0,1,331.67,559.64Z"/><path class="cls-2" d="M310,564.51a26,26,0,0,1,14.7-4.32s-7.54-1.08-10,0-3.67,2.33-3.77,2.62S310,564.51,310,564.51Z"/><path class="cls-3" d="M489.26,611.89a65.5,65.5,0,0,1-6.46,12.32,66.75,66.75,0,0,1-7.06,8.88,75.22,75.22,0,0,1-13.14,11c-10.17,6.77-23.67,12.51-41.58,15.9l-6.14-32.36-1.23-6.48-.88-4.65-.88-4.65a95.15,95.15,0,0,0,11.21-2.78h0c11.05-3.52,17.94-8.59,20.55-15.15,6.94-17.44-9.91-49.5-19.16-62.3l39.6-28.85C468.64,509,507.87,564.77,489.26,611.89Z"/><path class="cls-6" d="M482.8,624.21a66.75,66.75,0,0,1-7.06,8.88,75.22,75.22,0,0,1-13.14,11c-10.17,6.77-23.67,12.51-41.58,15.9l-6.14-32.36-1.23-6.48-.88-4.65a58.1,58.1,0,0,1,10.33-7.43h0S448.93,633.45,482.8,624.21Z"/><path class="cls-3" d="M407.59,473.54l-21.5,44c-21.91-10.7-41.15-13.81-57.29-13a93.28,93.28,0,0,0-17.62,2.58,92.27,92.27,0,0,0-13.57,4.47c-15.08,6.3-23.89,14.7-25.35,16.16l-35.74-33.53c1.24-1.32,9.46-9.81,23.92-18.53,3-1.83,6.32-3.66,9.89-5.44q4.07-2,8.62-4c1.68-.7,3.4-1.39,5.17-2.05C311.11,454.18,354.44,447.58,407.59,473.54Z"/><path class="cls-6" d="M328.8,504.59a93.28,93.28,0,0,0-17.62,2.58,92.27,92.27,0,0,0-13.57,4.47c-15.08,6.3-23.89,14.7-25.35,16.16l-35.74-33.53c1.24-1.32,9.46-9.81,23.92-18.53,3-1.83,6.32-3.66,9.89-5.44q4.07-2,8.62-4C283.86,475.25,298,495.57,328.8,504.59Z"/><path class="cls-4" d="M311.18,507.17a92.27,92.27,0,0,0-13.57,4.47c-15.08,6.3-23.89,14.7-25.35,16.16l-35.74-33.53c1.24-1.32,9.46-9.81,23.92-18.53,3-1.83,6.32-3.66,9.89-5.44"/><path class="cls-2" d="M300.77,573a8,8,0,0,0-1.58,7.42c1.2,4.6-2.61-.89-2.61-.89v-1.9l1.36-2.36Z"/><path class="cls-8" d="M358.78,649.87c-20.26.65-20.91,15.49-27.1,23.23-4.78,6-9.29.59-11.09-2.16-.19-.28-.34-.54-.47-.75-.23-.4-.36-.65-.36-.65l.07-.15c3.61-7.81,12-18.45,21.66-21.65a23.55,23.55,0,0,1,5.49-1c1.39-.11,2.87-.16,4.36-.16,2,0,4,.1,5.89.25h.07a44.21,44.21,0,0,1,7,1l.07,0,.32.09h0l.06,0h0C367.21,648.82,366.33,649.63,358.78,649.87Z"/><path class="cls-10" d="M347,646.77c-10.82,3.17-19.68,11.67-21.91,17.31-1.32,3.34-3.31,4.78-5.24,5.31,3.61-7.81,12-18.45,21.66-21.65A23.55,23.55,0,0,1,347,646.77Z"/><path class="cls-11" d="M552.71,460.58c-.1.74-.22,1.44-.36,2.09-3.08,14.56-15.12,10.3-15.12,10.3l-16.3-12-17.19-12.62-19.8-14.52L447,406.78s3-18.58,15-17.81c9.26.59,59.68,32.81,81.12,55.3A59,59,0,0,1,550.2,453C552.06,456,553,458.53,552.71,460.58Z"/><path class="cls-12" d="M552.71,460.58c-2.32,17-15.48,12.39-15.48,12.39l-53.29-39.1a199.75,199.75,0,0,0,59.18,10.4C549.44,450.91,553.24,456.7,552.71,460.58Z"/><path class="cls-13" d="M552.71,460.58c-2.32,17-15.48,12.39-15.48,12.39l-33.49-24.58A192.14,192.14,0,0,0,550.2,453C552.06,456,553,458.53,552.71,460.58Z"/><path class="cls-14" d="M552.35,462.67c-3.08,14.56-15.12,10.3-15.12,10.3l-16.3-12A183.33,183.33,0,0,0,552.35,462.67Z"/><path class="cls-3" d="M537.23,473s-55.93,52.12-105,71.62a124,124,0,0,1-12.45,4.26,80.77,80.77,0,0,1-14.32,2.75c-11,1-20.85-1-28.54-7.4a24.33,24.33,0,0,1-7.69-12,37,37,0,0,1-1.51-9.34,53.12,53.12,0,0,1,.15-6.51c1.92-22.9,17.79-53.42,42.27-79.26q4.55-4.8,9.47-9.35t9.93-8.58A177.66,177.66,0,0,1,447,406.78a237.76,237.76,0,0,1,40.83,19.64,184,184,0,0,1,26,18.75c8.81,7.72,16.81,16.59,22.7,26.59C536.77,472.16,537,472.56,537.23,473Z"/><path class="cls-6" d="M536.52,471.76c-40.54-39-102.2-37.13-126.33-34.62A188.9,188.9,0,0,1,447,406.78S511.24,428.82,536.52,471.76Z"/><path class="cls-4" d="M513.82,445.17c-33.45-18.09-72.17-18.86-94.16-17.38a183.14,183.14,0,0,1,27.37-21S484.81,419.75,513.82,445.17Z"/><path class="cls-8" d="M274.26,547.16a53.79,53.79,0,0,1,2.34,6.61,42.74,42.74,0,0,1,1.72,10.06c.15,5-1,10-5.09,13-7.4,5.44-11.19,1.67-12.85-1.27a12.71,12.71,0,0,1-1-2.39c0-.12,0-.18,0-.18l-.08.23c-.25.71-1,3-2.22,5.82-.73,1.79-1.61,3.81-2.59,5.83-2.46,5.11-5.55,10.25-8.53,11.68-4,1.94-6.71-.45-8.14-2.5a11.85,11.85,0,0,1-1.28-2.35,22.51,22.51,0,0,1-1.87,3.07c-2.59,3.64-7.83,9.09-15.55,8-7.48-1-9.23-7.44-9.54-11.74,0-.53-.06-1-.06-1.49a19.58,19.58,0,0,1,.12-2.45s-.64-.37-1.61-1.06a30.32,30.32,0,0,1-6.07-5.68,15.77,15.77,0,0,1-3.47-7.71,10.79,10.79,0,0,1-.08-1.89c.39-9.59,6.78-31.85,20.33-42.69l17.8-45.87s48.26-10.13,64.32,33.68C300.77,515.94,276.32,538.91,274.26,547.16Z"/><path class="cls-15" d="M273.23,576.86c-7.4,5.44-11.19,1.67-12.85-1.27a12.71,12.71,0,0,1-1-2.39c0-.12,0-.18,0-.18l-.08.23c-.25.71-1,3-2.22,5.82-.73,1.79-1.61,3.81-2.59,5.83-2.46,5.11-5.55,10.25-8.53,11.68-4,1.94-6.71-.45-8.14-2.5a11.85,11.85,0,0,1-1.28-2.35,22.51,22.51,0,0,1-1.87,3.07c-2.59,3.64-7.83,9.09-15.55,8-7.48-1-9.23-7.44-9.54-11.74,0-.53-.06-1-.06-1.49a19.58,19.58,0,0,1,.12-2.45s-.64-.37-1.61-1.06a30.32,30.32,0,0,1-6.07-5.68,15.77,15.77,0,0,1-3.47-7.71c41.85,3.82,69.91-13.11,78.2-18.94a42.74,42.74,0,0,1,1.72,10.06C278.47,568.86,277.33,573.84,273.23,576.86Z"/><path class="cls-8" d="M346.78,647c-22.46,1.68-27.36,33.68-38.33,31.49-5.83-1.16-6.88-5.76-6.57-9.81,0-.11,0-.23,0-.34l.06-.59a24.54,24.54,0,0,1,1.46-5.78,42.78,42.78,0,0,1,28.65-18.06,50.7,50.7,0,0,1,10.64-.82l.22,0,.38,0C349.35,643.78,346.78,647,346.78,647Z"/><path class="cls-10" d="M344.21,644.55c-19.89-1.56-20.44,9.16-31,20.52-5,5.43-8.75,4.82-11.26,2.71a24.54,24.54,0,0,1,1.46-5.78,42.78,42.78,0,0,1,28.65-18.06,46.88,46.88,0,0,1,11.24-.77C343.9,644,344.21,644.55,344.21,644.55Z"/><path class="cls-8" d="M431.3,641.45A135.5,135.5,0,0,1,429.1,662s-5,.88-14.16,1.89c-2.73.3-5.83.62-9.28.93q-4.2.38-9.09.72l-2.85.2c-2.32.16-4.74.3-7.27.44l-3.09.15-1.3,0c-.7.54-1.56,1.17-2.54,1.85-6.92,4.77-19.83,12.35-24,15.34s-11.55.48-14.64-4a7.31,7.31,0,0,1-1.39-4.17,6.22,6.22,0,0,1,.16-1.41,13.34,13.34,0,0,1,1.15-3c2.63-5.19,8.62-11.6,12.09-15.09a28.29,28.29,0,0,1-6.14-8.88c-20.78-6.19-28.52,9.17-29.42,11.88s-3.1,11.09-18.68,7.22-4.81-26.06,7.84-37.93,55.67-3.36,55.67-3.36c14.39-22.45,53-30.45,53-30.45,6.66,4.28,10.73,11.22,13.13,19.06a70,70,0,0,1,2.5,12.72A109.16,109.16,0,0,1,431.3,641.45Z"/><path class="cls-8" d="M433.32,238.73a91.94,91.94,0,0,1-2.82,19.08,87.85,87.85,0,0,1-12.11,27s-85.55-5.42-92.9,2.32c0,0-9.35-6.66-22.69-15.86-13.09-9-30-20.51-45.68-30.53-7.07-4.52-13.87-8.74-20-12.3A152.05,152.05,0,0,0,219,219s28.65-25.93,100.65-7c0,0,52.26-29,105.29-19a102.37,102.37,0,0,1,8,31.32A99.77,99.77,0,0,1,433.32,238.73Z"/><path class="cls-2" d="M219,219l-4.25,12s68.9,39,96.77,61.16l13.94-5S238.26,225.1,219,219Z"/><path class="cls-8" d="M659.75,174.79a97.66,97.66,0,0,1-18.39,16.44c-14.86,10.44-38.08,21.28-67.27,17.05,0,0-4.64-11.57-10.94-26.07-3-6.82-6.29-14.3-9.68-21.52-5.38-11.44-10.9-22.25-15.33-28.84-2.41-3.59-4.51-5.94-6.08-6.45,0,0,17.5-99.22,15.75-125.4,0,0,35.73,14.71,49.55,87.88,0,0,40.33,28.75,57.91,73.29a118.55,118.55,0,0,1,4.22,12.64C659.58,174.13,659.66,174.46,659.75,174.79Z"/><path class="cls-2" d="M547.81,0,535.15,1.31s-5.57,79-13.63,113.67l10.54,10.42S550.6,20,547.81,0Z"/><path class="cls-2" d="M232.87,557.15a1.48,1.48,0,0,1-1.38.93,1.41,1.41,0,0,1-.57-.11,28.21,28.21,0,0,1-4.7-2.43c-6.18,4.8-13,23.55-16.73,35.56a20.7,20.7,0,0,1,.06-3.94s-.64-.37-1.61-1.06c3.54-10.85,9.56-26.75,15.85-32.4a11,11,0,0,1-2.63-3.15,1.5,1.5,0,0,1,2.71-1.29c0,.09,1.77,3.3,8.19,5.94A1.49,1.49,0,0,1,232.87,557.15Z"/><path class="cls-2" d="M253.09,559.49a11,11,0,0,1-5.61,1.47l-.54,0c-4.37,5.51-7.48,21.71-9.21,33.14a11.85,11.85,0,0,1-1.28-2.35,22.51,22.51,0,0,1-1.87,3.07c1.62-11,4.63-27.15,9.07-34.36a18.16,18.16,0,0,1-4.07-1.59,1.5,1.5,0,1,1,1.49-2.6c.09,0,6,3.32,10.49.65a1.5,1.5,0,0,1,1.53,2.59Z"/><path class="cls-2" d="M266,555.92a79.3,79.3,0,0,0-5.57,19.67,12,12,0,0,1-1.09-2.57s-.88,2.58-2.3,6.05a78.72,78.72,0,0,1,6.23-24.4,1.5,1.5,0,0,1,2.73,1.25Z"/><path class="cls-15" d="M364.72,648h0l-.35-.1Z"/><path class="cls-15" d="M393.72,665.74q-4.89.33-10.36.59l-1.3,0c-5.63,4.38-21.78,13.78-26.51,17.19-5.55,4-17.55-2.06-15.87-9.55a13.34,13.34,0,0,1,1.15-3C351,664.56,374,653,393.72,665.74Z"/><path class="cls-15" d="M431.3,641.45A135.5,135.5,0,0,1,429.1,662s-5,.88-14.16,1.89c-2.73.3-5.83.62-9.28.93q-4.2.38-9.09.72c22.6-17.8,29.69-42.21,31.72-52.09a70,70,0,0,1,2.5,12.72A109.16,109.16,0,0,1,431.3,641.45Z"/><path class="cls-15" d="M374.26,565c.15,12.56-13.42,20.23-23.75,14.68a16.48,16.48,0,0,1-2.87-2c-.56-.48-1.1-1-1.63-1.52-.93-.93-1.83-1.94-2.7-3-.75-.9-1.48-1.82-2.22-2.77-1.81-2.31-3.63-4.73-5.68-7a37.64,37.64,0,0,0-6.54-5.94c21-1.22,35-7.92,40.73-11.22.56,1.08,1.07,2.2,1.54,3.34s.95,2.48,1.33,3.76a42.09,42.09,0,0,1,1.6,8.13c.1,1,.16,2,.18,3.07C374.25,564.67,374.26,564.83,374.26,565Z"/><path class="cls-16" d="M359.69,585.61c-2.13,6.6-6.06,13.43-13.3,17-13.94,6.91-27.68-5.46-31.92-9.84C315.23,593.23,336.92,605.44,359.69,585.61Z"/><path class="cls-6" d="M432.28,544.59a124,124,0,0,1-12.45,4.26,80.77,80.77,0,0,1-14.32,2.75c-11,1-20.85-1-28.54-7.4a24.33,24.33,0,0,1-7.69-12,37,37,0,0,1-1.51-9.34,53.12,53.12,0,0,1,.15-6.51C379.26,526.1,403.7,543.76,432.28,544.59Z"/><path class="cls-15" d="M418.39,284.84s-85.55-5.42-92.9,2.32c0,0-55-39.17-88.33-58.69a145,145,0,0,1-6.76-13.71c1.21.64,111.38,58.59,202.53,9.66C434.6,241.57,432.54,263.61,418.39,284.84Z"/><path class="cls-15" d="M659.75,174.79s-33.17,41.09-85.66,33.49c0,0-22.77-56.83-36-76.43,16.69,12,61.21,38.61,117.13,29.32A118.62,118.62,0,0,1,659.75,174.79Z"/><path class="cls-17" d="M307.14,563.77a38.88,38.88,0,0,0-4.77,4.74c-1.13,1.32-2.12,2.61-3,3.79a51.33,51.33,0,0,1-3.51,4.61c-3.87,3.87-5.6-1.46-5.6-1.46.75-1.05,1.57-2.16,2.45-3.3s2-2.51,3.07-3.78c1.22-1.43,2.53-2.85,3.89-4.21A53.27,53.27,0,0,0,307.14,563.77Z"/><path class="cls-18" d="M302.37,568.51c-1.13,1.32-2.12,2.61-3,3.79a51.33,51.33,0,0,1-3.51,4.61c-3.87,3.87-5.6-1.46-5.6-1.46.75-1.05,1.57-2.16,2.45-3.3s2-2.51,3.07-3.78A40.16,40.16,0,0,0,302.37,568.51Z"/><path class="cls-19" d="M299.38,572.3a51.33,51.33,0,0,1-3.51,4.61c-3.87,3.87-5.6-1.46-5.6-1.46.75-1.05,1.57-2.16,2.45-3.3A39.83,39.83,0,0,0,299.38,572.3Z"/><path class="cls-2" d="M408.94,493.5H394V486l14.2-20.26h9.94v19.89h3.56v7.86h-3.56v5.55h-9.15Zm.69-7.86V476l-6.38,9.67Z"/><path class="cls-2" d="M438.76,464.55c9.72,0,13.46,7.12,13.46,17.11s-3.74,17.21-13.46,17.21-13.41-7.08-13.41-17.21S429.05,464.55,438.76,464.55Zm0,8.55c-4,0-4.48,3.89-4.48,8.56s.46,8.65,4.48,8.65,4.49-3.84,4.49-8.65S442.79,473.1,438.76,473.1Z"/><path class="cls-2" d="M471.28,493.5h-15V486l14.2-20.26h9.94v19.89H484v7.86h-3.56v5.55h-9.15Zm.69-7.86V476l-6.38,9.67Z"/><path class="cls-20" d="M328.48,404c0,.17,0,.34,0,.5a34.63,34.63,0,0,1-59.56,23.56,32.07,32.07,0,0,1-2.92-3.45,53.08,53.08,0,0,1-73.6-1.56,91.05,91.05,0,0,1-72.17,13.11q-4.06-1-8-2.3A89.86,89.86,0,0,1,94,425.33c-1.92-1.17-3.8-2.41-5.62-3.72-.19.22-.39.44-.61.66a50.56,50.56,0,1,1-37.25-84.66h.57a90.92,90.92,0,0,1,179.63-7q.18.92.33,1.83a53.16,53.16,0,0,1,50.24,39.29A34.64,34.64,0,0,1,328.48,404Z"/><path class="cls-21" d="M328.48,404c0,.17,0,.34,0,.5a34.63,34.63,0,0,1-59.56,23.56,32.07,32.07,0,0,1-2.92-3.45,53.12,53.12,0,0,1-73.6-1.56A90.82,90.82,0,0,1,94,425.33c-1.92-1.17-3.8-2.41-5.62-3.72-.19.22-.39.44-.61.66a50.49,50.49,0,0,1-74.38.16c96.23-10.13,170.81-54.93,217.33-91.81q.18.92.33,1.83a53.13,53.13,0,0,1,50.24,39.29A34.64,34.64,0,0,1,328.48,404Z"/><line class="cls-22" x1="159.42" y1="62.7" x2="159.42" y2="262.95"/><line class="cls-22" x1="606.61" y1="369.17" x2="606.61" y2="489.07"/><line class="cls-22" x1="444.7" y1="65.45" x2="444.7" y2="185.35"/><line class="cls-22" x1="606.61" y1="336.58" x2="606.61" y2="358.97"/><line class="cls-22" x1="307.55" y1="172.91" x2="307.55" y2="373.15"/><line class="cls-22" x1="159.42" y1="281.98" x2="159.42" y2="321.19"/><line class="cls-22" x1="307.55" y1="142.13" x2="307.55" y2="160.93"/><line class="cls-22" x1="307.55" y1="388.95" x2="307.55" y2="396.97"/><path class="cls-20" d="M871.49,282.45a42.38,42.38,0,0,1-73.64,28.63c-.19-.19-.35-.37-.52-.56q-2.28,1.65-4.71,3.12a75.51,75.51,0,0,1-22,9.12,76.75,76.75,0,0,1-17.8,2.09,75.93,75.93,0,0,1-42.74-13.09A44.57,44.57,0,0,1,651.84,316a42.5,42.5,0,0,1-3.5-2.91,28.24,28.24,0,0,1-2.45,2.9,29.06,29.06,0,0,1-50-19.77v-.41a29.06,29.06,0,0,1,39.58-27.1,44.56,44.56,0,0,1,42.15-33,76.28,76.28,0,0,1,151,4.33h.48a42.24,42.24,0,0,1,35.64,19.43A42.16,42.16,0,0,1,871.49,282.45Z"/><path class="cls-21" d="M871.49,282.45a42.39,42.39,0,0,1-74.16,28.07,76.29,76.29,0,0,1-87.24,1.24,44.57,44.57,0,0,1-61.75,1.3,29.06,29.06,0,0,1-52.43-16.87c124,8.12,190.44-49.66,220.94-89.06a75.69,75.69,0,0,1,11.77,32.92h.48A42.39,42.39,0,0,1,871.49,282.45Z"/><path class="cls-23" d="M617,314.47q15,1.36,28.94,1.49a29.07,29.07,0,0,1-44-2.53Q608.69,313.72,617,314.47Z"/><path class="cls-20" d="M407.26,111.16a28,28,0,0,1-48.69,18.93c-.12-.12-.23-.24-.34-.37-1,.73-2.05,1.42-3.12,2.06a50.45,50.45,0,0,1-54.57-1.24A29.47,29.47,0,0,1,262,133.32a28.32,28.32,0,0,1-2.31-1.92,18.68,18.68,0,0,1-1.62,1.92,19.22,19.22,0,0,1-33.05-13.07V120a19.2,19.2,0,0,1,26.17-17.91,29.47,29.47,0,0,1,27.87-21.8,50.44,50.44,0,0,1,99.83,2.87h.31a29.63,29.63,0,0,1,4.13.3,28,28,0,0,1,23.9,27.74Z"/><path class="cls-21" d="M407.26,111.16a28,28,0,0,1-49,18.56,50.48,50.48,0,0,1-57.69.82,29.47,29.47,0,0,1-40.82.86,19.22,19.22,0,0,1-34.67-11.15c82,5.36,125.92-32.84,146.08-58.89a50.11,50.11,0,0,1,7.79,21.77h.31A28,28,0,0,1,407.26,111.16Z"/><path class="cls-23" d="M239,132.33q9.92.9,19.13,1A19.23,19.23,0,0,1,229,131.64Q233.51,131.84,239,132.33Z"/><line class="cls-22" x1="714.52" y1="138.61" x2="714.52" y2="338.85"/><line class="cls-22" x1="714.52" y1="99.68" x2="714.52" y2="128.66"/><line class="cls-22" x1="714.52" y1="79.87" x2="714.52" y2="90.92"/></g></g></svg>