<svg id="Layer_1" data-name="Layer 1" xmlns="http://www.w3.org/2000/svg" xmlns:xlink="http://www.w3.org/1999/xlink" viewBox="0 0 160 160"><defs><style>.cls-1{fill:none;}.cls-2{fill:#171918;}.cls-3{fill:#343838;}.cls-4{fill:#99413e;}.cls-5{fill:#c55350;}.cls-6{fill:#8f3d3a;}.cls-7{fill:#424752;}.cls-8{fill:#dadada;}.cls-9{fill:#4d9e87;}.cls-10{fill:#bfd4f3;}.cls-11{fill:#c1c1c1;}.cls-12{fill:#fec400;}.cls-13{fill:#ac4946;}.cls-14{fill:#959595;}.cls-15{fill:#c9c9c9;}.cls-16{fill:#c3a73e;}.cls-17{fill:#e5eaec;}.cls-18{fill:#afb3b4;}.cls-19{fill:#373737;}.cls-20{isolation:isolate;}.cls-21{clip-path:url(#clip-path);}.cls-22{fill:#505050;}.cls-23{fill:#535353;}.cls-24{fill:#565656;}.cls-25{fill:#595959;}.cls-26{fill:#5c5c5c;}.cls-27{fill:#5f5f5f;}.cls-28{fill:#626262;}.cls-29{fill:#656565;}.cls-30{fill:#686868;}.cls-31{fill:#6b6b6b;}.cls-32{fill:#6e6e6e;}.cls-33{clip-path:url(#clip-path-2);}.cls-34{clip-path:url(#clip-path-3);}.cls-35{clip-path:url(#clip-path-4);}.cls-36{fill:#5f3122;}.cls-37{fill:#623323;}.cls-38{fill:#663525;}.cls-39{fill:#693626;}.cls-40{fill:#6c3827;}.cls-41{fill:#703a28;}.cls-42{fill:#733b29;}.cls-43{fill:#763d2a;}.cls-44{fill:#5c3021;}.cls-45{fill:#592e20;}.cls-46{fill:#552c1f;}.cls-47{fill:#848484;}.cls-48{fill:#8d4933;}.cls-49{fill:#5b5b5b;}.cls-50{fill:#d36d4c;}.cls-51{fill:#6d5527;}.cls-52{fill:#a5c421;}.cls-53{fill:#507a0e;}.cls-54{fill:#bdd84d;}.cls-55{clip-path:url(#clip-path-5);}.cls-56{clip-path:url(#clip-path-6);}.cls-57{clip-path:url(#clip-path-7);}.cls-58{clip-path:url(#clip-path-8);}.cls-59{clip-path:url(#clip-path-9);}.cls-60{clip-path:url(#clip-path-10);}.cls-61{clip-path:url(#clip-path-11);}.cls-62{clip-path:url(#clip-path-12);}.cls-63{clip-path:url(#clip-path-13);}.cls-64{clip-path:url(#clip-path-14);}.cls-65{clip-path:url(#clip-path-15);}.cls-66{clip-path:url(#clip-path-16);}.cls-67{clip-path:url(#clip-path-17);}.cls-68{clip-path:url(#clip-path-18);}.cls-69{clip-path:url(#clip-path-19);}.cls-70{clip-path:url(#clip-path-20);}.cls-71{clip-path:url(#clip-path-21);}.cls-72{clip-path:url(#clip-path-22);}.cls-73{clip-path:url(#clip-path-23);}.cls-74{clip-path:url(#clip-path-24);}.cls-75{clip-path:url(#clip-path-25);}.cls-76{clip-path:url(#clip-path-26);}.cls-77{clip-path:url(#clip-path-27);}.cls-78{clip-path:url(#clip-path-28);}</style><clipPath id="clip-path"><path class="cls-1" d="M69.53,143a1,1,0,0,0-.59.84v-1.3a1,1,0,0,1,.6-.83c0,.43,0,.86,0,1.29v-1.29a3.18,3.18,0,0,1,2.91,0h0v0a1,1,0,0,1,.6.84v1.3a1.05,1.05,0,0,0-.61-.85A3.24,3.24,0,0,0,69.53,143Z"/></clipPath><clipPath id="clip-path-2"><path class="cls-1" d="M73.72,144v-1.3a1,1,0,0,0,0-.17v1.3A1,1,0,0,1,73.72,144Z"/></clipPath><clipPath id="clip-path-3"><path class="cls-1" d="M68.27,144a2.61,2.61,0,0,1,0-.28v-1h0V144Z"/></clipPath><clipPath id="clip-path-4"><path class="cls-1" d="M73.05,142.52v1.3a1,1,0,0,1-.6.83,3.16,3.16,0,0,1-2.9,0,1,1,0,0,1-.61-.84v-1.3a1.07,1.07,0,0,0,.61.85,3.22,3.22,0,0,0,2.9,0A1,1,0,0,0,73.05,142.52Z"/></clipPath><clipPath id="clip-path-5"><path class="cls-1" d="M99.55,126.45a1,1,0,0,0-.59.83V126a1,1,0,0,1,.59-.84v0a3.24,3.24,0,0,1,2.91,0h0v0a1,1,0,0,1,.6.85v1.29a1,1,0,0,0-.6-.84A3.18,3.18,0,0,0,99.55,126.45Z"/></clipPath><clipPath id="clip-path-6"><path class="cls-1" d="M103.73,127.46v-1.29a1,1,0,0,0,0-.17v1.3A.88.88,0,0,1,103.73,127.46Z"/></clipPath><clipPath id="clip-path-7"><path class="cls-1" d="M98.29,127.46a2.43,2.43,0,0,1,0-.27v-1h0v1.3Z"/></clipPath><clipPath id="clip-path-8"><path class="cls-1" d="M103.06,126v1.29a1,1,0,0,1-.6.84,3.16,3.16,0,0,1-2.9,0,1,1,0,0,1-.6-.85V126a1,1,0,0,0,.61.84,3.14,3.14,0,0,0,2.89,0A1,1,0,0,0,103.06,126Z"/></clipPath><clipPath id="clip-path-9"><path class="cls-1" d="M132.19,106.72a1,1,0,0,0-.6.83v-1.3a1,1,0,0,1,.59-.83v0a3.18,3.18,0,0,1,2.91,0h0v0a1,1,0,0,1,.6.84v1.3a1,1,0,0,0-.6-.84A3.18,3.18,0,0,0,132.19,106.72Z"/></clipPath><clipPath id="clip-path-10"><path class="cls-1" d="M136.37,107.73v-1.3a.88.88,0,0,0,0-.16v1.29A1,1,0,0,1,136.37,107.73Z"/></clipPath><clipPath id="clip-path-11"><path class="cls-1" d="M130.92,107.73a2.62,2.62,0,0,1,0-.28v-1h0v1.3Z"/></clipPath><clipPath id="clip-path-12"><path class="cls-1" d="M135.7,106.26v1.3a1,1,0,0,1-.6.84,3.22,3.22,0,0,1-2.9,0,1.05,1.05,0,0,1-.61-.85v-1.3a1,1,0,0,0,.61.85,3.2,3.2,0,0,0,2.89,0A1,1,0,0,0,135.7,106.26Z"/></clipPath><clipPath id="clip-path-13"><path class="cls-1" d="M67.8,125.07a1,1,0,0,0-.59.83v-1.3a1,1,0,0,1,.59-.83v0a3.24,3.24,0,0,1,2.91,0h0v0a1.05,1.05,0,0,1,.61.85v1.29a1,1,0,0,0-.6-.84A3.18,3.18,0,0,0,67.8,125.07Z"/></clipPath><clipPath id="clip-path-14"><path class="cls-1" d="M72,126.08v-1.29a1,1,0,0,0,0-.17v1.3A.88.88,0,0,1,72,126.08Z"/></clipPath><clipPath id="clip-path-15"><path class="cls-1" d="M66.54,126.08a2.43,2.43,0,0,1,0-.27v-1h0v1.3Z"/></clipPath><clipPath id="clip-path-16"><path class="cls-1" d="M71.32,124.62v1.29a1,1,0,0,1-.6.84,3.2,3.2,0,0,1-2.89,0,1,1,0,0,1-.61-.85v-1.3a1,1,0,0,0,.61.85,3.16,3.16,0,0,0,2.9,0A1.05,1.05,0,0,0,71.32,124.62Z"/></clipPath><clipPath id="clip-path-17"><path class="cls-1" d="M44.48,129.16a1,1,0,0,0-.59.83V128.7a1,1,0,0,1,.59-.84v0a3.24,3.24,0,0,1,2.91,0h0v0a1,1,0,0,1,.6.85V130a1,1,0,0,0-.6-.85A3.24,3.24,0,0,0,44.48,129.16Z"/></clipPath><clipPath id="clip-path-18"><path class="cls-1" d="M48.66,130.18v-1.3a1,1,0,0,0,0-.17V130A1.11,1.11,0,0,1,48.66,130.18Z"/></clipPath><clipPath id="clip-path-19"><path class="cls-1" d="M43.22,130.18a2.61,2.61,0,0,1,0-.28v-1h0v1.3Z"/></clipPath><clipPath id="clip-path-20"><path class="cls-1" d="M48,128.71V130a1,1,0,0,1-.6.83,3.16,3.16,0,0,1-2.9,0,1,1,0,0,1-.6-.85V128.7a1,1,0,0,0,.61.85,3.2,3.2,0,0,0,2.89,0A1,1,0,0,0,48,128.71Z"/></clipPath><clipPath id="clip-path-21"><path class="cls-1" d="M35.59,112.45a1,1,0,0,0-.59.83V112a1,1,0,0,1,.6-.83c0,.43,0,.86,0,1.3v-1.3a3.16,3.16,0,0,1,2.9,0h0v0a1,1,0,0,1,.61.84v1.3a1,1,0,0,0-.6-.84A3.18,3.18,0,0,0,35.59,112.45Z"/></clipPath><clipPath id="clip-path-22"><path class="cls-1" d="M39.77,113.46v-1.3a.86.86,0,0,0,0-.16v1.29A.5.5,0,0,1,39.77,113.46Z"/></clipPath><clipPath id="clip-path-23"><path class="cls-1" d="M34.33,113.46a2.61,2.61,0,0,1,0-.28v-1h0v1.3Z"/></clipPath><clipPath id="clip-path-24"><path class="cls-1" d="M39.11,112v1.3a1,1,0,0,1-.6.84,3.2,3.2,0,0,1-2.89,0,1,1,0,0,1-.61-.85V112a1,1,0,0,0,.61.85,3.22,3.22,0,0,0,2.9,0A1,1,0,0,0,39.11,112Z"/></clipPath><clipPath id="clip-path-25"><path class="cls-1" d="M25.71,117.63a1,1,0,0,0-.6.83v-1.3a1,1,0,0,1,.6-.83v0a3.24,3.24,0,0,1,2.91,0h0v0a1,1,0,0,1,.6.85v1.29a1,1,0,0,0-.61-.84A3.16,3.16,0,0,0,25.71,117.63Z"/></clipPath><clipPath id="clip-path-26"><path class="cls-1" d="M29.89,118.64v-1.29a1.11,1.11,0,0,0,0-.17v1.29A.91.91,0,0,1,29.89,118.64Z"/></clipPath><clipPath id="clip-path-27"><path class="cls-1" d="M24.44,118.64a2.61,2.61,0,0,1,0-.28v-1h0v1.3Z"/></clipPath><clipPath id="clip-path-28"><path class="cls-1" d="M29.22,117.18v1.29a1,1,0,0,1-.6.84,3.22,3.22,0,0,1-2.9,0,1,1,0,0,1-.61-.85v-1.3a1,1,0,0,0,.61.85,3.16,3.16,0,0,0,2.9,0A1,1,0,0,0,29.22,117.18Z"/></clipPath></defs><polygon class="cls-2" points="18.63 120.25 18.63 117.64 89.25 79.05 141.37 106.53 141.37 109.14 70.75 150.34 18.63 120.25"/><polygon class="cls-3" points="18.63 117.64 89.25 76.44 141.37 106.53 70.75 147.74 18.63 117.64"/><polygon class="cls-4" points="37.85 37.35 37.85 108.76 62.59 123.04 62.59 51.63 37.85 37.35"/><polygon class="cls-5" points="62.59 123.04 79.08 113.52 79.08 42.11 62.59 51.63 62.59 123.04"/><polygon class="cls-5" points="95.57 123.04 128.55 104 128.55 32.59 95.57 51.63 95.57 123.04"/><polygon class="cls-6" points="95.57 123.04 79.08 113.52 79.08 42.11 95.57 51.63 95.57 123.04"/><path class="cls-7" d="M40.4,44.24v8.47L44,54.78V46.31Zm.29.49,3,1.74v7.79l-3-1.74Z"/><polygon class="cls-8" points="40.98 44.9 40.98 52.36 43.69 53.93 43.69 54.26 40.69 52.52 40.69 44.73 40.98 44.9"/><polygon class="cls-9" points="40.98 44.9 43.69 46.47 43.69 53.93 40.98 52.36 40.98 44.9"/><path class="cls-7" d="M48.43,48.84v8.47L52,59.39V50.91Zm.29.49,3,1.74v7.79l-3-1.74Z"/><polygon class="cls-8" points="49.01 49.5 49.01 56.96 51.72 58.53 51.72 58.86 48.72 57.12 48.72 49.33 49.01 49.5"/><polygon class="cls-9" points="49.01 49.5 51.72 51.07 51.72 58.53 49.01 56.96 49.01 49.5"/><path class="cls-7" d="M56.46,53.45v8.47L60,64V55.52Zm.29.49,3,1.74v7.78l-3-1.74Z"/><polygon class="cls-8" points="57.03 54.1 57.03 61.56 59.74 63.14 59.74 63.46 56.75 61.72 56.75 53.94 57.03 54.1"/><polygon class="cls-9" points="57.03 54.1 59.74 55.68 59.74 63.14 57.03 61.56 57.03 54.1"/><path class="cls-7" d="M98.79,54.39v8.48l2.17-1.3V53.1Zm1.88,7-1.6,1V54.55l1.6-1Z"/><polygon class="cls-8" points="100.38 53.76 100.38 61.22 99.08 62.01 99.08 62.34 100.67 61.38 100.67 53.59 100.38 53.76"/><polygon class="cls-9" points="100.38 53.76 99.08 54.55 99.08 62.01 100.38 61.22 100.38 53.76"/><path class="cls-7" d="M101,53.1v8.47l2.17-1.29V51.81Zm1.88,7-1.6,1V53.26l1.6-1Z"/><polygon class="cls-8" points="102.55 52.46 102.55 59.92 101.24 60.72 101.24 61.05 102.84 60.08 102.84 52.3 102.55 52.46"/><polygon class="cls-9" points="102.55 52.46 101.24 53.26 101.24 60.72 102.55 59.92 102.55 52.46"/><path class="cls-7" d="M106.57,50.16v8.47l2.17-1.29V48.86Zm1.89,7-1.6,1V50.32l1.6-1Z"/><polygon class="cls-8" points="108.17 49.52 108.17 56.98 106.86 57.78 106.86 58.1 108.46 57.14 108.46 49.35 108.17 49.52"/><polygon class="cls-9" points="108.17 49.52 106.86 50.31 106.86 57.78 108.17 56.98 108.17 49.52"/><path class="cls-7" d="M108.74,48.86v8.48l2.17-1.3V47.57Zm1.88,7-1.59,1V49l1.59-1Z"/><polygon class="cls-8" points="110.34 48.23 110.34 55.69 109.03 56.48 109.03 56.81 110.63 55.85 110.63 48.06 110.34 48.23"/><polygon class="cls-9" points="110.34 48.23 109.03 49.02 109.03 56.48 110.34 55.69 110.34 48.23"/><path class="cls-7" d="M114.36,45.92v8.47l2.17-1.29V44.63Zm1.88,7-1.59,1V46.08l1.59-1Z"/><polygon class="cls-8" points="115.96 45.28 115.96 52.74 114.65 53.54 114.65 53.87 116.24 52.91 116.24 45.12 115.96 45.28"/><polygon class="cls-9" points="115.96 45.28 114.65 46.08 114.65 53.54 115.96 52.74 115.96 45.28"/><path class="cls-7" d="M116.53,44.63V53.1l2.17-1.29V43.33Zm1.88,7-1.6,1V44.79l1.6-1Z"/><polygon class="cls-8" points="118.12 43.99 118.12 51.45 116.81 52.25 116.81 52.57 118.41 51.61 118.41 43.82 118.12 43.99"/><polygon class="cls-9" points="118.12 43.99 116.81 44.78 116.81 52.25 118.12 51.45 118.12 43.99"/><path class="cls-7" d="M122.15,41.68v8.48l2.16-1.3V40.39Zm1.88,7-1.6,1V41.84l1.6-1Z"/><polygon class="cls-8" points="123.74 41.05 123.74 48.51 122.43 49.3 122.43 49.63 124.03 48.67 124.03 40.88 123.74 41.05"/><polygon class="cls-9" points="123.74 41.05 122.43 41.84 122.43 49.3 123.74 48.51 123.74 41.05"/><path class="cls-7" d="M124.31,40.39v8.47l2.17-1.29V39.1Zm1.89,7-1.6,1V40.55l1.6-1Z"/><polygon class="cls-8" points="125.91 39.75 125.91 47.22 124.6 48.01 124.6 48.34 126.2 47.38 126.2 39.59 125.91 39.75"/><polygon class="cls-9" points="125.91 39.75 124.6 40.55 124.6 48.01 125.91 47.22 125.91 39.75"/><path class="cls-7" d="M98.79,71.57V80L101,78.75V70.27Zm1.88,7-1.6,1V71.73l1.6-1Z"/><polygon class="cls-8" points="100.38 70.93 100.38 78.39 99.08 79.19 99.08 79.51 100.67 78.55 100.67 70.76 100.38 70.93"/><polygon class="cls-9" points="100.38 70.93 99.08 71.72 99.08 79.19 100.38 78.39 100.38 70.93"/><path class="cls-7" d="M101,70.27v8.48l2.17-1.3V69Zm1.88,7-1.6,1V70.43l1.6-1Z"/><polygon class="cls-8" points="102.55 69.64 102.55 77.1 101.24 77.89 101.24 78.22 102.84 77.26 102.84 69.47 102.55 69.64"/><polygon class="cls-9" points="102.55 69.64 101.24 70.43 101.24 77.89 102.55 77.1 102.55 69.64"/><path class="cls-7" d="M106.57,67.33V75.8l2.17-1.29V66Zm1.89,7-1.6,1V67.49l1.6-1Z"/><polygon class="cls-8" points="108.17 66.69 108.17 74.16 106.86 74.95 106.86 75.28 108.46 74.31 108.46 66.53 108.17 66.69"/><polygon class="cls-9" points="108.17 66.69 106.86 67.49 106.86 74.95 108.17 74.16 108.17 66.69"/><path class="cls-7" d="M108.74,66v8.47l2.17-1.29V64.74Zm1.88,7L109,74V66.19l1.59-1Z"/><polygon class="cls-8" points="110.34 65.4 110.34 72.86 109.03 73.66 109.03 73.98 110.63 73.02 110.63 65.23 110.34 65.4"/><polygon class="cls-9" points="110.34 65.4 109.03 66.19 109.03 73.66 110.34 72.86 110.34 65.4"/><path class="cls-7" d="M114.36,63.09v8.48l2.17-1.3V61.8Zm1.88,7-1.59,1V63.25l1.59-1Z"/><polygon class="cls-8" points="115.96 62.46 115.96 69.92 114.65 70.71 114.65 71.04 116.24 70.08 116.24 62.29 115.96 62.46"/><polygon class="cls-9" points="115.96 62.46 114.65 63.25 114.65 70.71 115.96 69.92 115.96 62.46"/><path class="cls-7" d="M116.53,61.8v8.47L118.7,69V60.51Zm1.88,7-1.6,1V62l1.6-1Z"/><polygon class="cls-8" points="118.12 61.16 118.12 68.63 116.81 69.42 116.81 69.75 118.41 68.78 118.41 61 118.12 61.16"/><polygon class="cls-9" points="118.12 61.16 116.81 61.96 116.81 69.42 118.12 68.63 118.12 61.16"/><path class="cls-7" d="M122.15,58.86v8.47L124.31,66V57.56Zm1.88,7-1.6,1V59l1.6-1Z"/><polygon class="cls-8" points="123.74 58.22 123.74 65.68 122.43 66.48 122.43 66.8 124.03 65.84 124.03 58.05 123.74 58.22"/><polygon class="cls-9" points="123.74 58.22 122.43 59.02 122.43 66.48 123.74 65.68 123.74 58.22"/><path class="cls-7" d="M124.31,57.56V66l2.17-1.3V56.27Zm1.89,7-1.6,1V57.72l1.6-1Z"/><polygon class="cls-8" points="125.91 56.93 125.91 64.39 124.6 65.18 124.6 65.51 126.2 64.55 126.2 56.76 125.91 56.93"/><polygon class="cls-9" points="125.91 56.93 124.6 57.72 124.6 65.18 125.91 64.39 125.91 56.93"/><path class="cls-7" d="M98.79,88.74v8.47L101,95.92V87.45Zm1.88,7-1.6,1V88.9l1.6-1Z"/><polygon class="cls-8" points="100.38 88.1 100.38 95.56 99.08 96.36 99.08 96.69 100.67 95.72 100.67 87.94 100.38 88.1"/><polygon class="cls-9" points="100.38 88.1 99.08 88.9 99.08 96.36 100.38 95.56 100.38 88.1"/><path class="cls-7" d="M101,87.45v8.47l2.17-1.29V86.15Zm1.88,7-1.6,1V87.6l1.6-1Z"/><polygon class="cls-8" points="102.55 86.81 102.55 94.27 101.24 95.07 101.24 95.39 102.84 94.43 102.84 86.64 102.55 86.81"/><polygon class="cls-9" points="102.55 86.81 101.24 87.61 101.24 95.07 102.55 94.27 102.55 86.81"/><path class="cls-7" d="M106.57,84.5V93l2.17-1.3V83.21Zm1.89,7-1.6,1V84.66l1.6-1Z"/><polygon class="cls-8" points="108.17 83.87 108.17 91.33 106.86 92.12 106.86 92.45 108.46 91.49 108.46 83.7 108.17 83.87"/><polygon class="cls-9" points="108.17 83.87 106.86 84.66 106.86 92.12 108.17 91.33 108.17 83.87"/><path class="cls-7" d="M108.74,83.21v8.47l2.17-1.29V81.92Zm1.88,7-1.59,1V83.37l1.59-1Z"/><polygon class="cls-8" points="110.34 82.57 110.34 90.03 109.03 90.83 109.03 91.16 110.63 90.19 110.63 82.41 110.34 82.57"/><polygon class="cls-9" points="110.34 82.57 109.03 83.37 109.03 90.83 110.34 90.03 110.34 82.57"/><path class="cls-7" d="M114.36,80.27v8.47l2.17-1.29V79Zm1.88,7-1.59,1V80.43l1.59-1Z"/><polygon class="cls-8" points="115.96 79.63 115.96 87.09 114.65 87.89 114.65 88.21 116.24 87.25 116.24 79.46 115.96 79.63"/><polygon class="cls-9" points="115.96 79.63 114.65 80.42 114.65 87.89 115.96 87.09 115.96 79.63"/><path class="cls-7" d="M116.53,79v8.48l2.17-1.3V77.68Zm1.88,7-1.6,1V79.13l1.6-1Z"/><polygon class="cls-8" points="118.12 78.34 118.12 85.8 116.81 86.59 116.81 86.92 118.41 85.96 118.41 78.17 118.12 78.34"/><polygon class="cls-9" points="118.12 78.34 116.81 79.13 116.81 86.59 118.12 85.8 118.12 78.34"/><path class="cls-7" d="M122.15,76V84.5l2.16-1.29V74.74ZM124,83l-1.6,1V76.19l1.6-1Z"/><polygon class="cls-8" points="123.74 75.39 123.74 82.86 122.43 83.65 122.43 83.98 124.03 83.02 124.03 75.23 123.74 75.39"/><polygon class="cls-9" points="123.74 75.39 122.43 76.19 122.43 83.65 123.74 82.86 123.74 75.39"/><path class="cls-7" d="M124.31,74.74v8.47l2.17-1.29V73.44Zm1.89,7-1.6,1V74.9l1.6-1Z"/><polygon class="cls-8" points="125.91 74.1 125.91 81.56 124.6 82.36 124.6 82.68 126.2 81.72 126.2 73.93 125.91 74.1"/><polygon class="cls-9" points="125.91 74.1 124.6 74.89 124.6 82.36 125.91 81.56 125.91 74.1"/><path class="cls-7" d="M98.79,105.91v8.48l2.17-1.3v-8.47Zm1.88,7-1.6,1v-7.79l1.6-1Z"/><polygon class="cls-8" points="100.38 105.28 100.38 112.74 99.08 113.53 99.08 113.86 100.67 112.9 100.67 105.11 100.38 105.28"/><polygon class="cls-9" points="100.38 105.28 99.08 106.07 99.08 113.53 100.38 112.74 100.38 105.28"/><path class="cls-7" d="M101,104.62v8.47l2.17-1.29v-8.47Zm1.88,7-1.6,1v-7.79l1.6-1Z"/><polygon class="cls-8" points="102.55 103.98 102.55 111.44 101.24 112.24 101.24 112.56 102.84 111.6 102.84 103.82 102.55 103.98"/><polygon class="cls-9" points="102.55 103.98 101.24 104.78 101.24 112.24 102.55 111.44 102.55 103.98"/><path class="cls-7" d="M106.57,101.68v8.47l2.17-1.29v-8.48Zm1.89,7-1.6,1v-7.78l1.6-1Z"/><polygon class="cls-8" points="108.17 101.04 108.17 108.5 106.86 109.3 106.86 109.62 108.46 108.66 108.46 100.87 108.17 101.04"/><polygon class="cls-9" points="108.17 101.04 106.86 101.83 106.86 109.3 108.17 108.5 108.17 101.04"/><path class="cls-7" d="M108.74,100.38v8.48l2.17-1.3V99.09Zm1.88,7-1.59,1v-7.79l1.59-1Z"/><polygon class="cls-8" points="110.34 99.75 110.34 107.21 109.03 108 109.03 108.33 110.63 107.37 110.63 99.58 110.34 99.75"/><polygon class="cls-9" points="110.34 99.75 109.03 100.54 109.03 108 110.34 107.21 110.34 99.75"/><path class="cls-7" d="M114.36,97.44v8.47l2.17-1.29V96.15Zm1.88,7-1.59,1V97.6l1.59-1Z"/><polygon class="cls-8" points="115.96 96.8 115.96 104.27 114.65 105.06 114.65 105.39 116.24 104.42 116.24 96.64 115.96 96.8"/><polygon class="cls-9" points="115.96 96.8 114.65 97.6 114.65 105.06 115.96 104.27 115.96 96.8"/><path class="cls-7" d="M116.53,96.15v8.47l2.17-1.29V94.85Zm1.88,7-1.6,1V96.3l1.6-1Z"/><polygon class="cls-8" points="118.12 95.51 118.12 102.97 116.81 103.77 116.81 104.09 118.41 103.13 118.41 95.34 118.12 95.51"/><polygon class="cls-9" points="118.12 95.51 116.81 96.31 116.81 103.77 118.12 102.97 118.12 95.51"/><path class="cls-7" d="M122.15,93.2v8.48l2.16-1.3V91.91Zm1.88,7-1.6,1V93.36l1.6-1Z"/><polygon class="cls-8" points="123.74 92.57 123.74 100.03 122.43 100.82 122.43 101.15 124.03 100.19 124.03 92.4 123.74 92.57"/><polygon class="cls-9" points="123.74 92.57 122.43 93.36 122.43 100.82 123.74 100.03 123.74 92.57"/><path class="cls-7" d="M124.31,91.91v8.47l2.17-1.29V90.62Zm1.89,7-1.6,1V92.07l1.6-1Z"/><polygon class="cls-8" points="125.91 91.27 125.91 98.73 124.6 99.53 124.6 99.86 126.2 98.89 126.2 91.11 125.91 91.27"/><polygon class="cls-9" points="125.91 91.27 124.6 92.07 124.6 99.53 125.91 98.73 125.91 91.27"/><path class="cls-7" d="M40.4,60.6v8.47L44,71.14V62.67Zm.29.49,3,1.74v7.78l-3-1.73Z"/><polygon class="cls-8" points="40.98 61.25 40.98 68.72 43.69 70.29 43.69 70.61 40.69 68.88 40.69 61.09 40.98 61.25"/><polygon class="cls-9" points="40.98 61.25 43.69 62.83 43.69 70.29 40.98 68.72 40.98 61.25"/><path class="cls-7" d="M48.43,65.2v8.47L52,75.75V67.27Zm.29.49,3,1.74v7.79l-3-1.74Z"/><polygon class="cls-8" points="49.01 65.86 49.01 73.32 51.72 74.89 51.72 75.22 48.72 73.48 48.72 65.69 49.01 65.86"/><polygon class="cls-9" points="49.01 65.86 51.72 67.43 51.72 74.89 49.01 73.32 49.01 65.86"/><path class="cls-7" d="M56.46,69.8v8.48L60,80.35V71.88Zm.29.5,3,1.73v7.79l-3-1.74Z"/><polygon class="cls-8" points="57.03 70.46 57.03 77.92 59.74 79.5 59.74 79.82 56.75 78.08 56.75 70.3 57.03 70.46"/><polygon class="cls-9" points="57.03 70.46 59.74 72.03 59.74 79.5 57.03 77.92 57.03 70.46"/><path class="cls-7" d="M40.4,77v8.47L44,87.5V79Zm.29.49,3,1.74V87l-3-1.74Z"/><polygon class="cls-8" points="40.98 77.61 40.98 85.08 43.69 86.65 43.69 86.97 40.69 85.23 40.69 77.45 40.98 77.61"/><polygon class="cls-9" points="40.98 77.61 43.69 79.19 43.69 86.65 40.98 85.08 40.98 77.61"/><path class="cls-7" d="M48.43,81.56V90L52,92.1V83.63Zm.29.49,3,1.74v7.79l-3-1.74Z"/><polygon class="cls-8" points="49.01 82.22 49.01 89.68 51.72 91.25 51.72 91.58 48.72 89.84 48.72 82.05 49.01 82.22"/><polygon class="cls-9" points="49.01 82.22 51.72 83.79 51.72 91.25 49.01 89.68 49.01 82.22"/><path class="cls-7" d="M56.46,86.16v8.48L60,96.71V88.24Zm.29.49,3,1.74v7.79l-3-1.74Z"/><polygon class="cls-8" points="57.03 86.82 57.03 94.28 59.74 95.86 59.74 96.18 56.75 94.44 56.75 86.65 57.03 86.82"/><polygon class="cls-9" points="57.03 86.82 59.74 88.39 59.74 95.86 57.03 94.28 57.03 86.82"/><path class="cls-7" d="M81.11,82.12v8.06l3.4,2V84.09Zm.27.47,2.85,1.65v7.41L81.38,90Z"/><polygon class="cls-8" points="81.65 82.75 81.65 89.84 84.23 91.34 84.23 91.65 81.38 89.99 81.38 82.59 81.65 82.75"/><polygon class="cls-9" points="81.65 82.75 84.23 84.24 84.23 91.34 81.65 89.84 81.65 82.75"/><path class="cls-7" d="M88.74,86.5v8l3.4,2v-8ZM89,87l2.85,1.65V96L89,94.37Z"/><polygon class="cls-8" points="89.28 87.13 89.28 94.22 91.86 95.71 91.86 96.02 89.01 94.37 89.01 86.97 89.28 87.13"/><polygon class="cls-9" points="89.28 87.13 91.86 88.62 91.86 95.71 89.28 94.22 89.28 87.13"/><path class="cls-7" d="M81.11,64V72l3.4,2V66Zm.27.47,2.85,1.65v7.4l-2.85-1.65Z"/><polygon class="cls-8" points="81.65 64.61 81.65 71.71 84.23 73.2 84.23 73.51 81.38 71.86 81.38 64.46 81.65 64.61"/><polygon class="cls-9" points="81.65 64.61 84.23 66.11 84.23 73.2 81.65 71.71 81.65 64.61"/><path class="cls-7" d="M88.74,68.37v8l3.4,2v-8Zm.27.46,2.85,1.66v7.4L89,76.24Z"/><polygon class="cls-8" points="89.28 68.99 89.28 76.08 91.86 77.58 91.86 77.89 89.01 76.24 89.01 68.83 89.28 68.99"/><polygon class="cls-9" points="89.28 68.99 91.86 70.49 91.86 77.58 89.28 76.08 89.28 68.99"/><path class="cls-7" d="M81.11,50.68v8.06l3.4,2V52.65Zm.27.47,2.85,1.66v7.4l-2.85-1.66Z"/><polygon class="cls-8" points="81.65 51.31 81.65 58.4 84.23 59.9 84.23 60.21 81.38 58.55 81.38 51.15 81.65 51.31"/><polygon class="cls-9" points="81.65 51.31 84.23 52.8 84.23 59.9 81.65 58.4 81.65 51.31"/><path class="cls-7" d="M88.74,55.06v8.06l3.4,2V57Zm.27.47,2.85,1.65v7.4L89,62.93Z"/><polygon class="cls-8" points="89.28 55.69 89.28 62.78 91.86 64.28 91.86 64.58 89.01 62.93 89.01 55.53 89.28 55.69"/><polygon class="cls-9" points="89.28 55.69 91.86 57.18 91.86 64.28 89.28 62.78 89.28 55.69"/><path class="cls-10" d="M43.63,100.61a.54.54,0,0,1,.18-.4h0a.54.54,0,0,0-.45.53V112l10,5.77v-.29l-9.7-5.6Z"/><path class="cls-7" d="M52.66,105.32l-8.85-5.11a.54.54,0,0,0-.18.4v11.22l9.7,5.6v-11A1.35,1.35,0,0,0,52.66,105.32Z"/><path class="cls-11" d="M47.58,108.5l.06,0,.1,0a0,0,0,0,0,0-.07,0,0,0,0,0-.06,0l-.1,0s0,0,0,0,0,0,0,0v-.43a.27.27,0,0,1,.14-.23l.06,0a0,0,0,0,0,0-.06s0,0-.06,0l-.06,0a.37.37,0,0,0-.19.32v.43a.14.14,0,0,0,.07.12Z"/><path class="cls-12" d="M47.63,108.53l.06,0,.1-.05a0,0,0,0,0,0-.07,0,0,0,0,0-.06,0l-.1,0s0,0,0,0,0,0,0,0V108a.27.27,0,0,1,.14-.23l.06,0a0,0,0,0,0,0-.06s0,0-.06,0l-.06,0a.37.37,0,0,0-.19.32v.43a.14.14,0,0,0,.07.12Z"/><polygon class="cls-10" points="48.02 114.65 48.02 102.64 47.84 102.53 47.84 114.55 48.02 114.65"/><path class="cls-11" d="M48.14,108.87l.06,0,.1-.06a0,0,0,0,0,0-.06s0,0-.07,0l-.09.05h0s0,0,0,0v-.43a.27.27,0,0,1,.14-.24l.06,0a.06.06,0,0,0,0-.07.07.07,0,0,0-.07,0l-.06,0a.36.36,0,0,0-.19.32v.43a.15.15,0,0,0,.07.12Z"/><path class="cls-12" d="M48.19,108.9l.06,0,.1-.06a0,0,0,0,0,0-.06s0,0-.06,0l-.09.05h0s0,0,0,0v-.43a.27.27,0,0,1,.14-.24l.06,0a0,0,0,0,0,0-.07,0,0,0,0,0-.06,0l-.06,0a.36.36,0,0,0-.19.32v.43a.15.15,0,0,0,.07.12Z"/><path class="cls-10" d="M76.2,103.74a.54.54,0,0,0-.18-.41h0a.55.55,0,0,1,.44.54v11.21l-10,5.77v-.29L76.2,115Z"/><path class="cls-7" d="M67.18,108.44,76,103.33a.54.54,0,0,1,.18.41V115l-9.69,5.6V109.61A1.34,1.34,0,0,1,67.18,108.44Z"/><path class="cls-11" d="M72.26,111.62a.1.1,0,0,1-.07,0l-.09,0a.06.06,0,0,1,0-.07.07.07,0,0,1,.07,0l.09.06s0,0,0,0,0,0,0,0v-.43a.29.29,0,0,0-.14-.24l-.06,0a.07.07,0,0,1,0-.07.05.05,0,0,1,.07,0l.06,0a.4.4,0,0,1,.19.33v.43a.12.12,0,0,1-.07.11A.1.1,0,0,1,72.26,111.62Z"/><path class="cls-12" d="M72.21,111.65a.1.1,0,0,1-.07,0l-.09,0a.06.06,0,0,1,0-.07.07.07,0,0,1,.07,0l.09.06s0,0,0,0,0,0,0,0v-.43a.29.29,0,0,0-.14-.24l-.06,0a.07.07,0,0,1,0-.07.05.05,0,0,1,.07,0l.06,0a.4.4,0,0,1,.19.33v.43a.12.12,0,0,1-.07.11A.1.1,0,0,1,72.21,111.65Z"/><polygon class="cls-10" points="71.82 117.77 71.82 105.76 72 105.65 72 117.67 71.82 117.77"/><path class="cls-11" d="M71.7,112l-.07,0-.09,0a.07.07,0,0,1,0-.07.06.06,0,0,1,.07,0l.09,0s0,0,0,0a0,0,0,0,0,0,0v-.43a.28.28,0,0,0-.13-.23l-.06,0a0,0,0,0,1,0-.06,0,0,0,0,1,.07,0l.06,0a.38.38,0,0,1,.18.32v.43a.13.13,0,0,1-.06.12Z"/><path class="cls-12" d="M71.65,112l-.07,0-.09,0a.07.07,0,0,1,0-.07.06.06,0,0,1,.07,0l.09,0s0,0,0,0a0,0,0,0,0,0,0v-.43a.28.28,0,0,0-.13-.23l-.06,0a0,0,0,0,1,0-.06,0,0,0,0,1,.07,0l.06,0a.38.38,0,0,1,.18.32v.43a.13.13,0,0,1-.06.12Z"/><path class="cls-10" d="M76.2,82.09a.51.51,0,0,0-.18-.4l0,0a.55.55,0,0,1,.44.54V93.42l-10,5.77V98.9l9.69-5.6Z"/><path class="cls-7" d="M67.18,86.79,76,81.69a.51.51,0,0,1,.18.4V93.3l-9.69,5.6V88A1.34,1.34,0,0,1,67.18,86.79Z"/><path class="cls-11" d="M72.26,90a.1.1,0,0,1-.07,0l-.09,0a.06.06,0,0,1,0-.07,0,0,0,0,1,.07,0l.09.05h0a0,0,0,0,0,0,0v-.43a.29.29,0,0,0-.14-.24l-.06,0a.05.05,0,0,1,.05-.09l.06,0a.38.38,0,0,1,.19.32v.43a.12.12,0,0,1-.07.11A.1.1,0,0,1,72.26,90Z"/><path class="cls-12" d="M72.21,90h-.07l-.09-.06a.06.06,0,0,1,0-.07,0,0,0,0,1,.07,0l.09.05h0a0,0,0,0,0,0,0v-.43a.29.29,0,0,0-.14-.24l-.06,0a.05.05,0,0,1,0-.09l.06,0a.38.38,0,0,1,.19.32v.43a.12.12,0,0,1-.07.11A.1.1,0,0,1,72.21,90Z"/><polygon class="cls-10" points="71.82 96.12 71.82 84.11 72 84 72 96.02 71.82 96.12"/><path class="cls-11" d="M71.7,90.34l-.07,0-.09,0a.07.07,0,0,1,0-.07.06.06,0,0,1,.07,0l.09.06s0,0,0,0,0,0,0,0v-.42a.28.28,0,0,0-.13-.24l-.06,0a0,0,0,0,1,0-.06s0,0,.07,0l.06,0a.39.39,0,0,1,.18.33v.42a.13.13,0,0,1-.06.12Z"/><path class="cls-12" d="M71.65,90.37l-.07,0-.09,0a.07.07,0,0,1,0-.07.06.06,0,0,1,.07,0l.09.06s0,0,0,0,0,0,0,0v-.42a.28.28,0,0,0-.13-.24l-.06,0a0,0,0,0,1,0-.06s0,0,.07,0l.06,0a.39.39,0,0,1,.18.33v.42a.13.13,0,0,1-.06.12Z"/><path class="cls-10" d="M76.2,63.55a.54.54,0,0,0-.18-.4h0a.53.53,0,0,1,.44.53V74.89l-10,5.76v-.28l9.69-5.6Z"/><path class="cls-7" d="M67.18,68.26,76,63.15a.54.54,0,0,1,.18.4V74.77l-9.69,5.6v-11A1.33,1.33,0,0,1,67.18,68.26Z"/><path class="cls-11" d="M72.26,71.44l-.07,0-.09,0a.07.07,0,0,1,0-.07.05.05,0,0,1,.07,0l.09,0s0,0,0,0a0,0,0,0,0,0,0v-.43a.27.27,0,0,0-.14-.23l-.06,0a.06.06,0,0,1,0-.07,0,0,0,0,1,.07,0l.06,0a.39.39,0,0,1,.19.32v.43a.15.15,0,0,1-.07.12Z"/><path class="cls-12" d="M72.21,71.47l-.07,0-.09,0a.07.07,0,0,1,0-.07.05.05,0,0,1,.07,0l.09,0s0,0,0,0a0,0,0,0,0,0,0V70.9a.27.27,0,0,0-.14-.23l-.06,0a.06.06,0,0,1,0-.07,0,0,0,0,1,.07,0l.06,0a.39.39,0,0,1,.19.32v.43a.15.15,0,0,1-.07.12Z"/><polygon class="cls-10" points="71.82 77.59 71.82 65.57 72 65.47 72 77.48 71.82 77.59"/><path class="cls-11" d="M71.7,71.8h-.07l-.09-.06a0,0,0,0,1,0-.06,0,0,0,0,1,.07,0l.09,0h0a0,0,0,0,0,0,0v-.43A.28.28,0,0,0,71.6,71l-.06,0a.06.06,0,0,1,0-.07.06.06,0,0,1,.07,0l.06,0a.37.37,0,0,1,.18.32v.43a.14.14,0,0,1-.06.12Z"/><path class="cls-12" d="M71.65,71.83h-.07l-.09-.06a.06.06,0,0,1,0-.07,0,0,0,0,1,.07,0l.09,0h0a0,0,0,0,0,0,0v-.43a.28.28,0,0,0-.13-.24l-.06,0a.07.07,0,0,1,0-.07.06.06,0,0,1,.07,0l.06,0a.37.37,0,0,1,.18.32v.43a.14.14,0,0,1-.06.12Z"/><polygon class="cls-7" points="62.59 101.39 79.08 110.91 95.57 101.39 79.08 91.86 62.59 101.39"/><polygon class="cls-13" points="79.08 110.91 79.08 115.67 62.59 106.15 62.59 101.39 79.08 110.91"/><polygon class="cls-5" points="95.57 101.39 95.57 106.13 79.08 115.67 79.08 110.91 95.57 101.39"/><polygon class="cls-7" points="62.59 82.95 79.08 92.48 95.57 82.95 79.08 73.43 62.59 82.95"/><polygon class="cls-13" points="79.08 92.48 79.08 97.24 62.59 87.72 62.59 82.95 79.08 92.48"/><polygon class="cls-5" points="95.57 82.95 95.57 87.7 79.08 97.24 79.08 92.48 95.57 82.95"/><polygon class="cls-7" points="37.85 37.35 79.08 61.21 128.55 32.59 87.32 9.65 37.85 37.35"/><polygon class="cls-14" points="123.87 33.5 125.65 32.48 87.32 11.46 40.98 37.2 42.74 38.22 87.32 13.46 123.87 33.5"/><polygon class="cls-15" points="123.87 33.5 87.32 13.46 42.74 38.22 79.04 59.23 123.87 33.5"/><polygon class="cls-4" points="79.08 61.21 79.08 65.97 62.59 56.45 62.59 51.69 79.08 61.21"/><polygon class="cls-5" points="95.57 51.69 95.57 56.44 79.08 65.97 79.08 61.21 95.57 51.69"/><path class="cls-16" d="M79.08,110.53a.15.15,0,0,1-.14-.15v-2.44a.15.15,0,0,1,.07-.13l15.78-9a.12.12,0,0,1,.14,0,.15.15,0,0,1,.07.12v2.49a.14.14,0,0,1-.28,0V99.15L79.22,108v2.36A.15.15,0,0,1,79.08,110.53Z"/><path class="cls-16" d="M93.06,102.59a.15.15,0,0,1-.15-.14V100a.15.15,0,0,1,.15-.14.15.15,0,0,1,.14.14v2.47A.15.15,0,0,1,93.06,102.59Z"/><path class="cls-16" d="M91.11,103.82a.14.14,0,0,1-.14-.14v-2.47a.14.14,0,0,1,.28,0v2.47A.14.14,0,0,1,91.11,103.82Z"/><path class="cls-16" d="M89.17,104.79a.15.15,0,0,1-.14-.15v-2.46a.14.14,0,0,1,.28,0v2.46A.15.15,0,0,1,89.17,104.79Z"/><path class="cls-16" d="M87.22,106a.15.15,0,0,1-.14-.15v-2.46a.14.14,0,0,1,.28,0v2.46A.15.15,0,0,1,87.22,106Z"/><path class="cls-16" d="M85.28,107.08a.14.14,0,0,1-.14-.14v-2.46a.14.14,0,1,1,.28,0v2.46A.14.14,0,0,1,85.28,107.08Z"/><path class="cls-16" d="M83.33,108.24a.14.14,0,0,1-.14-.14v-2.46a.14.14,0,0,1,.14-.14.15.15,0,0,1,.15.14v2.46A.15.15,0,0,1,83.33,108.24Z"/><path class="cls-16" d="M81.39,109.34a.14.14,0,0,1-.14-.14v-2.47a.14.14,0,0,1,.28,0v2.47A.14.14,0,0,1,81.39,109.34Z"/><path class="cls-16" d="M79.08,110.5a.14.14,0,0,1-.14-.14V108l-15.5-8.88v2.24a.14.14,0,0,1-.14.14.15.15,0,0,1-.15-.14V98.88a.14.14,0,0,1,.07-.12.14.14,0,0,1,.15,0l15.78,9a.15.15,0,0,1,.07.12v2.45A.14.14,0,0,1,79.08,110.5Z"/><path class="cls-16" d="M65.1,102.56a.14.14,0,0,1-.14-.14V100a.14.14,0,1,1,.28,0v2.46A.14.14,0,0,1,65.1,102.56Z"/><path class="cls-16" d="M67,103.79a.14.14,0,0,1-.14-.14v-2.46a.14.14,0,0,1,.14-.14.14.14,0,0,1,.14.14v2.46A.14.14,0,0,1,67,103.79Z"/><path class="cls-16" d="M69,104.76a.14.14,0,0,1-.14-.14v-2.46a.14.14,0,0,1,.28,0v2.46A.14.14,0,0,1,69,104.76Z"/><path class="cls-16" d="M70.93,106a.14.14,0,0,1-.14-.14v-2.46a.14.14,0,0,1,.28,0v2.46A.14.14,0,0,1,70.93,106Z"/><path class="cls-16" d="M72.88,107.06a.15.15,0,0,1-.15-.15v-2.46a.15.15,0,0,1,.15-.14.14.14,0,0,1,.14.14v2.46A.15.15,0,0,1,72.88,107.06Z"/><path class="cls-16" d="M74.82,108.22a.14.14,0,0,1-.14-.14v-2.47a.14.14,0,1,1,.28,0v2.47A.14.14,0,0,1,74.82,108.22Z"/><path class="cls-16" d="M76.76,109.31a.14.14,0,0,1-.14-.14v-2.46a.14.14,0,0,1,.14-.14.15.15,0,0,1,.15.14v2.46A.15.15,0,0,1,76.76,109.31Z"/><path class="cls-16" d="M79.08,91.77a.14.14,0,0,1-.14-.14V89.19a.15.15,0,0,1,.07-.13l15.78-9a.12.12,0,0,1,.14,0,.14.14,0,0,1,.07.12v2.48a.14.14,0,1,1-.28,0V80.4l-15.5,8.87v2.36A.14.14,0,0,1,79.08,91.77Z"/><path class="cls-16" d="M93.06,83.84a.15.15,0,0,1-.15-.15V81.23a.15.15,0,0,1,.15-.14.14.14,0,0,1,.14.14v2.46A.15.15,0,0,1,93.06,83.84Z"/><path class="cls-16" d="M91.11,85.07a.14.14,0,0,1-.14-.14V82.46a.14.14,0,0,1,.28,0v2.47A.14.14,0,0,1,91.11,85.07Z"/><path class="cls-16" d="M89.17,86a.14.14,0,0,1-.14-.14V83.43a.14.14,0,0,1,.28,0v2.46A.14.14,0,0,1,89.17,86Z"/><path class="cls-16" d="M87.22,87.27a.15.15,0,0,1-.14-.15V84.66a.14.14,0,0,1,.28,0v2.46A.15.15,0,0,1,87.22,87.27Z"/><path class="cls-16" d="M85.28,88.33a.14.14,0,0,1-.14-.14V85.72a.14.14,0,0,1,.28,0v2.47A.14.14,0,0,1,85.28,88.33Z"/><path class="cls-16" d="M83.33,89.49a.14.14,0,0,1-.14-.14V86.89a.15.15,0,1,1,.29,0v2.46A.15.15,0,0,1,83.33,89.49Z"/><path class="cls-16" d="M81.39,90.59a.15.15,0,0,1-.14-.15V88a.14.14,0,0,1,.28,0v2.46A.15.15,0,0,1,81.39,90.59Z"/><path class="cls-16" d="M79.08,91.75a.14.14,0,0,1-.14-.14V89.24l-15.5-8.87v2.24a.14.14,0,0,1-.14.14.15.15,0,0,1-.15-.14V80.13a.17.17,0,0,1,.07-.13.19.19,0,0,1,.15,0l15.78,9a.14.14,0,0,1,.07.12v2.45A.14.14,0,0,1,79.08,91.75Z"/><path class="cls-16" d="M65.1,83.81a.14.14,0,0,1-.14-.14V81.21a.14.14,0,1,1,.28,0v2.46A.14.14,0,0,1,65.1,83.81Z"/><path class="cls-16" d="M67,85a.14.14,0,0,1-.14-.14V82.44A.14.14,0,0,1,67,82.3a.14.14,0,0,1,.14.14V84.9A.14.14,0,0,1,67,85Z"/><path class="cls-16" d="M69,86a.14.14,0,0,1-.14-.14V83.41a.14.14,0,1,1,.28,0v2.46A.14.14,0,0,1,69,86Z"/><path class="cls-16" d="M70.93,87.24a.14.14,0,0,1-.14-.14V84.64a.14.14,0,1,1,.28,0V87.1A.14.14,0,0,1,70.93,87.24Z"/><path class="cls-16" d="M72.88,88.3a.15.15,0,0,1-.15-.14V85.7a.15.15,0,0,1,.15-.14.14.14,0,0,1,.14.14v2.46A.14.14,0,0,1,72.88,88.3Z"/><path class="cls-16" d="M74.82,89.47a.15.15,0,0,1-.14-.15V86.86a.14.14,0,1,1,.28,0v2.46A.15.15,0,0,1,74.82,89.47Z"/><path class="cls-16" d="M76.76,90.56a.14.14,0,0,1-.14-.14V88a.14.14,0,0,1,.14-.14.15.15,0,0,1,.15.14v2.46A.15.15,0,0,1,76.76,90.56Z"/><polygon class="cls-17" points="49.3 36.03 53.16 37.22 53.16 38.27 49.3 40.49 45.42 38.26 45.42 37.22 49.3 36.03"/><polygon class="cls-18" points="49.3 34.98 53.16 37.22 49.3 39.44 45.42 37.22 49.3 34.98"/><polygon class="cls-19" points="49.28 35.41 52.41 37.08 52.41 37.22 49.28 39.02 46.14 37.22 46.14 37.07 49.28 35.41"/><polygon class="cls-17" points="49.28 35.26 52.41 37.08 49.28 38.88 46.14 37.07 49.28 35.26"/><ellipse class="cls-18" cx="49.29" cy="37.11" rx="1.81" ry="1.06" transform="translate(-0.26 0.35) rotate(-0.41)"/><ellipse class="cls-19" cx="49.29" cy="36.97" rx="1.81" ry="1.06" transform="translate(-0.26 0.35) rotate(-0.41)"/><path class="cls-18" d="M49.28,37.93a2.32,2.32,0,0,1-1-.22.92.92,0,0,1-.59-.69.77.77,0,0,1,.39-.67,2.47,2.47,0,0,1,2.28-.13.92.92,0,0,1,.59.69.78.78,0,0,1-.39.68A2.29,2.29,0,0,1,49.28,37.93Zm0-1.89a2.22,2.22,0,0,0-1.23.34.73.73,0,0,0-.37.64.91.91,0,0,0,.56.66,2.44,2.44,0,0,0,2.25-.13v0a.71.71,0,0,0,.37-.63.88.88,0,0,0-.56-.66A2.31,2.31,0,0,0,49.3,36Z"/><path class="cls-18" d="M49.27,37.82a2,2,0,0,1-.9-.19.78.78,0,0,1-.51-.61.66.66,0,0,1,.33-.59,2.16,2.16,0,0,1,2-.11.8.8,0,0,1,.51.61.68.68,0,0,1-.33.59l0,0,0,0A2,2,0,0,1,49.27,37.82Zm0-1.66a1.93,1.93,0,0,0-1.08.3.61.61,0,0,0-.32.56.73.73,0,0,0,.49.57,2.11,2.11,0,0,0,2-.11h0a.6.6,0,0,0,.32-.55.76.76,0,0,0-.49-.58A2.14,2.14,0,0,0,49.3,36.16Z"/><path class="cls-18" d="M49.26,37.67a1.88,1.88,0,0,1-.76-.16.71.71,0,0,1-.43-.51.59.59,0,0,1,.29-.5A1.79,1.79,0,0,1,50,36.41a.65.65,0,0,1,.43.51.53.53,0,0,1-.28.49h0A1.63,1.63,0,0,1,49.26,37.67Zm0-1.38a1.61,1.61,0,0,0-.9.24.56.56,0,0,0-.27.46.66.66,0,0,0,.41.48,1.78,1.78,0,0,0,1.64-.09h0a.51.51,0,0,0,.26-.46.64.64,0,0,0-.4-.48A1.81,1.81,0,0,0,49.28,36.29Z"/><path class="cls-18" d="M49.28,37.54a1.36,1.36,0,0,1-.61-.13.54.54,0,0,1-.34-.41.49.49,0,0,1,.22-.4,1.49,1.49,0,0,1,1.35-.07.54.54,0,0,1,.34.41.45.45,0,0,1-.23.4A1.33,1.33,0,0,1,49.28,37.54Zm0-1.1a1.26,1.26,0,0,0-.71.2.4.4,0,0,0-.21.36.51.51,0,0,0,.32.38,1.42,1.42,0,0,0,1.3-.07.43.43,0,0,0,.21-.37.5.5,0,0,0-.32-.37A1.28,1.28,0,0,0,49.29,36.44Z"/><path class="cls-18" d="M49.28,37.39a1,1,0,0,1-.44-.09.44.44,0,0,1-.26-.3.33.33,0,0,1,.17-.3,1.06,1.06,0,0,1,1-.05A.37.37,0,0,1,50,37a.33.33,0,0,1-.16.29A1,1,0,0,1,49.28,37.39Zm0-.8a1,1,0,0,0-.52.14.34.34,0,0,0-.15.26c0,.11.1.2.24.27a1,1,0,0,0,.93,0,.28.28,0,0,0,.15-.26c0-.1-.09-.2-.23-.27A1,1,0,0,0,49.29,36.59Z"/><path class="cls-18" d="M49.39,36.87a2.48,2.48,0,0,1,1.31-.36.73.73,0,0,1,.16.25,2.35,2.35,0,0,0-1.38.21Z"/><path class="cls-18" d="M49.48,37s1,.14,1.19.47a1.6,1.6,0,0,1-.3.21s-.07-.35-1-.59Z"/><path class="cls-18" d="M49.38,37.07s.29.58-.12.84a2.81,2.81,0,0,1-.45,0,.71.71,0,0,0,.37-.8Z"/><path class="cls-18" d="M49.18,37.07a2.45,2.45,0,0,1-1.29.37.69.69,0,0,1-.17-.25A2.39,2.39,0,0,0,49.09,37Z"/><path class="cls-18" d="M49.09,37s-1-.14-1.18-.48a1.35,1.35,0,0,1,.29-.21s.07.36,1,.59Z"/><path class="cls-18" d="M49.19,36.87s-.28-.59.13-.85a2.26,2.26,0,0,1,.45,0,.72.72,0,0,0-.38.8Z"/><ellipse class="cls-18" cx="49.29" cy="36.97" rx="0.21" ry="0.12" transform="translate(-0.26 0.35) rotate(-0.41)"/><ellipse class="cls-19" cx="49.29" cy="36.97" rx="0.13" ry="0.08" transform="translate(-0.26 0.35) rotate(-0.41)"/><ellipse class="cls-19" cx="49.27" cy="35.37" rx="0.05" ry="0.02"/><ellipse class="cls-18" cx="49.27" cy="35.34" rx="0.06" ry="0.03"/><ellipse class="cls-19" cx="46.31" cy="37.08" rx="0.05" ry="0.02"/><ellipse class="cls-18" cx="46.31" cy="37.05" rx="0.06" ry="0.03"/><ellipse class="cls-19" cx="49.27" cy="38.79" rx="0.05" ry="0.02"/><ellipse class="cls-18" cx="49.27" cy="38.76" rx="0.06" ry="0.03"/><ellipse class="cls-19" cx="52.26" cy="37.09" rx="0.05" ry="0.02"/><ellipse class="cls-18" cx="52.26" cy="37.06" rx="0.06" ry="0.03"/><polygon class="cls-17" points="55.16 32.81 59.02 34.01 59.02 35.05 55.16 37.27 51.29 35.05 51.29 34 55.16 32.81"/><polygon class="cls-18" points="55.16 31.77 59.02 34.01 55.16 36.23 51.29 34 55.16 31.77"/><polygon class="cls-19" points="55.14 32.19 58.27 33.86 58.27 34.01 55.14 35.81 52 34 52 33.86 55.14 32.19"/><polygon class="cls-17" points="55.14 32.05 58.27 33.86 55.14 35.66 52 33.86 55.14 32.05"/><ellipse class="cls-18" cx="55.15" cy="33.89" rx="1.81" ry="1.06" transform="translate(-0.24 0.39) rotate(-0.41)"/><ellipse class="cls-19" cx="55.15" cy="33.75" rx="1.81" ry="1.06" transform="translate(-0.24 0.39) rotate(-0.41)"/><path class="cls-18" d="M55.14,34.71a2.5,2.5,0,0,1-1-.21.92.92,0,0,1-.58-.7.76.76,0,0,1,.38-.67A2.52,2.52,0,0,1,56.2,33a.93.93,0,0,1,.58.7.78.78,0,0,1-.38.67A2.24,2.24,0,0,1,55.14,34.71Zm0-1.88a2.17,2.17,0,0,0-1.24.34.72.72,0,0,0-.36.63.86.86,0,0,0,.56.66,2.45,2.45,0,0,0,2.24-.12h0a.73.73,0,0,0,.37-.64.89.89,0,0,0-.56-.66A2.4,2.4,0,0,0,55.17,32.83Z"/><path class="cls-18" d="M55.14,34.6a2.12,2.12,0,0,1-.91-.19.8.8,0,0,1-.51-.61.67.67,0,0,1,.34-.59,2.19,2.19,0,0,1,2-.11.81.81,0,0,1,.52.61.72.72,0,0,1-.34.59v0A2,2,0,0,1,55.14,34.6Zm0-1.65a2,2,0,0,0-1.08.29.65.65,0,0,0-.32.56.8.8,0,0,0,.49.58,2.2,2.2,0,0,0,2-.11h0a.67.67,0,0,0,.32-.56.8.8,0,0,0-.49-.58A2.18,2.18,0,0,0,55.16,33Z"/><path class="cls-18" d="M55.12,34.45a1.71,1.71,0,0,1-.75-.16.65.65,0,0,1-.43-.51.55.55,0,0,1,.28-.5,1.87,1.87,0,0,1,1.68-.09.71.71,0,0,1,.43.51.6.6,0,0,1-.28.5h0A1.72,1.72,0,0,1,55.12,34.45Zm0-1.38a1.56,1.56,0,0,0-.9.25.51.51,0,0,0-.26.46.61.61,0,0,0,.41.47A1.76,1.76,0,0,0,56,34.16h0a.52.52,0,0,0,.27-.46.66.66,0,0,0-.41-.47A1.67,1.67,0,0,0,55.14,33.07Z"/><path class="cls-18" d="M55.14,34.33a1.47,1.47,0,0,1-.6-.13.54.54,0,0,1-.35-.41.45.45,0,0,1,.23-.4,1.47,1.47,0,0,1,1.34-.08.56.56,0,0,1,.35.41.45.45,0,0,1-.23.4A1.29,1.29,0,0,1,55.14,34.33Zm0-1.11a1.27,1.27,0,0,0-.72.2.4.4,0,0,0-.21.36.5.5,0,0,0,.32.38,1.44,1.44,0,0,0,1.31-.07.42.42,0,0,0,.21-.36.51.51,0,0,0-.33-.38A1.41,1.41,0,0,0,55.16,33.22Z"/><path class="cls-18" d="M55.14,34.17a1.08,1.08,0,0,1-.44-.09.39.39,0,0,1-.25-.3.35.35,0,0,1,.16-.3,1.09,1.09,0,0,1,1,0,.38.38,0,0,1,.26.3.34.34,0,0,1-.17.3A1,1,0,0,1,55.14,34.17Zm0-.79a.85.85,0,0,0-.51.14.27.27,0,0,0-.15.26.37.37,0,0,0,.23.27,1,1,0,0,0,.94-.06.29.29,0,0,0,.15-.25.37.37,0,0,0-.23-.28A1,1,0,0,0,55.15,33.38Z"/><path class="cls-18" d="M55.25,33.66a2.57,2.57,0,0,1,1.32-.37.93.93,0,0,1,.16.25,2.42,2.42,0,0,0-1.38.22Z"/><path class="cls-18" d="M55.35,33.76s1,.14,1.18.48a1.15,1.15,0,0,1-.29.2s-.08-.35-1-.58Z"/><path class="cls-18" d="M55.24,33.86s.29.57-.11.84a2.4,2.4,0,0,1-.46-.05.71.71,0,0,0,.38-.79Z"/><path class="cls-18" d="M55,33.85a2.33,2.33,0,0,1-1.29.37.73.73,0,0,1-.16-.25A2.35,2.35,0,0,0,55,33.75Z"/><path class="cls-18" d="M55,33.75s-1-.14-1.18-.48a1.35,1.35,0,0,1,.29-.21s.08.36,1,.59Z"/><path class="cls-18" d="M55.05,33.65s-.27-.58.13-.84a3,3,0,0,1,.46,0,.72.72,0,0,0-.39.81Z"/><ellipse class="cls-18" cx="55.15" cy="33.75" rx="0.21" ry="0.12" transform="translate(-0.24 0.39) rotate(-0.41)"/><ellipse class="cls-19" cx="55.15" cy="33.75" rx="0.13" ry="0.08" transform="translate(-0.24 0.39) rotate(-0.41)"/><ellipse class="cls-19" cx="55.14" cy="32.16" rx="0.05" ry="0.02"/><ellipse class="cls-18" cx="55.14" cy="32.13" rx="0.06" ry="0.03"/><ellipse class="cls-19" cx="52.17" cy="33.87" rx="0.05" ry="0.02"/><ellipse class="cls-18" cx="52.17" cy="33.84" rx="0.06" ry="0.03"/><ellipse class="cls-19" cx="55.14" cy="35.57" rx="0.05" ry="0.02"/><ellipse class="cls-18" cx="55.14" cy="35.54" rx="0.06" ry="0.03"/><ellipse class="cls-19" cx="58.12" cy="33.87" rx="0.05" ry="0.02"/><ellipse class="cls-18" cx="58.12" cy="33.84" rx="0.06" ry="0.03"/><polygon class="cls-17" points="61.13 29.71 64.99 30.91 64.99 31.95 61.13 34.17 57.25 31.95 57.25 30.9 61.13 29.71"/><polygon class="cls-18" points="61.13 28.67 64.99 30.91 61.13 33.13 57.25 30.9 61.13 28.67"/><polygon class="cls-19" points="61.11 29.09 64.24 30.76 64.24 30.91 61.11 32.71 57.97 30.9 57.97 30.76 61.11 29.09"/><polygon class="cls-17" points="61.11 28.95 64.24 30.76 61.11 32.56 57.97 30.76 61.11 28.95"/><ellipse class="cls-18" cx="61.12" cy="30.79" rx="1.81" ry="1.06" transform="translate(-0.22 0.44) rotate(-0.41)"/><ellipse class="cls-19" cx="61.12" cy="30.65" rx="1.81" ry="1.06" transform="translate(-0.22 0.44) rotate(-0.41)"/><path class="cls-18" d="M61.11,31.62a2.47,2.47,0,0,1-1-.22.94.94,0,0,1-.59-.69.78.78,0,0,1,.39-.68,2.47,2.47,0,0,1,2.28-.12.92.92,0,0,1,.59.69.78.78,0,0,1-.38.67A2.27,2.27,0,0,1,61.11,31.62Zm0-1.89a2.16,2.16,0,0,0-1.23.34.75.75,0,0,0-.37.63.87.87,0,0,0,.57.66,2.45,2.45,0,0,0,2.24-.12h0a.73.73,0,0,0,.37-.64.91.91,0,0,0-.56-.66A2.45,2.45,0,0,0,61.13,29.73Z"/><path class="cls-18" d="M61.1,31.5a2,2,0,0,1-.9-.19.78.78,0,0,1-.51-.61.68.68,0,0,1,.33-.59A2.22,2.22,0,0,1,62,30a.78.78,0,0,1,.51.61.67.67,0,0,1-.33.59v0A2,2,0,0,1,61.1,31.5Zm0-1.65a1.86,1.86,0,0,0-1.08.3.6.6,0,0,0-.32.55.76.76,0,0,0,.49.58,2.14,2.14,0,0,0,2-.11h0a.62.62,0,0,0,.32-.56A.73.73,0,0,0,62,30,2,2,0,0,0,61.13,29.85Z"/><path class="cls-18" d="M61.09,31.35a1.73,1.73,0,0,1-.76-.16.69.69,0,0,1-.43-.51.56.56,0,0,1,.29-.49,1.82,1.82,0,0,1,1.67-.1.66.66,0,0,1,.43.51.55.55,0,0,1-.28.5h0A1.71,1.71,0,0,1,61.09,31.35Zm0-1.38a1.61,1.61,0,0,0-.9.25.55.55,0,0,0-.27.46.68.68,0,0,0,.41.48,1.78,1.78,0,0,0,1.64-.1h0a.51.51,0,0,0,.26-.45.62.62,0,0,0-.4-.48A1.67,1.67,0,0,0,61.11,30Z"/><path class="cls-18" d="M61.11,31.23a1.51,1.51,0,0,1-.61-.13.54.54,0,0,1-.34-.41.46.46,0,0,1,.22-.4,1.49,1.49,0,0,1,1.35-.08.54.54,0,0,1,.34.41.46.46,0,0,1-.22.4A1.29,1.29,0,0,1,61.11,31.23Zm0-1.1a1.26,1.26,0,0,0-.71.19.4.4,0,0,0-.21.36.5.5,0,0,0,.32.38,1.41,1.41,0,0,0,1.3-.07.4.4,0,0,0,.21-.36.5.5,0,0,0-.32-.38A1.41,1.41,0,0,0,61.12,30.13Z"/><path class="cls-18" d="M61.11,31.08a.92.92,0,0,1-.44-.1.4.4,0,0,1-.26-.3.36.36,0,0,1,.17-.29,1.06,1.06,0,0,1,1-.06.4.4,0,0,1,.26.3.38.38,0,0,1-.17.3A1,1,0,0,1,61.11,31.08Zm0-.8a.9.9,0,0,0-.52.14.31.31,0,0,0-.15.26.39.39,0,0,0,.24.27,1,1,0,0,0,.94-.06.31.31,0,0,0,.15-.25.36.36,0,0,0-.24-.27A1,1,0,0,0,61.12,30.28Z"/><path class="cls-18" d="M61.22,30.56a2.55,2.55,0,0,1,1.31-.37.73.73,0,0,1,.16.25,2.42,2.42,0,0,0-1.38.22Z"/><path class="cls-18" d="M61.31,30.66s1,.14,1.19.48a1.6,1.6,0,0,1-.3.21s-.07-.36-1-.59Z"/><path class="cls-18" d="M61.21,30.76s.29.58-.11.84a2.89,2.89,0,0,1-.46,0,.72.72,0,0,0,.37-.8Z"/><path class="cls-18" d="M61,30.76a2.39,2.39,0,0,1-1.29.36.86.86,0,0,1-.17-.25,2.32,2.32,0,0,0,1.37-.21Z"/><path class="cls-18" d="M60.92,30.65s-1-.14-1.18-.48A1.35,1.35,0,0,1,60,30s.07.36,1,.6Z"/><path class="cls-18" d="M61,30.55s-.28-.58.13-.84a2.81,2.81,0,0,1,.45,0,.72.72,0,0,0-.38.81Z"/><ellipse class="cls-18" cx="61.12" cy="30.65" rx="0.21" ry="0.12" transform="translate(-0.22 0.44) rotate(-0.41)"/><ellipse class="cls-19" cx="61.12" cy="30.65" rx="0.13" ry="0.08" transform="translate(-0.22 0.44) rotate(-0.41)"/><ellipse class="cls-19" cx="61.1" cy="29.06" rx="0.05" ry="0.02"/><ellipse class="cls-18" cx="61.1" cy="29.03" rx="0.06" ry="0.03"/><ellipse class="cls-19" cx="58.14" cy="30.77" rx="0.05" ry="0.02"/><ellipse class="cls-18" cx="58.14" cy="30.74" rx="0.06" ry="0.03"/><ellipse class="cls-19" cx="61.1" cy="32.48" rx="0.05" ry="0.02"/><ellipse class="cls-18" cx="61.1" cy="32.44" rx="0.06" ry="0.03"/><ellipse class="cls-19" cx="64.09" cy="30.77" rx="0.05" ry="0.02"/><ellipse class="cls-18" cx="64.09" cy="30.74" rx="0.06" ry="0.03"/><polygon class="cls-17" points="66.71 26.43 70.58 27.63 70.58 28.67 66.71 30.89 62.84 28.66 62.84 27.62 66.71 26.43"/><polygon class="cls-18" points="66.71 25.38 70.58 27.63 66.71 29.84 62.84 27.62 66.71 25.38"/><polygon class="cls-19" points="66.69 25.81 69.83 27.48 69.83 27.63 66.69 29.43 63.56 27.62 63.56 27.48 66.69 25.81"/><polygon class="cls-17" points="66.69 25.66 69.83 27.48 66.69 29.28 63.56 27.48 66.69 25.66"/><ellipse class="cls-18" cx="66.71" cy="27.51" rx="1.81" ry="1.06" transform="translate(-0.19 0.48) rotate(-0.41)"/><ellipse class="cls-19" cx="66.71" cy="27.37" rx="1.81" ry="1.06" transform="translate(-0.19 0.48) rotate(-0.41)"/><path class="cls-18" d="M66.69,28.33a2.45,2.45,0,0,1-1-.21.93.93,0,0,1-.59-.7.78.78,0,0,1,.38-.67,2.52,2.52,0,0,1,2.29-.13,1,1,0,0,1,.59.7A.77.77,0,0,1,68,28,2.22,2.22,0,0,1,66.69,28.33Zm0-1.88a2.14,2.14,0,0,0-1.23.34.7.7,0,0,0-.37.63.88.88,0,0,0,.56.66A2.47,2.47,0,0,0,67.93,28h0a.77.77,0,0,0,.37-.64.87.87,0,0,0-.57-.66A2.37,2.37,0,0,0,66.72,26.45Z"/><path class="cls-18" d="M66.69,28.22a2,2,0,0,1-.9-.19.81.81,0,0,1-.52-.61.72.72,0,0,1,.34-.59,2.19,2.19,0,0,1,2-.11.8.8,0,0,1,.51.61.67.67,0,0,1-.34.59v0A2,2,0,0,1,66.69,28.22Zm0-1.65a2,2,0,0,0-1.08.29.67.67,0,0,0-.32.56.77.77,0,0,0,.49.57,2.16,2.16,0,0,0,2-.1h0a.65.65,0,0,0,.32-.56.78.78,0,0,0-.49-.58A2.14,2.14,0,0,0,66.71,26.57Z"/><path class="cls-18" d="M66.68,28.07a1.73,1.73,0,0,1-.76-.16.71.71,0,0,1-.43-.51.59.59,0,0,1,.29-.5,1.82,1.82,0,0,1,1.67-.09.66.66,0,0,1,.43.51.55.55,0,0,1-.28.5h0A1.71,1.71,0,0,1,66.68,28.07Zm0-1.38a1.54,1.54,0,0,0-.9.25.52.52,0,0,0-.27.46.66.66,0,0,0,.41.47,1.78,1.78,0,0,0,1.64-.09h0a.51.51,0,0,0,.26-.46.61.61,0,0,0-.41-.47A1.6,1.6,0,0,0,66.7,26.69Z"/><path class="cls-18" d="M66.69,27.94a1.5,1.5,0,0,1-.6-.12.52.52,0,0,1-.34-.41A.42.42,0,0,1,66,27a1.47,1.47,0,0,1,1.34-.08.54.54,0,0,1,.35.41.45.45,0,0,1-.23.4A1.26,1.26,0,0,1,66.69,27.94Zm0-1.1A1.24,1.24,0,0,0,66,27a.38.38,0,0,0-.21.36.48.48,0,0,0,.32.38,1.42,1.42,0,0,0,1.3-.07.4.4,0,0,0,.21-.36A.5.5,0,0,0,67.3,27,1.28,1.28,0,0,0,66.71,26.84Z"/><path class="cls-18" d="M66.7,27.79a1,1,0,0,1-.44-.09.38.38,0,0,1-.26-.3.34.34,0,0,1,.17-.3,1.06,1.06,0,0,1,1-.05.39.39,0,0,1,.25.3.35.35,0,0,1-.16.3A1,1,0,0,1,66.7,27.79Zm0-.8a.91.91,0,0,0-.52.15.29.29,0,0,0-.15.25.34.34,0,0,0,.23.27,1,1,0,0,0,.94-.05.27.27,0,0,0,.15-.26c0-.1-.09-.2-.23-.27A1,1,0,0,0,66.71,27Z"/><path class="cls-18" d="M66.81,27.28a2.55,2.55,0,0,1,1.31-.37.73.73,0,0,1,.16.25,2.42,2.42,0,0,0-1.38.22Z"/><path class="cls-18" d="M66.9,27.38s1,.14,1.18.47a1,1,0,0,1-.29.21s-.08-.35-1-.58Z"/><path class="cls-18" d="M66.8,27.48s.29.57-.12.83a1.91,1.91,0,0,1-.45,0,.71.71,0,0,0,.37-.8Z"/><path class="cls-18" d="M66.6,27.47a2.36,2.36,0,0,1-1.29.37.69.69,0,0,1-.17-.25,2.39,2.39,0,0,0,1.37-.22Z"/><path class="cls-18" d="M66.51,27.37s-1-.14-1.18-.48a1.35,1.35,0,0,1,.29-.21s.07.36,1,.59Z"/><path class="cls-18" d="M66.61,27.27s-.28-.58.13-.85a3.62,3.62,0,0,1,.45,0,.73.73,0,0,0-.39.8Z"/><ellipse class="cls-18" cx="66.71" cy="27.37" rx="0.21" ry="0.12" transform="translate(-0.19 0.48) rotate(-0.41)"/><ellipse class="cls-19" cx="66.71" cy="27.37" rx="0.13" ry="0.08" transform="translate(-0.19 0.48) rotate(-0.41)"/><ellipse class="cls-19" cx="66.69" cy="25.78" rx="0.05" ry="0.02"/><ellipse class="cls-18" cx="66.69" cy="25.74" rx="0.06" ry="0.03"/><ellipse class="cls-19" cx="63.72" cy="27.48" rx="0.05" ry="0.02"/><ellipse class="cls-18" cx="63.72" cy="27.45" rx="0.06" ry="0.03"/><ellipse class="cls-19" cx="66.69" cy="29.19" rx="0.05" ry="0.02"/><ellipse class="cls-18" cx="66.69" cy="29.16" rx="0.06" ry="0.03"/><ellipse class="cls-19" cx="69.68" cy="27.49" rx="0.05" ry="0.02"/><ellipse class="cls-18" cx="69.68" cy="27.46" rx="0.06" ry="0.03"/><g class="cls-20"><g class="cls-20"><g class="cls-21"><g class="cls-20"><path class="cls-22" d="M73.05,142.52v1.3a1.05,1.05,0,0,0-.61-.85,2.09,2.09,0,0,0-.3-.14v-1.3a2.1,2.1,0,0,1,.3.15,1,1,0,0,1,.6.84"/><path class="cls-23" d="M72.15,141.53v1.3l-.25-.08v-1.3l.25.08"/><path class="cls-24" d="M71.9,141.45v1.3l-.21-.06V141.4l.22,0"/><path class="cls-25" d="M71.68,141.4v1.29l-.21,0v-1.3l.2,0"/><path class="cls-26" d="M71.48,141.36v1.3l-.19,0v-1.3l.2,0"/><path class="cls-27" d="M71.28,141.34v1.3l-.21,0v-1.29h.2"/><path class="cls-28" d="M71.08,141.33v1.29h-.2v-1.3h.21"/><path class="cls-29" d="M70.87,141.33v1.3h-.23v-1.3h.23"/><path class="cls-30" d="M70.64,141.34v1.3l-.26,0v-1.3l.26,0"/><path class="cls-31" d="M70.38,141.38v1.3a2.23,2.23,0,0,0-.39.09v-1.29a2.79,2.79,0,0,1,.39-.1"/><path class="cls-32" d="M70,141.48v1.29a3.19,3.19,0,0,0-.46.2l0,0v-1.3h0a2.28,2.28,0,0,1,.45-.2"/><path class="cls-31" d="M69.51,141.69V143a1.34,1.34,0,0,0-.26.19v-1.3a1.74,1.74,0,0,1,.26-.19"/><path class="cls-30" d="M69.25,141.88v1.3a.86.86,0,0,0-.13.14V142a1.49,1.49,0,0,1,.12-.14"/><path class="cls-29" d="M69.13,142v1.3l-.08.12v-1.3l.08-.12"/><path class="cls-28" d="M69.05,142.14v1.3l-.05.11v-1.29a.67.67,0,0,1,.06-.12"/><path class="cls-27" d="M69,142.26v1.29a.56.56,0,0,0,0,.12v-1.3l0-.11"/><path class="cls-26" d="M69,142.37v1.3s0,.08,0,.12v-1.3s0-.08,0-.12"/><path class="cls-25" d="M68.94,142.49v0"/></g></g></g><g class="cls-20"><g class="cls-33"><g class="cls-20"><path class="cls-25" d="M73.74,142.52v0"/><path class="cls-26" d="M73.74,142.55v1.29a.41.41,0,0,1,0,.16v-1.3s0-.1,0-.15"/></g></g></g><g class="cls-20"><g class="cls-34"><g class="cls-20"><path class="cls-22" d="M69.46,143.83v1.29a2.87,2.87,0,0,1-.4-.18,1.4,1.4,0,0,1-.81-1.14v-1.29a1.4,1.4,0,0,0,.81,1.13,3.54,3.54,0,0,0,.39.19"/></g></g></g><g class="cls-20"><g class="cls-35"><g class="cls-20"><path class="cls-36" d="M73.05,142.52v1.3h0v-1.31"/><path class="cls-37" d="M73.05,142.54v1.29s0,.08,0,.12v-1.3s0-.07,0-.11"/><path class="cls-38" d="M73,142.65V144l0,.12v-1.3a.56.56,0,0,0,0-.12"/><path class="cls-39" d="M73,142.77v1.3a.39.39,0,0,1-.06.11v-1.29a.61.61,0,0,0,0-.12"/><path class="cls-40" d="M73,142.89v1.29a.57.57,0,0,1-.08.13V143a.94.94,0,0,0,.09-.12"/><path class="cls-41" d="M72.86,143v1.3a1.59,1.59,0,0,1-.13.13v-1.29a.75.75,0,0,0,.12-.14"/><path class="cls-42" d="M72.74,143.15v1.29a1.37,1.37,0,0,1-.26.2v-1.3a1.43,1.43,0,0,0,.27-.19"/><path class="cls-43" d="M72.47,143.34v1.3h0a2.28,2.28,0,0,1-.45.2v-1.3a2.25,2.25,0,0,0,.45-.19l0,0"/><path class="cls-42" d="M72,143.55v1.3l-.39.1v-1.3a2.22,2.22,0,0,0,.39-.1"/><path class="cls-41" d="M71.61,143.65V145a2.3,2.3,0,0,1-.26,0v-1.29l.26,0"/><path class="cls-40" d="M71.35,143.69V145l-.23,0v-1.3h.23"/><path class="cls-39" d="M71.12,143.7V145h-.21v-1.3h.21"/><path class="cls-38" d="M70.91,143.7V145h-.2v-1.3h.2"/><path class="cls-37" d="M70.71,143.69V145l-.2,0v-1.3l.2,0"/><path class="cls-36" d="M70.51,143.67V145l-.2,0v-1.3l.2,0"/><path class="cls-44" d="M70.31,143.63v1.3l-.22-.05v-1.3l.21,0"/><path class="cls-45" d="M70.1,143.58v1.3l-.24-.08v-1.3l.25.08"/><path class="cls-46" d="M69.85,143.5v1.3a2.1,2.1,0,0,1-.3-.15,1,1,0,0,1-.61-.84v-1.3a1.07,1.07,0,0,0,.61.85,2.75,2.75,0,0,0,.3.14"/></g></g></g><path class="cls-47" d="M72.93,141.39a1.19,1.19,0,0,1,0,2.25,4.26,4.26,0,0,1-3.87,0,1.19,1.19,0,0,1,0-2.25A4.28,4.28,0,0,1,72.93,141.39Zm-3.38,2a3.22,3.22,0,0,0,2.9,0,.89.89,0,0,0,0-1.68,3.18,3.18,0,0,0-2.91,0c-.8.46-.79,1.21,0,1.68"/><path class="cls-48" d="M72.45,141.68a.89.89,0,0,1,0,1.68,3.22,3.22,0,0,1-2.9,0c-.8-.47-.81-1.22,0-1.68A3.18,3.18,0,0,1,72.45,141.68Z"/><path class="cls-49" d="M73.74,142.55s0,.1,0,.15h0a2.09,2.09,0,0,1-.08.23s0,0,0,0a1.64,1.64,0,0,1-.14.22l0,.05a1.06,1.06,0,0,1-.15.15l-.24.18-.1.07a3.14,3.14,0,0,1-.68.28l-.14,0a5.38,5.38,0,0,1-.7.12h0a4.38,4.38,0,0,1-.81,0h0a4.69,4.69,0,0,1-.78-.15l-.05,0a3.08,3.08,0,0,1-.64-.27,2,2,0,0,1-.32-.23l-.08-.07a1.54,1.54,0,0,1-.17-.19l-.06-.07a1.66,1.66,0,0,1-.13-.27h0a.79.79,0,0,1,0-.3v1.29h0a1.23,1.23,0,0,0,0,.19v-.08h0V144l0,.11h0a1.26,1.26,0,0,0,.13.26l.06.07a1.45,1.45,0,0,0,.17.19l.07.07.32.23a2.87,2.87,0,0,0,.4.18,1.84,1.84,0,0,0,.25.09h0l0,0,.29.07.27,0,.18,0h.08l.27,0h.28l.21,0h.1l.35,0,.3-.08.13,0,.08,0a3.29,3.29,0,0,0,.6-.26l0,0,.06,0,.25-.18,0,0,.11-.13,0,0,0,0a.91.91,0,0,0,.11-.16,78674647736.31,78674647736.31,0,0,0,0-.08l0-.08a.83.83,0,0,0,0-.15h0a.66.66,0,0,0,0-.14Z"/></g><path class="cls-50" d="M70.77,142.84v-4.57h.59v4.56a.23.23,0,0,1-.23.23H71A.22.22,0,0,1,70.77,142.84Z"/><path class="cls-50" d="M70.77,139.76c-.13,0-2.33.1-2.22-1.06h-.36s-.37,1.48,2.58,1.48Z"/><ellipse class="cls-51" cx="68.37" cy="138.7" rx="0.19" ry="0.05"/><path class="cls-52" d="M69.7,134.54a4.15,4.15,0,0,1,2.81-3.77,5.45,5.45,0,0,0-1.29-.24,4.3,4.3,0,0,0-3.63,4,4.42,4.42,0,0,0,4.4,4.11,5.21,5.21,0,0,0,.82-.24A4.2,4.2,0,0,1,69.7,134.54Z"/><path class="cls-53" d="M67.59,134.54a4.3,4.3,0,0,1,3.63-4h-.36c-2.63,0-4.76,1.84-4.76,4.12s2.13,4.13,4.76,4.13a5.22,5.22,0,0,0,1.13-.12A4.42,4.42,0,0,1,67.59,134.54Z"/><path class="cls-54" d="M69.7,134.54a4.2,4.2,0,0,0,3.11,3.87,4.15,4.15,0,0,0,2.81-3.77,4.2,4.2,0,0,0-3.11-3.87A4.15,4.15,0,0,0,69.7,134.54Z"/><path class="cls-52" d="M67.53,137.86a1.57,1.57,0,0,1,1.06-1.42,1.86,1.86,0,0,0-.48-.09,1.61,1.61,0,0,0-1.37,1.51,1.66,1.66,0,0,0,1.66,1.55,1.81,1.81,0,0,0,.31-.09A1.59,1.59,0,0,1,67.53,137.86Z"/><path class="cls-53" d="M66.74,137.86a1.61,1.61,0,0,1,1.37-1.51H68a1.58,1.58,0,1,0,0,3.12,2,2,0,0,0,.43-.05A1.66,1.66,0,0,1,66.74,137.86Z"/><path class="cls-54" d="M67.53,137.86a1.59,1.59,0,0,0,1.18,1.46,1.57,1.57,0,0,0,1.06-1.42,1.59,1.59,0,0,0-1.18-1.46A1.57,1.57,0,0,0,67.53,137.86Z"/><g class="cls-20"><g class="cls-20"><g class="cls-55"><g class="cls-20"><path class="cls-22" d="M103.06,126v1.29a1,1,0,0,0-.6-.84l-.3-.14V125a2.09,2.09,0,0,1,.3.14,1,1,0,0,1,.6.85"/><path class="cls-23" d="M102.16,125v1.3l-.25-.09v-1.29l.25.08"/><path class="cls-24" d="M101.91,124.93v1.29l-.22,0v-1.3l.21.06"/><path class="cls-25" d="M101.7,124.87v1.3l-.2,0v-1.3l.21,0"/><path class="cls-26" d="M101.49,124.84v1.3l-.2,0v-1.29l.2,0"/><path class="cls-27" d="M101.29,124.82v1.29h-.2v-1.29h.2"/><path class="cls-28" d="M101.09,124.81v1.29h-.21v-1.29a.74.74,0,0,1,.21,0"/><path class="cls-29" d="M100.88,124.81v1.29l-.23,0v-1.3h.22"/><path class="cls-30" d="M100.66,124.82v1.3l-.26,0v-1.29l.26,0"/><path class="cls-31" d="M100.4,124.86v1.29l-.39.1V125a2.23,2.23,0,0,1,.39-.09"/><path class="cls-32" d="M100,125v1.3a2.28,2.28,0,0,0-.45.2l0,0v-1.3l0,0a2.77,2.77,0,0,1,.46-.2"/><path class="cls-31" d="M99.53,125.17v1.3a1.34,1.34,0,0,0-.26.19v-1.3a1.34,1.34,0,0,1,.26-.19"/><path class="cls-30" d="M99.27,125.36v1.3l-.13.13V125.5a.86.86,0,0,1,.13-.14"/><path class="cls-29" d="M99.14,125.5v1.29l-.08.13v-1.3a.83.83,0,0,1,.08-.12"/><path class="cls-28" d="M99.06,125.62v1.3L99,127v-1.29a.61.61,0,0,1,0-.12"/><path class="cls-27" d="M99,125.74V127l0,.12v-1.3a.36.36,0,0,1,0-.11"/><path class="cls-26" d="M99,125.85v1.3a.49.49,0,0,0,0,.12V126s0-.08,0-.12"/><path class="cls-25" d="M99,126v1.3h0V126"/></g></g></g><g class="cls-20"><g class="cls-56"><g class="cls-20"><path class="cls-25" d="M103.75,126v0"/><path class="cls-26" d="M103.75,126v1.3a.88.88,0,0,1,0,.16v-1.3a.78.78,0,0,0,0-.16"/></g></g></g><g class="cls-20"><g class="cls-57"><g class="cls-20"><path class="cls-22" d="M99.48,127.31v1.29a2.81,2.81,0,0,1-.39-.19,1.37,1.37,0,0,1-.81-1.13V126a1.4,1.4,0,0,0,.81,1.14l.4.19"/></g></g></g><g class="cls-20"><g class="cls-58"><g class="cls-20"><path class="cls-36" d="M103.06,126v0"/><path class="cls-37" d="M103.06,126v1.29s0,.08,0,.12v-1.3a.45.45,0,0,0,0-.11"/><path class="cls-38" d="M103.05,126.13v1.3a.56.56,0,0,1,0,.12v-1.3l0-.12"/><path class="cls-39" d="M103,126.25v1.3l-.05.11v-1.29l.06-.12"/><path class="cls-40" d="M103,126.37v1.29l-.08.13v-1.3a.83.83,0,0,0,.08-.12"/><path class="cls-41" d="M102.88,126.49v1.3l-.13.13v-1.29l.13-.14"/><path class="cls-42" d="M102.75,126.63v1.29a1.79,1.79,0,0,1-.26.2v-1.3a2,2,0,0,0,.26-.19"/><path class="cls-43" d="M102.49,126.82v1.3h0a2.28,2.28,0,0,1-.45.2V127a2,2,0,0,0,.44-.2h0"/><path class="cls-42" d="M102,127v1.3l-.39.1v-1.3l.39-.1"/><path class="cls-41" d="M101.63,127.13v1.3l-.26,0v-1.3l.26,0"/><path class="cls-40" d="M101.37,127.16v1.3l-.22,0v-1.3l.23,0"/><path class="cls-39" d="M101.14,127.18v1.3h-.21v-1.3h.21"/><path class="cls-38" d="M100.93,127.18v1.3h-.21v-1.3h.2"/><path class="cls-37" d="M100.73,127.17v1.3l-.19,0v-1.3l.2,0"/><path class="cls-36" d="M100.53,127.15v1.3l-.21,0v-1.3l.2,0"/><path class="cls-44" d="M100.33,127.11v1.3l-.21,0v-1.3l.22,0"/><path class="cls-45" d="M100.11,127.06v1.3a1.84,1.84,0,0,1-.25-.09V127l.25.08"/><path class="cls-46" d="M99.86,127v1.29a2,2,0,0,1-.3-.14,1,1,0,0,1-.6-.85V126a1,1,0,0,0,.61.84,1.59,1.59,0,0,0,.29.15"/></g></g></g><path class="cls-47" d="M102.94,124.87a1.19,1.19,0,0,1,0,2.25,4.32,4.32,0,0,1-3.87,0c-1.07-.63-1.08-1.63,0-2.25A4.26,4.26,0,0,1,102.94,124.87Zm-3.37,2a3.14,3.14,0,0,0,2.89,0c.81-.46.8-1.21,0-1.68a3.24,3.24,0,0,0-2.91,0,.89.89,0,0,0,0,1.68"/><path class="cls-48" d="M102.46,125.15c.8.47.81,1.22,0,1.68a3.14,3.14,0,0,1-2.89,0,.89.89,0,0,1,0-1.68A3.24,3.24,0,0,1,102.46,125.15Z"/><path class="cls-49" d="M103.75,126a.78.78,0,0,1,0,.16h0a1,1,0,0,1-.07.23l0,0a.74.74,0,0,1-.14.22l0,0-.15.16-.25.18-.1.07a3.22,3.22,0,0,1-.68.28l-.13,0a4.23,4.23,0,0,1-.71.13h0a5.48,5.48,0,0,1-.81,0h0a4,4,0,0,1-.78-.16h0a3.42,3.42,0,0,1-.65-.27,2.62,2.62,0,0,1-.32-.23l-.07-.07a1.07,1.07,0,0,1-.18-.19l-.05-.07a1.16,1.16,0,0,1-.14-.27h0a1,1,0,0,1,0-.3v1.3h0a.55.55,0,0,0,0,.18v-.07h0v.07a.45.45,0,0,0,0,.11h0a1.16,1.16,0,0,0,.14.27l.05.07.17.19.08.07a2,2,0,0,0,.32.22,2.81,2.81,0,0,0,.39.19l.25.09h.09l.28.07.27.05.19,0h.08l.27,0h.58l.35,0,.3-.08.14,0,.08,0a3,3,0,0,0,.6-.27l0,0,.07,0a1.55,1.55,0,0,0,.24-.19l0,0a1.36,1.36,0,0,0,.12-.12l0,0h0l.11-.16s0,0,0,0l0,0a.43.43,0,0,0,0-.07s0-.1,0-.15h0v0h0a.68.68,0,0,0,0-.14Z"/></g><path class="cls-50" d="M100.79,126.32v-4.57h.59v4.56a.23.23,0,0,1-.23.23H101A.22.22,0,0,1,100.79,126.32Z"/><path class="cls-50" d="M100.79,123.23c-.14,0-2.34.11-2.22-1H98.2s-.37,1.48,2.59,1.48Z"/><ellipse class="cls-51" cx="98.39" cy="122.18" rx="0.19" ry="0.05"/><path class="cls-52" d="M99.71,118a4.15,4.15,0,0,1,2.82-3.76,5.45,5.45,0,0,0-1.29-.24,4.29,4.29,0,0,0-3.63,4,4.42,4.42,0,0,0,4.4,4.12,4.47,4.47,0,0,0,.81-.25A4.2,4.2,0,0,1,99.71,118Z"/><path class="cls-53" d="M97.61,118a4.29,4.29,0,0,1,3.63-4h-.36c-2.63,0-4.76,1.84-4.76,4.12s2.13,4.12,4.76,4.12a5.93,5.93,0,0,0,1.13-.11A4.42,4.42,0,0,1,97.61,118Z"/><path class="cls-54" d="M99.71,118a4.2,4.2,0,0,0,3.11,3.87,4.14,4.14,0,0,0,2.82-3.76,4.2,4.2,0,0,0-3.11-3.87A4.15,4.15,0,0,0,99.71,118Z"/><path class="cls-52" d="M97.55,121.34a1.56,1.56,0,0,1,1.06-1.42,1.93,1.93,0,0,0-.49-.09,1.62,1.62,0,0,0-1.37,1.51,1.66,1.66,0,0,0,1.66,1.55,1.58,1.58,0,0,0,.31-.09A1.59,1.59,0,0,1,97.55,121.34Z"/><path class="cls-53" d="M96.75,121.34a1.62,1.62,0,0,1,1.37-1.51H98a1.57,1.57,0,1,0,0,3.11,1.93,1.93,0,0,0,.42,0A1.66,1.66,0,0,1,96.75,121.34Z"/><path class="cls-54" d="M97.55,121.34a1.59,1.59,0,0,0,1.17,1.46,1.56,1.56,0,0,0,1.06-1.42,1.59,1.59,0,0,0-1.17-1.46A1.56,1.56,0,0,0,97.55,121.34Z"/><g class="cls-20"><g class="cls-20"><g class="cls-59"><g class="cls-20"><path class="cls-22" d="M135.7,106.26v1.3a1,1,0,0,0-.6-.84c-.1-.06-.2-.1-.3-.15v-1.29a2.09,2.09,0,0,1,.3.14,1,1,0,0,1,.6.84"/><path class="cls-23" d="M134.8,105.28v1.29l-.25-.08v-1.3a1.84,1.84,0,0,1,.25.09"/><path class="cls-24" d="M134.55,105.19v1.3l-.22,0v-1.3l.21,0"/><path class="cls-25" d="M134.34,105.14v1.3l-.2,0v-1.3l.21,0"/><path class="cls-26" d="M134.13,105.1v1.3l-.2,0v-1.3l.2,0"/><path class="cls-27" d="M133.93,105.08v1.3h-.2v-1.3h.2"/><path class="cls-28" d="M133.73,105.07v1.3h-.21v-1.3h.21"/><path class="cls-29" d="M133.52,105.07v1.3h-.23v-1.29l.22,0"/><path class="cls-30" d="M133.3,105.09v1.29l-.26,0v-1.3l.27,0"/><path class="cls-31" d="M133,105.12v1.3a2.79,2.79,0,0,0-.39.1v-1.3l.38-.1"/><path class="cls-32" d="M132.65,105.22v1.3a2.28,2.28,0,0,0-.45.2h0v-1.3h0a2.13,2.13,0,0,1,.46-.2"/><path class="cls-31" d="M132.17,105.43v1.3a2.93,2.93,0,0,0-.26.19v-1.29a1.37,1.37,0,0,1,.26-.2"/><path class="cls-30" d="M131.91,105.63v1.29a1.49,1.49,0,0,0-.12.14v-1.3l.13-.13"/><path class="cls-29" d="M131.78,105.76v1.3l-.08.12v-1.29a.57.57,0,0,1,.08-.13"/><path class="cls-28" d="M131.7,105.89v1.29a.67.67,0,0,0-.06.12V106l.06-.11"/><path class="cls-27" d="M131.64,106v1.3l0,.11v-1.29l0-.12"/><path class="cls-26" d="M131.61,106.12v1.29s0,.08,0,.12v-1.3a.41.41,0,0,1,0-.11"/><path class="cls-25" d="M131.6,106.23v0"/></g></g></g><g class="cls-20"><g class="cls-60"><g class="cls-20"><path class="cls-25" d="M136.39,106.27v0"/><path class="cls-26" d="M136.39,106.29v1.3s0,.1,0,.15v-1.29a1,1,0,0,0,0-.16"/></g></g></g><g class="cls-20"><g class="cls-61"><g class="cls-20"><path class="cls-22" d="M132.12,107.57v1.3a3.54,3.54,0,0,1-.39-.19,1.37,1.37,0,0,1-.81-1.13v-1.3a1.37,1.37,0,0,0,.81,1.13,2.93,2.93,0,0,0,.4.19"/></g></g></g><g class="cls-20"><g class="cls-62"><g class="cls-20"><path class="cls-36" d="M135.7,106.26v0"/><path class="cls-37" d="M135.7,106.28v1.3s0,.08,0,.12v-1.3a.49.49,0,0,0,0-.12"/><path class="cls-38" d="M135.69,106.4v1.3a.76.76,0,0,1,0,.11v-1.3l0-.11"/><path class="cls-39" d="M135.66,106.51v1.3a.61.61,0,0,1-.05.12v-1.3l.06-.12"/><path class="cls-40" d="M135.6,106.63v1.3a.94.94,0,0,1-.09.12v-1.3a.83.83,0,0,0,.08-.12"/><path class="cls-41" d="M135.52,106.75v1.3a.75.75,0,0,1-.12.14v-1.3a.86.86,0,0,0,.13-.14"/><path class="cls-42" d="M135.39,106.89v1.3a1.43,1.43,0,0,1-.27.19v-1.29a2,2,0,0,0,.26-.2"/><path class="cls-43" d="M135.13,107.09v1.29l0,0a2.25,2.25,0,0,1-.45.19V107.3a1.86,1.86,0,0,0,.45-.2h0"/><path class="cls-42" d="M134.65,107.3v1.29a1.59,1.59,0,0,1-.39.1v-1.3a2.34,2.34,0,0,0,.38-.09"/><path class="cls-41" d="M134.27,107.39v1.3l-.26,0v-1.3l.26,0"/><path class="cls-40" d="M134,107.43v1.3h-.23v-1.29l.23,0"/><path class="cls-39" d="M133.78,107.45v1.29a.74.74,0,0,1-.21,0v-1.29h.21"/><path class="cls-38" d="M133.57,107.45v1.29h-.2v-1.29h.2"/><path class="cls-37" d="M133.37,107.44v1.29l-.2,0v-1.3l.2,0"/><path class="cls-36" d="M133.17,107.41v1.3l-.2,0v-1.3l.21,0"/><path class="cls-44" d="M133,107.38v1.3l-.21-.06v-1.29l.21,0"/><path class="cls-45" d="M132.75,107.33v1.29l-.25-.08v-1.3l.25.09"/><path class="cls-46" d="M132.5,107.24v1.3a2.75,2.75,0,0,1-.3-.14,1.05,1.05,0,0,1-.61-.85v-1.3a1,1,0,0,0,.61.85l.29.14"/></g></g></g><path class="cls-47" d="M135.58,105.14a1.18,1.18,0,0,1,0,2.24,4.26,4.26,0,0,1-3.87,0,1.18,1.18,0,0,1,0-2.24A4.28,4.28,0,0,1,135.58,105.14Zm-3.37,2a3.2,3.2,0,0,0,2.89,0,.89.89,0,0,0,0-1.68,3.18,3.18,0,0,0-2.91,0c-.8.46-.79,1.21,0,1.68"/><path class="cls-48" d="M135.1,105.42a.89.89,0,0,1,0,1.68,3.2,3.2,0,0,1-2.89,0c-.81-.47-.82-1.22,0-1.68A3.18,3.18,0,0,1,135.1,105.42Z"/><path class="cls-49" d="M136.39,106.29a1,1,0,0,1,0,.16h0a.65.65,0,0,1-.08.22s0,0,0,0a1.28,1.28,0,0,1-.14.21l0,0-.15.15a1.44,1.44,0,0,1-.25.18l-.1.07a3.24,3.24,0,0,1-.68.29l-.14,0a3.94,3.94,0,0,1-.7.13h0a4.38,4.38,0,0,1-.81,0h0a4.89,4.89,0,0,1-.78-.15l0,0a3.32,3.32,0,0,1-.64-.27c-.12-.07-.22-.15-.32-.22l-.08-.08-.17-.18a.35.35,0,0,1-.05-.08.94.94,0,0,1-.14-.26h0a1,1,0,0,1-.05-.3v1.3h0a1.09,1.09,0,0,0,0,.18v-.07h0v.08a.26.26,0,0,0,0,.11h0a1.26,1.26,0,0,0,.13.26l.06.07a1.54,1.54,0,0,0,.17.19l.08.07a2,2,0,0,0,.32.23,3.54,3.54,0,0,0,.39.19l.25.08h.09l.28.07.27,0,.19,0h.93l.35-.05.3-.07.14,0,.08,0a3.2,3.2,0,0,0,.6-.26l0,0,.07,0,.24-.18,0,0,.11-.12s0,0,0,0h0a1.63,1.63,0,0,0,.11-.17l0,0s0,0,0,0a.21.21,0,0,0,0-.07.75.75,0,0,0,.05-.16h0s0-.09,0-.13Z"/></g><path class="cls-50" d="M133.43,106.58V102H134v4.55a.24.24,0,0,1-.24.24h-.13A.22.22,0,0,1,133.43,106.58Z"/><path class="cls-50" d="M133.43,103.5c-.14,0-2.34.1-2.22-1.06h-.37s-.37,1.48,2.59,1.48Z"/><ellipse class="cls-51" cx="131.02" cy="102.44" rx="0.19" ry="0.05"/><path class="cls-52" d="M132.35,98.28a4.13,4.13,0,0,1,2.81-3.76,5.28,5.28,0,0,0-1.28-.25,4.29,4.29,0,0,0-3.63,4,4.42,4.42,0,0,0,4.4,4.11,5.41,5.41,0,0,0,.81-.24A4.2,4.2,0,0,1,132.35,98.28Z"/><path class="cls-53" d="M130.25,98.28a4.29,4.29,0,0,1,3.63-4h-.36c-2.63,0-4.77,1.85-4.77,4.13s2.14,4.12,4.77,4.12a5.22,5.22,0,0,0,1.13-.12A4.42,4.42,0,0,1,130.25,98.28Z"/><path class="cls-54" d="M132.35,98.28a4.2,4.2,0,0,0,3.11,3.87,4.15,4.15,0,0,0,2.82-3.76,4.2,4.2,0,0,0-3.12-3.87A4.13,4.13,0,0,0,132.35,98.28Z"/><path class="cls-52" d="M130.18,101.6a1.58,1.58,0,0,1,1.07-1.42,2,2,0,0,0-.49-.09,1.63,1.63,0,0,0-1.37,1.51,1.67,1.67,0,0,0,1.66,1.56l.31-.1A1.58,1.58,0,0,1,130.18,101.6Z"/><path class="cls-53" d="M129.39,101.6a1.63,1.63,0,0,1,1.37-1.51h-.14a1.57,1.57,0,1,0,0,3.11,2.86,2.86,0,0,0,.43,0A1.67,1.67,0,0,1,129.39,101.6Z"/><path class="cls-54" d="M130.18,101.6a1.58,1.58,0,0,0,1.18,1.46,1.55,1.55,0,0,0,1.06-1.42,1.16,1.16,0,1,0-2.24,0Z"/><g class="cls-20"><g class="cls-20"><g class="cls-63"><g class="cls-20"><path class="cls-22" d="M71.32,124.62v1.29a1,1,0,0,0-.6-.84l-.3-.14v-1.3a2.09,2.09,0,0,1,.3.14,1.05,1.05,0,0,1,.61.85"/><path class="cls-23" d="M70.41,123.63v1.3a2.5,2.5,0,0,0-.25-.09v-1.3l.25.09"/><path class="cls-24" d="M70.16,123.54v1.3l-.22,0v-1.3l.21.05"/><path class="cls-25" d="M70,123.49v1.3l-.2,0v-1.29l.21,0"/><path class="cls-26" d="M69.74,123.46v1.29l-.2,0v-1.3l.19,0"/><path class="cls-27" d="M69.55,123.43v1.3h-.2v-1.3h.21"/><path class="cls-28" d="M69.34,123.42v1.3h-.21v-1.3h.2"/><path class="cls-29" d="M69.14,123.42v1.3l-.23,0v-1.3l.23,0"/><path class="cls-30" d="M68.91,123.44v1.3l-.26,0v-1.29l.26,0"/><path class="cls-31" d="M68.65,123.48v1.29l-.39.1v-1.3a2.23,2.23,0,0,1,.39-.09"/><path class="cls-32" d="M68.26,123.57v1.3a2.28,2.28,0,0,0-.45.2h0v-1.29l0,0a3.19,3.19,0,0,1,.46-.2"/><path class="cls-31" d="M67.78,123.79v1.29a1.37,1.37,0,0,0-.26.2V124a1.34,1.34,0,0,1,.26-.19"/><path class="cls-30" d="M67.52,124v1.3a1.59,1.59,0,0,0-.13.13v-1.29a.86.86,0,0,1,.13-.14"/><path class="cls-29" d="M67.39,124.12v1.29a.57.57,0,0,0-.08.13v-1.3a.83.83,0,0,1,.08-.12"/><path class="cls-28" d="M67.31,124.24v1.3l-.06.11v-1.3l0-.11"/><path class="cls-27" d="M67.26,124.35v1.3l0,.12v-1.3a.56.56,0,0,1,0-.12"/><path class="cls-26" d="M67.22,124.47v1.3a.41.41,0,0,0,0,.11v-1.29s0-.08,0-.12"/><path class="cls-25" d="M67.21,124.59v0h0"/></g></g></g><g class="cls-20"><g class="cls-64"><g class="cls-20"><path class="cls-25" d="M72,124.62v0"/><path class="cls-26" d="M72,124.64v1.3a1,1,0,0,1,0,.16v-1.3a.88.88,0,0,0,0-.16"/></g></g></g><g class="cls-20"><g class="cls-65"><g class="cls-20"><path class="cls-22" d="M67.73,125.92v1.3a2.46,2.46,0,0,1-.4-.19,1.37,1.37,0,0,1-.81-1.13v-1.3a1.37,1.37,0,0,0,.81,1.13,2.09,2.09,0,0,0,.4.19"/></g></g></g><g class="cls-20"><g class="cls-66"><g class="cls-20"><path class="cls-36" d="M71.32,124.62v0h0"/><path class="cls-37" d="M71.32,124.63v1.3a.49.49,0,0,1,0,.12v-1.3s0-.08,0-.12"/><path class="cls-38" d="M71.3,124.75v1.3a.36.36,0,0,1,0,.11v-1.29l0-.12"/><path class="cls-39" d="M71.27,124.87v1.29a.61.61,0,0,1-.05.12V125a.39.39,0,0,0,.06-.11"/><path class="cls-40" d="M71.21,125v1.3l-.08.12v-1.29a.57.57,0,0,0,.08-.13"/><path class="cls-41" d="M71.13,125.11v1.29a.86.86,0,0,1-.13.14v-1.3a1.59,1.59,0,0,0,.13-.13"/><path class="cls-42" d="M71,125.24v1.3a2,2,0,0,1-.26.2v-1.3a1.37,1.37,0,0,0,.26-.2"/><path class="cls-43" d="M70.74,125.44v1.3h0a2,2,0,0,1-.45.2v-1.3a2.28,2.28,0,0,0,.45-.2h0"/><path class="cls-42" d="M70.27,125.65V127a2.34,2.34,0,0,1-.38.09v-1.29l.39-.1"/><path class="cls-41" d="M69.88,125.75V127l-.27,0v-1.3l.26,0"/><path class="cls-40" d="M69.62,125.78v1.3l-.22,0v-1.3l.23,0"/><path class="cls-39" d="M69.39,125.8v1.3h-.21v-1.3h.21"/><path class="cls-38" d="M69.18,125.8v1.3H69v-1.3h.2"/><path class="cls-37" d="M69,125.79v1.3l-.2,0v-1.29l.2,0"/><path class="cls-36" d="M68.78,125.77v1.29l-.21,0v-1.3l.2,0"/><path class="cls-44" d="M68.58,125.73V127l-.21,0v-1.3l.22,0"/><path class="cls-45" d="M68.36,125.68V127l-.25-.09V125.6l.25.08"/><path class="cls-46" d="M68.11,125.6v1.29l-.29-.14a1,1,0,0,1-.61-.85v-1.3a1,1,0,0,0,.61.85,2.64,2.64,0,0,0,.29.15"/></g></g></g><path class="cls-47" d="M71.2,123.49a1.18,1.18,0,0,1,0,2.24,4.26,4.26,0,0,1-3.87,0,1.18,1.18,0,0,1,0-2.24A4.28,4.28,0,0,1,71.2,123.49Zm-3.38,2a3.16,3.16,0,0,0,2.9,0c.8-.46.79-1.21,0-1.68a3.24,3.24,0,0,0-2.91,0,.89.89,0,0,0,0,1.68"/><path class="cls-48" d="M70.71,123.77c.8.47.81,1.22,0,1.68a3.16,3.16,0,0,1-2.9,0,.89.89,0,0,1,0-1.68A3.24,3.24,0,0,1,70.71,123.77Z"/><path class="cls-49" d="M72,124.64a.88.88,0,0,1,0,.16h0a1,1,0,0,1-.07.23l0,0a.9.9,0,0,1-.14.22l0,0a.71.71,0,0,1-.15.15,1.64,1.64,0,0,1-.25.19l-.1.06a2.79,2.79,0,0,1-.68.29l-.13,0a4.05,4.05,0,0,1-.71.13h0a5.47,5.47,0,0,1-.81,0h0A3.37,3.37,0,0,1,68,126h0a2.9,2.9,0,0,1-.65-.28,2.57,2.57,0,0,1-.32-.22l-.07-.07a1.45,1.45,0,0,1-.17-.19l-.06-.07a1.16,1.16,0,0,1-.14-.27h0a1,1,0,0,1,0-.3v1.3h0a.55.55,0,0,0,0,.18V126h0v.07l0,.11h0a.94.94,0,0,0,.14.26.35.35,0,0,0,.05.08l.17.18.08.08c.1.07.2.15.32.22a2.46,2.46,0,0,0,.4.19l.24.08,0,0h.06l.28.07.27,0,.19,0h.35a1.31,1.31,0,0,0,.28,0h.3a2,2,0,0,0,.35,0,1.46,1.46,0,0,0,.3-.07l.14,0,.08,0a2.74,2.74,0,0,0,.6-.27l0,0s0,0,.07-.05a1.08,1.08,0,0,0,.24-.18l0,0,.12-.12,0,0h0a.76.76,0,0,0,.11-.16l0,0s0,0,0-.05l0-.07a.83.83,0,0,0,0-.15h0v0h0a.59.59,0,0,0,0-.13Z"/></g><path class="cls-50" d="M69,124.93v-4.56h.59v4.56a.23.23,0,0,1-.23.23h-.14A.22.22,0,0,1,69,124.93Z"/><path class="cls-50" d="M69,121.85c-.14,0-2.33.11-2.22-1.06h-.37s-.37,1.48,2.59,1.48Z"/><ellipse class="cls-51" cx="66.64" cy="120.79" rx="0.19" ry="0.05"/><path class="cls-52" d="M68,116.63a4.15,4.15,0,0,1,2.82-3.76,5.45,5.45,0,0,0-1.29-.24,4.29,4.29,0,0,0-3.63,4,4.42,4.42,0,0,0,4.4,4.12,5.56,5.56,0,0,0,.82-.25A4.2,4.2,0,0,1,68,116.63Z"/><path class="cls-53" d="M65.86,116.63a4.29,4.29,0,0,1,3.63-4l-.36,0c-2.63,0-4.76,1.85-4.76,4.13s2.13,4.12,4.76,4.12a5.93,5.93,0,0,0,1.13-.11A4.42,4.42,0,0,1,65.86,116.63Z"/><path class="cls-54" d="M68,116.63a4.2,4.2,0,0,0,3.12,3.87,4.13,4.13,0,0,0,2.81-3.76,4.2,4.2,0,0,0-3.11-3.87A4.15,4.15,0,0,0,68,116.63Z"/><path class="cls-52" d="M65.8,120a1.55,1.55,0,0,1,1.06-1.42,2.5,2.5,0,0,0-.49-.1A1.63,1.63,0,0,0,65,120a1.67,1.67,0,0,0,1.66,1.55,1.58,1.58,0,0,0,.31-.09A1.59,1.59,0,0,1,65.8,120Z"/><path class="cls-53" d="M65,120a1.63,1.63,0,0,1,1.37-1.52h-.13a1.57,1.57,0,1,0,0,3.11,1.93,1.93,0,0,0,.42,0A1.67,1.67,0,0,1,65,120Z"/><path class="cls-54" d="M65.8,120A1.59,1.59,0,0,0,67,121.42a1.49,1.49,0,0,0-.11-2.88A1.55,1.55,0,0,0,65.8,120Z"/><g class="cls-20"><g class="cls-20"><g class="cls-67"><g class="cls-20"><path class="cls-22" d="M48,128.71V130a1,1,0,0,0-.6-.85l-.3-.14v-1.3a2.09,2.09,0,0,1,.3.14,1,1,0,0,1,.6.85"/><path class="cls-23" d="M47.09,127.72V129l-.25-.09v-1.29l.25.08"/><path class="cls-24" d="M46.84,127.64v1.29l-.22-.05v-1.3l.21.06"/><path class="cls-25" d="M46.63,127.58v1.3l-.2,0v-1.3l.21,0"/><path class="cls-26" d="M46.42,127.55v1.3l-.2,0v-1.29l.2,0"/><path class="cls-27" d="M46.22,127.53v1.29H46v-1.29h.2"/><path class="cls-28" d="M46,127.52v1.29h-.21v-1.29H46"/><path class="cls-29" d="M45.81,127.52v1.29l-.23,0v-1.3h.22"/><path class="cls-30" d="M45.59,127.53v1.3l-.26,0v-1.3l.26,0"/><path class="cls-31" d="M45.33,127.57v1.3a2.74,2.74,0,0,0-.39.09v-1.29a2.22,2.22,0,0,1,.39-.1"/><path class="cls-32" d="M44.94,127.67V129a3.07,3.07,0,0,0-.45.2l0,0v-1.3l0,0a2.11,2.11,0,0,1,.46-.19"/><path class="cls-31" d="M44.46,127.88v1.3a1.64,1.64,0,0,0-.25.19v-1.3a1.34,1.34,0,0,1,.26-.19"/><path class="cls-30" d="M44.2,128.07v1.3a.86.86,0,0,0-.13.14v-1.3l.13-.14"/><path class="cls-29" d="M44.07,128.21v1.3l-.08.12v-1.3a.83.83,0,0,1,.08-.12"/><path class="cls-28" d="M44,128.33v1.3a.6.6,0,0,0-.06.11v-1.29a.61.61,0,0,1,.05-.12"/><path class="cls-27" d="M43.94,128.45v1.29l0,.12v-1.3a.36.36,0,0,1,0-.11"/><path class="cls-26" d="M43.9,128.56v1.3a.49.49,0,0,0,0,.12v-1.3a.49.49,0,0,1,0-.12"/><path class="cls-25" d="M43.89,128.68V130h0v-1.31"/></g></g></g><g class="cls-20"><g class="cls-68"><g class="cls-20"><path class="cls-25" d="M48.68,128.71v0"/><path class="cls-26" d="M48.68,128.73V130a.88.88,0,0,1,0,.16v-1.3a.78.78,0,0,0,0-.16"/></g></g></g><g class="cls-20"><g class="cls-69"><g class="cls-20"><path class="cls-22" d="M44.41,130v1.29a2,2,0,0,1-.39-.19A1.37,1.37,0,0,1,43.2,130v-1.3a1.4,1.4,0,0,0,.81,1.14l.4.19"/></g></g></g><g class="cls-20"><g class="cls-70"><g class="cls-20"><path class="cls-36" d="M48,128.71V130h0v-1.31"/><path class="cls-37" d="M48,128.73V130s0,.08,0,.12v-1.3a.41.41,0,0,0,0-.11"/><path class="cls-38" d="M48,128.84v1.3a.56.56,0,0,1,0,.12V129l0-.12"/><path class="cls-39" d="M48,129v1.3a.54.54,0,0,1,0,.11v-1.29L48,129"/><path class="cls-40" d="M47.89,129.08v1.29l-.08.13v-1.3l.08-.12"/><path class="cls-41" d="M47.81,129.2v1.3l-.13.13v-1.29l.13-.14"/><path class="cls-42" d="M47.68,129.34v1.29a1.79,1.79,0,0,1-.26.2v-1.3a2,2,0,0,0,.26-.19"/><path class="cls-43" d="M47.42,129.53v1.3h0a2.28,2.28,0,0,1-.45.2v-1.3a2.53,2.53,0,0,0,.44-.19l0,0"/><path class="cls-42" d="M47,129.74V131l-.39.1v-1.3a2.79,2.79,0,0,0,.39-.1"/><path class="cls-41" d="M46.56,129.84v1.3l-.26,0v-1.29l.26,0"/><path class="cls-40" d="M46.3,129.88v1.29l-.22,0v-1.3h.23"/><path class="cls-39" d="M46.07,129.89v1.3h-.21v-1.3h.21"/><path class="cls-38" d="M45.86,129.89v1.3h-.21v-1.3h.2"/><path class="cls-37" d="M45.66,129.88v1.3l-.19,0v-1.3l.2,0"/><path class="cls-36" d="M45.46,129.86v1.3l-.21,0v-1.3l.2,0"/><path class="cls-44" d="M45.26,129.82v1.3l-.21-.05v-1.3l.22,0"/><path class="cls-45" d="M45,129.77v1.3a1.84,1.84,0,0,1-.25-.09v-1.29l.25.08"/><path class="cls-46" d="M44.79,129.69V131a2,2,0,0,1-.3-.14,1,1,0,0,1-.6-.85V128.7a1,1,0,0,0,.61.85l.29.14"/></g></g></g><path class="cls-47" d="M47.87,127.58a1.19,1.19,0,0,1,0,2.25,4.26,4.26,0,0,1-3.87,0,1.19,1.19,0,0,1,0-2.25A4.26,4.26,0,0,1,47.87,127.58Zm-3.37,2a3.2,3.2,0,0,0,2.89,0,.89.89,0,0,0,0-1.69,3.24,3.24,0,0,0-2.91,0,.9.9,0,0,0,0,1.69"/><path class="cls-48" d="M47.39,127.86a.89.89,0,0,1,0,1.69,3.2,3.2,0,0,1-2.89,0,.9.9,0,0,1,0-1.69A3.24,3.24,0,0,1,47.39,127.86Z"/><path class="cls-49" d="M48.68,128.73a.78.78,0,0,1,0,.16h0a1,1,0,0,1-.07.23l0,0a.74.74,0,0,1-.14.22l0,.05-.15.15-.25.18-.1.07a2.77,2.77,0,0,1-.68.28l-.13,0a4.23,4.23,0,0,1-.71.13h0a4.38,4.38,0,0,1-.81,0h0a4.89,4.89,0,0,1-.78-.15l-.05,0a3.61,3.61,0,0,1-.64-.27,2.62,2.62,0,0,1-.32-.23l-.07-.07a1.07,1.07,0,0,1-.18-.19l0-.07a1.16,1.16,0,0,1-.14-.27h0a1.06,1.06,0,0,1,0-.31V130h0a.65.65,0,0,0,0,.19v-.08h0v.07a.2.2,0,0,0,0,.11h0a1.34,1.34,0,0,0,.14.26l0,.07.17.19.08.07a2.76,2.76,0,0,0,.71.41l.25.09h.05l0,0,.28.07.27,0,.19,0h.08l.27,0h.28l.21,0h.09l.35,0,.3-.08.14,0,.08,0a3,3,0,0,0,.6-.27l0,0,.07,0a1.55,1.55,0,0,0,.24-.19l0,0,.11-.13.05,0v0l.11-.16s0,0,0,0,0,0,0-.05a.43.43,0,0,0,0-.07c0-.05,0-.1,0-.15h0a.68.68,0,0,0,0-.14Z"/></g><path class="cls-50" d="M45.72,129v-4.57h.59V129a.23.23,0,0,1-.24.23h-.13A.22.22,0,0,1,45.72,129Z"/><path class="cls-50" d="M45.72,125.94c-.14,0-2.34.11-2.22-1h-.37s-.37,1.48,2.59,1.48Z"/><ellipse class="cls-51" cx="43.32" cy="124.89" rx="0.19" ry="0.05"/><path class="cls-52" d="M44.64,120.73A4.15,4.15,0,0,1,47.46,117a5.45,5.45,0,0,0-1.29-.24,4.3,4.3,0,0,0-3.63,4,4.42,4.42,0,0,0,4.4,4.11,5.41,5.41,0,0,0,.81-.24A4.21,4.21,0,0,1,44.64,120.73Z"/><path class="cls-53" d="M42.54,120.73a4.3,4.3,0,0,1,3.63-4h-.36c-2.63,0-4.76,1.84-4.76,4.12S43.18,125,45.81,125a5.93,5.93,0,0,0,1.13-.12A4.42,4.42,0,0,1,42.54,120.73Z"/><path class="cls-54" d="M44.64,120.73a4.21,4.21,0,0,0,3.11,3.87,4.16,4.16,0,0,0,2.82-3.77A4.2,4.2,0,0,0,47.46,117,4.15,4.15,0,0,0,44.64,120.73Z"/><path class="cls-52" d="M42.48,124.05a1.56,1.56,0,0,1,1.06-1.42,2,2,0,0,0-.49-.09,1.62,1.62,0,0,0-1.37,1.51,1.66,1.66,0,0,0,1.66,1.55,1.58,1.58,0,0,0,.31-.09A1.58,1.58,0,0,1,42.48,124.05Z"/><path class="cls-53" d="M41.68,124.05a1.62,1.62,0,0,1,1.37-1.51h-.13a1.58,1.58,0,1,0,0,3.12,1.93,1.93,0,0,0,.42-.05A1.66,1.66,0,0,1,41.68,124.05Z"/><path class="cls-54" d="M42.48,124.05a1.58,1.58,0,0,0,1.17,1.46,1.56,1.56,0,0,0,1.06-1.42,1.59,1.59,0,0,0-1.17-1.46A1.56,1.56,0,0,0,42.48,124.05Z"/><g class="cls-20"><g class="cls-20"><g class="cls-71"><g class="cls-20"><path class="cls-22" d="M39.11,112v1.3a1,1,0,0,0-.6-.84,2.1,2.1,0,0,0-.3-.15V111a2.09,2.09,0,0,1,.3.14,1,1,0,0,1,.61.84"/><path class="cls-23" d="M38.2,111v1.29l-.25-.08v-1.3a1.84,1.84,0,0,1,.25.09"/><path class="cls-24" d="M38,110.92v1.3l-.21,0v-1.3l.21,0"/><path class="cls-25" d="M37.74,110.87v1.3l-.21,0v-1.3l.2,0"/><path class="cls-26" d="M37.54,110.83v1.3l-.2,0v-1.3l.2,0"/><path class="cls-27" d="M37.34,110.81v1.3h-.2v-1.3h.2"/><path class="cls-28" d="M37.14,110.8v1.3h-.21v-1.3h.21"/><path class="cls-29" d="M36.93,110.8v1.3H36.7v-1.29l.23,0"/><path class="cls-30" d="M36.7,110.82v1.29l-.27,0v-1.3l.26,0"/><path class="cls-31" d="M36.44,110.85v1.3l-.38.1V111l.39-.1"/><path class="cls-32" d="M36.05,111v1.3a2.13,2.13,0,0,0-.46.2h0v-1.3h0a2,2,0,0,1,.45-.2"/><path class="cls-31" d="M35.57,111.16v1.3a2,2,0,0,0-.26.19v-1.29a1.79,1.79,0,0,1,.26-.2"/><path class="cls-30" d="M35.31,111.36v1.29l-.13.14v-1.3a.71.71,0,0,1,.12-.13"/><path class="cls-29" d="M35.19,111.49v1.3a.83.83,0,0,0-.08.12v-1.29a.6.6,0,0,1,.09-.13"/><path class="cls-28" d="M35.1,111.62v1.29L35,113v-1.3a.37.37,0,0,1,.05-.11"/><path class="cls-27" d="M35.05,111.73V113l0,.11v-1.29a.27.27,0,0,1,0-.12"/><path class="cls-26" d="M35,111.85v1.29a.49.49,0,0,0,0,.12V112a.43.43,0,0,1,0-.11"/><path class="cls-25" d="M35,112v0"/></g></g></g><g class="cls-20"><g class="cls-72"><g class="cls-20"><path class="cls-25" d="M39.79,112v0"/><path class="cls-26" d="M39.79,112v1.3a.77.77,0,0,1,0,.15v-1.29a.92.92,0,0,0,0-.16"/></g></g></g><g class="cls-20"><g class="cls-73"><g class="cls-20"><path class="cls-22" d="M35.52,113.3v1.3l-.4-.19a1.37,1.37,0,0,1-.81-1.13V112a1.37,1.37,0,0,0,.82,1.13,2.35,2.35,0,0,0,.39.19"/></g></g></g><g class="cls-20"><g class="cls-74"><g class="cls-20"><path class="cls-36" d="M39.11,112v0"/><path class="cls-37" d="M39.11,112v1.3a.49.49,0,0,1,0,.12v-1.3a.5.5,0,0,0,0-.12"/><path class="cls-38" d="M39.09,112.13v1.3l0,.11v-1.3a.35.35,0,0,0,0-.11"/><path class="cls-39" d="M39.06,112.24v1.3l-.06.12v-1.3a.61.61,0,0,0,.05-.12"/><path class="cls-40" d="M39,112.36v1.3a.83.83,0,0,1-.08.12v-1.3l.09-.12"/><path class="cls-41" d="M38.92,112.48v1.3l-.13.14v-1.3a.57.57,0,0,0,.13-.14"/><path class="cls-42" d="M38.79,112.62v1.3a1.34,1.34,0,0,1-.26.19v-1.29a2,2,0,0,0,.26-.2"/><path class="cls-43" d="M38.53,112.82v1.29l0,0a2.34,2.34,0,0,1-.45.2V113a2.28,2.28,0,0,0,.45-.2h0"/><path class="cls-42" d="M38.06,113v1.3a2.34,2.34,0,0,1-.38.09v-1.3l.39-.09"/><path class="cls-41" d="M37.67,113.12v1.3l-.26,0v-1.3l.26,0"/><path class="cls-40" d="M37.41,113.16v1.3h-.23v-1.29l.23,0"/><path class="cls-39" d="M37.18,113.18v1.29a.74.74,0,0,1-.21,0v-1.29h.21"/><path class="cls-38" d="M37,113.18v1.29h-.2v-1.29H37"/><path class="cls-37" d="M36.77,113.17v1.29l-.2,0v-1.3l.2,0"/><path class="cls-36" d="M36.57,113.14v1.3l-.2,0v-1.3l.2,0"/><path class="cls-44" d="M36.37,113.11v1.3l-.22-.06v-1.29l.21,0"/><path class="cls-45" d="M36.16,113.06v1.29l-.25-.08V113l.25.09"/><path class="cls-46" d="M35.91,113v1.3l-.29-.14a1,1,0,0,1-.61-.85V112a1,1,0,0,0,.61.85,2.09,2.09,0,0,0,.3.14"/></g></g></g><path class="cls-47" d="M39,110.87a1.18,1.18,0,0,1,0,2.24,4.24,4.24,0,0,1-3.86,0c-1.08-.62-1.09-1.62,0-2.24A4.28,4.28,0,0,1,39,110.87Zm-3.38,2a3.22,3.22,0,0,0,2.9,0,.89.89,0,0,0,0-1.68,3.16,3.16,0,0,0-2.9,0c-.8.46-.8,1.21,0,1.68"/><path class="cls-48" d="M38.5,111.15a.89.89,0,0,1,0,1.68,3.22,3.22,0,0,1-2.9,0c-.81-.47-.81-1.22,0-1.68A3.16,3.16,0,0,1,38.5,111.15Z"/><path class="cls-49" d="M39.79,112a.92.92,0,0,1,0,.16h0a2,2,0,0,1-.08.22s0,0,0,0l-.14.21,0,0a1.06,1.06,0,0,1-.15.15,1.14,1.14,0,0,1-.25.18l-.1.07a3.39,3.39,0,0,1-.67.29l-.14,0a4.05,4.05,0,0,1-.71.13h0a4.49,4.49,0,0,1-.82,0h0a4.89,4.89,0,0,1-.78-.15l0,0a3.08,3.08,0,0,1-.64-.27,2.21,2.21,0,0,1-.32-.22.6.6,0,0,1-.08-.08,1.41,1.41,0,0,1-.17-.18l-.06-.08a.91.91,0,0,1-.13-.26h0a1,1,0,0,1,0-.3v1.3h0a1.1,1.1,0,0,0,0,.18v-.07h0v.08l0,.11h0a.94.94,0,0,0,.14.26s0,.05,0,.07a1.54,1.54,0,0,0,.17.19l.08.07a2.62,2.62,0,0,0,.32.23l.4.19.24.08h.09l.29.07.27,0,.18,0h.93l.35,0,.3-.07.14,0,.08,0a2.72,2.72,0,0,0,.6-.26l0,0,.06,0,.25-.18,0,0a1.36,1.36,0,0,0,.12-.12l0-.05h0a1.77,1.77,0,0,0,.12-.17s0,0,0,0,0,0,0,0a.25.25,0,0,0,0-.07.83.83,0,0,0,0-.15h0a.59.59,0,0,0,0-.13Z"/></g><path class="cls-50" d="M36.83,112.31v-4.56h.59v4.55a.23.23,0,0,1-.23.24h-.13A.23.23,0,0,1,36.83,112.31Z"/><path class="cls-50" d="M36.83,109.23c-.13,0-2.33.1-2.22-1.06h-.36s-.38,1.48,2.58,1.48Z"/><ellipse class="cls-51" cx="34.43" cy="108.17" rx="0.19" ry="0.05"/><path class="cls-52" d="M35.75,104a4.14,4.14,0,0,1,2.82-3.76,5.46,5.46,0,0,0-1.29-.25,4.3,4.3,0,0,0-3.63,4,4.42,4.42,0,0,0,4.4,4.11,5.54,5.54,0,0,0,.82-.24A4.2,4.2,0,0,1,35.75,104Z"/><path class="cls-53" d="M33.65,104a4.3,4.3,0,0,1,3.63-4h-.36c-2.63,0-4.76,1.85-4.76,4.13s2.13,4.12,4.76,4.12a5.22,5.22,0,0,0,1.13-.12A4.42,4.42,0,0,1,33.65,104Z"/><path class="cls-54" d="M35.75,104a4.2,4.2,0,0,0,3.12,3.87,4.14,4.14,0,0,0,2.81-3.76,4.19,4.19,0,0,0-3.11-3.87A4.14,4.14,0,0,0,35.75,104Z"/><path class="cls-52" d="M33.59,107.33a1.57,1.57,0,0,1,1.06-1.42,1.94,1.94,0,0,0-.48-.09,1.62,1.62,0,0,0-1.37,1.51,1.67,1.67,0,0,0,1.66,1.56l.3-.1A1.58,1.58,0,0,1,33.59,107.33Z"/><path class="cls-53" d="M32.8,107.33a1.62,1.62,0,0,1,1.37-1.51H34a1.57,1.57,0,1,0,0,3.11,2,2,0,0,0,.43,0A1.67,1.67,0,0,1,32.8,107.33Z"/><path class="cls-54" d="M33.59,107.33a1.58,1.58,0,0,0,1.17,1.46,1.56,1.56,0,0,0,1.07-1.42,1.59,1.59,0,0,0-1.18-1.46A1.57,1.57,0,0,0,33.59,107.33Z"/><g class="cls-20"><g class="cls-20"><g class="cls-75"><g class="cls-20"><path class="cls-22" d="M29.22,117.18v1.29a1,1,0,0,0-.61-.84,1.38,1.38,0,0,0-.3-.14v-1.3l.3.14a1,1,0,0,1,.6.85"/><path class="cls-23" d="M28.32,116.19v1.3a1.84,1.84,0,0,0-.25-.09v-1.3l.25.09"/><path class="cls-24" d="M28.07,116.1v1.3l-.21-.05v-1.3l.22,0"/><path class="cls-25" d="M27.85,116.05v1.3l-.2,0V116l.2,0"/><path class="cls-26" d="M27.65,116v1.29l-.2,0V116l.2,0"/><path class="cls-27" d="M27.45,116v1.3h-.2V116h.2"/><path class="cls-28" d="M27.25,116v1.3H27V116h.21"/><path class="cls-29" d="M27,116v1.3l-.23,0V116l.23,0"/><path class="cls-30" d="M26.81,116v1.3l-.26,0V116l.26,0"/><path class="cls-31" d="M26.55,116v1.29l-.39.1v-1.3a2.74,2.74,0,0,1,.39-.09"/><path class="cls-32" d="M26.16,116.13v1.3a2,2,0,0,0-.45.2h0v-1.29l0,0a3.07,3.07,0,0,1,.45-.2"/><path class="cls-31" d="M25.68,116.35v1.29a1.37,1.37,0,0,0-.26.2v-1.3a1.64,1.64,0,0,1,.25-.19"/><path class="cls-30" d="M25.43,116.54v1.3a1.59,1.59,0,0,0-.13.13v-1.29a.86.86,0,0,1,.13-.14"/><path class="cls-29" d="M25.3,116.68V118l-.08.12V116.8a.5.5,0,0,1,.08-.12"/><path class="cls-28" d="M25.22,116.8v1.29a.61.61,0,0,0-.05.12v-1.3a.6.6,0,0,1,.06-.11"/><path class="cls-27" d="M25.16,116.91v1.3a.56.56,0,0,0,0,.12V117l0-.12"/><path class="cls-26" d="M25.13,117v1.3s0,.07,0,.11v-1.29a.49.49,0,0,1,0-.12"/><path class="cls-25" d="M25.12,117.15v0h0"/></g></g></g><g class="cls-20"><g class="cls-76"><g class="cls-20"><path class="cls-25" d="M29.91,117.18v0"/><path class="cls-26" d="M29.91,117.2v1.3a.92.92,0,0,1,0,.16v-1.3a.88.88,0,0,0,0-.16"/></g></g></g><g class="cls-20"><g class="cls-77"><g class="cls-20"><path class="cls-22" d="M25.63,118.48v1.3a2.35,2.35,0,0,1-.39-.19,1.37,1.37,0,0,1-.82-1.13v-1.3a1.37,1.37,0,0,0,.81,1.13,2,2,0,0,0,.39.19"/></g></g></g><g class="cls-20"><g class="cls-78"><g class="cls-20"><path class="cls-36" d="M29.22,117.18v0h0"/><path class="cls-37" d="M29.22,117.19v1.3a.5.5,0,0,1,0,.12v-1.3s0-.08,0-.12"/><path class="cls-38" d="M29.21,117.31v1.3a.35.35,0,0,1,0,.11v-1.29a.56.56,0,0,0,0-.12"/><path class="cls-39" d="M29.17,117.43v1.29a.61.61,0,0,1-.05.12v-1.3a.54.54,0,0,0,.05-.11"/><path class="cls-40" d="M29.12,117.54v1.3L29,119v-1.29l.08-.13"/><path class="cls-41" d="M29,117.67V119a.57.57,0,0,1-.13.14v-1.3a1.59,1.59,0,0,0,.13-.13"/><path class="cls-42" d="M28.91,117.8v1.3a1.34,1.34,0,0,1-.26.19V118a1.79,1.79,0,0,0,.26-.2"/><path class="cls-43" d="M28.65,118v1.29l0,0a3.07,3.07,0,0,1-.45.2v-1.3a2.28,2.28,0,0,0,.45-.2h0"/><path class="cls-42" d="M28.17,118.21v1.3a2.74,2.74,0,0,1-.39.09v-1.29l.39-.1"/><path class="cls-41" d="M27.78,118.31v1.29l-.26,0v-1.3l.26,0"/><path class="cls-40" d="M27.52,118.34v1.3l-.23,0v-1.3l.22,0"/><path class="cls-39" d="M27.3,118.36v1.3h-.21v-1.3h.21"/><path class="cls-38" d="M27.09,118.36v1.3h-.2v-1.3h.21"/><path class="cls-37" d="M26.88,118.35v1.3l-.2,0v-1.29l.19,0"/><path class="cls-36" d="M26.69,118.33v1.29l-.2,0v-1.3l.21,0"/><path class="cls-44" d="M26.48,118.29v1.3l-.22,0v-1.3l.21.05"/><path class="cls-45" d="M26.27,118.24v1.3l-.24-.09v-1.3a1.84,1.84,0,0,0,.25.09"/><path class="cls-46" d="M26,118.15v1.3a2.09,2.09,0,0,1-.3-.14,1,1,0,0,1-.61-.85v-1.3a1,1,0,0,0,.61.85,2,2,0,0,0,.3.14"/></g></g></g><path class="cls-47" d="M29.1,116.05a1.18,1.18,0,0,1,0,2.24,4.26,4.26,0,0,1-3.87,0,1.18,1.18,0,0,1,0-2.24A4.28,4.28,0,0,1,29.1,116.05Zm-3.38,2a3.16,3.16,0,0,0,2.9,0,.89.89,0,0,0,0-1.68,3.24,3.24,0,0,0-2.91,0,.89.89,0,0,0,0,1.68"/><path class="cls-48" d="M28.62,116.33a.89.89,0,0,1,0,1.68,3.16,3.16,0,0,1-2.9,0,.89.89,0,0,1,0-1.68A3.24,3.24,0,0,1,28.62,116.33Z"/><path class="cls-49" d="M29.91,117.2a.88.88,0,0,1,0,.16h0a.83.83,0,0,1-.08.22s0,0,0,0a1.35,1.35,0,0,1-.14.22l0,0-.16.15a1.55,1.55,0,0,1-.24.19l-.1.06a3.76,3.76,0,0,1-.68.29l-.14,0a4.11,4.11,0,0,1-.7.13h0a5.47,5.47,0,0,1-.81,0h0a3.37,3.37,0,0,1-.78-.15h-.05a3.1,3.1,0,0,1-.64-.28,2,2,0,0,1-.32-.22l-.08-.07-.17-.19-.05-.07a1.16,1.16,0,0,1-.14-.27h0a.79.79,0,0,1-.05-.3v1.3h0a1.1,1.1,0,0,0,0,.18v-.07h0v.07l0,.11h0a.91.91,0,0,0,.13.26l.06.08a1.41,1.41,0,0,0,.17.18.27.27,0,0,0,.08.07,1.65,1.65,0,0,0,.32.23,2.35,2.35,0,0,0,.39.19l.25.08,0,0H26l.29.07.27.05.18,0h.35a1.31,1.31,0,0,0,.28,0h.31l.35,0c.1,0,.2,0,.3-.07l.14,0,.07,0a2.32,2.32,0,0,0,.6-.26l0,0,.06,0,.25-.18,0,0,.11-.12,0,0h0l.11-.16s0,0,0,0,0,0,0-.05l0-.07s0-.1.05-.15h0v0h0a.57.57,0,0,0,0-.13Z"/></g><path class="cls-50" d="M26.94,117.49v-4.56h.59v4.56a.23.23,0,0,1-.23.23h-.13A.23.23,0,0,1,26.94,117.49Z"/><path class="cls-50" d="M26.94,114.41c-.13,0-2.33.11-2.21-1.06h-.37s-.37,1.48,2.58,1.48Z"/><ellipse class="cls-51" cx="24.54" cy="113.35" rx="0.19" ry="0.05"/><path class="cls-52" d="M25.87,109.19a4.13,4.13,0,0,1,2.81-3.76,4.92,4.92,0,0,0-1.28-.24,4.28,4.28,0,0,0-3.63,4,4.41,4.41,0,0,0,4.4,4.11,5.41,5.41,0,0,0,.81-.24A4.19,4.19,0,0,1,25.87,109.19Z"/><path class="cls-53" d="M23.77,109.19a4.28,4.28,0,0,1,3.63-4l-.37,0c-2.63,0-4.76,1.85-4.76,4.13s2.13,4.12,4.76,4.12a5.38,5.38,0,0,0,1.14-.12A4.41,4.41,0,0,1,23.77,109.19Z"/><path class="cls-54" d="M25.87,109.19A4.19,4.19,0,0,0,29,113.06a4.15,4.15,0,0,0,2.82-3.76,4.2,4.2,0,0,0-3.12-3.87A4.13,4.13,0,0,0,25.87,109.19Z"/><path class="cls-52" d="M23.7,112.52a1.56,1.56,0,0,1,1.06-1.42,1.86,1.86,0,0,0-.48-.1,1.62,1.62,0,0,0-1.37,1.52,1.66,1.66,0,0,0,1.66,1.55,1.58,1.58,0,0,0,.31-.09A1.59,1.59,0,0,1,23.7,112.52Z"/><path class="cls-53" d="M22.91,112.52A1.62,1.62,0,0,1,24.28,111h-.14a1.57,1.57,0,1,0,0,3.11,2,2,0,0,0,.43,0A1.66,1.66,0,0,1,22.91,112.52Z"/><path class="cls-54" d="M23.7,112.52A1.59,1.59,0,0,0,24.88,114a1.49,1.49,0,0,0-.12-2.88A1.56,1.56,0,0,0,23.7,112.52Z"/></svg>